g OP_129
v -0.5403748 -11.68139 14.52547
v -0.5403748 -13.57816 28.39888
v -0.5403748 8.937824 31.47726
v -0.5403748 10.8346 17.60386
v -0.351593 -24.90798 -44.05054
v -0.351593 -22.69114 -24.54878
v -0.351593 3.427013 -27.51773
v -0.351593 1.210178 -47.01949
v -0.1335754 -9.216213 -18.0741
v -0.1335754 -9.216213 -3.79689
v -0.1335754 13.95511 -3.79689
v -0.1335754 13.95511 -18.0741
v -0.7766418 -37.61005 14.12416
v -0.7766418 -37.61005 30.36001
v -0.7766418 -11.25991 30.36001
v -0.7766418 -11.25991 14.12416
v -0.8864441 -7.805912 25.60766
v -0.8864441 -7.805912 38.51962
v -0.8864441 12.24475 38.51962
v -0.8864441 12.24475 25.60766
v -0.1335754 -24.92508 2.476166
v -0.1335754 -24.92508 18.08903
v -0.1335754 0.4139366 18.08903
v -0.1335754 0.4139366 2.476166
v 0.1141663 -17.24928 51.0424
v 0.1141663 -17.24928 65.4667
v 0.1141663 2.414722 65.4667
v 0.1141663 2.414722 51.0424
v 0.400116 -19.10458 12.64909
v 0.400116 -19.10458 25.81242
v 0.400116 2.258976 25.81242
v 0.400116 2.258976 12.64909
v -0.351593 -24.90798 27.12211
v -0.351593 -22.69114 46.62386
v -0.351593 3.427013 43.65491
v -0.351593 1.210178 24.15316
v 0.8864441 -30.89041 -11.63526
v 0.8864441 -30.89041 1.745445
v 0.8864441 -9.174061 1.745445
v 0.8864441 -9.174061 -11.63526
v -0.2810974 -0.8769569 7.833473
v -0.2810974 -0.8769569 19.26315
v -0.2810974 17.67293 19.26315
v -0.2810974 17.67293 7.833473
v -0.4217834 -24.92508 -65.4667
v -0.4217834 -24.92508 -49.85384
v -0.4217834 0.4139366 -49.85384
v -0.4217834 0.4139366 -65.4667
v -0.01028442 -3.20512 -41.68782
v 0.426178 2.258976 -41.68782
v 0.426178 2.258976 -54.85114
v -0.01028442 -1.928555 -54.85114
v -0.01028442 -19.10458 -54.85114
v -0.01028442 -19.10458 -41.68782
v 0.2867126 -14.29626 -23.55579
v 0.2867126 -14.29626 5.296303
v 0.2867126 1.605488 5.296303
v 0.2867126 1.605488 -23.55579
v -0.7766418 -37.61005 -57.04848
v -0.7766418 -37.61005 -40.81262
v -0.7766418 -11.25991 -40.81262
v -0.7766418 -11.25991 -57.04848
v 0.1141663 14.96328 -29.12608
v 0.1141663 15.90113 -15.74994
v 0.1141663 37.61003 -17.27205
v 0.1141663 36.6722 -30.64817
v -0.6922913 8.54903 -46.10616
v -0.6922913 8.54903 -33.19421
v -0.6922913 28.59969 -33.19421
v -0.6922913 28.59969 -46.10616
v 0.5289001 -19.80519 -12.66726
v 0.5289001 -18.58326 4.760597
v 0.5289001 9.701443 2.777443
v 0.5289001 8.479519 -14.65041
v -0.5173645 -7.22636 -37.05346
v -0.5173645 -7.483738 -19.58472
v -0.5173645 20.86733 -19.16701
v -0.5173645 21.1247 -36.63576
vt 0.88776 0.08468612
vt 0.937261 0.08468612
vt 0.937261 0.1579111
vt 0.88776 0.1579111
vt 0.88776 0.08468612
vt 0.937261 0.08468612
vt 0.937261 0.1579111
vt 0.88776 0.1579111
vt 0.88776 0.08468612
vt 0.937261 0.08468612
vt 0.937261 0.1579111
vt 0.88776 0.1579111
vt 0.88776 0.08468612
vt 0.937261 0.08468612
vt 0.937261 0.1579111
vt 0.88776 0.1579111
vt 0.88776 0.08468612
vt 0.937261 0.08468612
vt 0.937261 0.1579111
vt 0.88776 0.1579111
vt 0.88776 0.08468612
vt 0.937261 0.08468612
vt 0.937261 0.1579111
vt 0.88776 0.1579111
vt 0.88776 0.08468612
vt 0.937261 0.08468612
vt 0.937261 0.1579111
vt 0.88776 0.1579111
vt 0.88776 0.08468612
vt 0.937261 0.08468612
vt 0.937261 0.1579111
vt 0.88776 0.1579111
vt 0.88776 0.08468612
vt 0.937261 0.08468612
vt 0.937261 0.1579111
vt 0.88776 0.1579111
vt 0.88776 0.08468612
vt 0.937261 0.08468612
vt 0.937261 0.1579111
vt 0.88776 0.1579111
vt 0.88776 0.08468612
vt 0.937261 0.08468612
vt 0.937261 0.1579111
vt 0.88776 0.1579111
vt 0.88776 0.08468612
vt 0.937261 0.08468612
vt 0.937261 0.1579111
vt 0.88776 0.1579111
vt 0.937261 0.1391831
vt 0.937261 0.1579111
vt 0.88776 0.1579111
vt 0.88776 0.1435581
vt 0.88776 0.08468612
vt 0.937261 0.08468612
vt 0.88776 0.08468612
vt 0.937261 0.08468612
vt 0.937261 0.1579111
vt 0.88776 0.1579111
vt 0.88776 0.08468612
vt 0.937261 0.08468612
vt 0.937261 0.1579111
vt 0.88776 0.1579111
vt 0.88776 0.08468612
vt 0.937261 0.08468612
vt 0.937261 0.1579111
vt 0.88776 0.1579111
vt 0.88776 0.08468612
vt 0.937261 0.08468612
vt 0.937261 0.1579111
vt 0.88776 0.1579111
vt 0.88776 0.08468612
vt 0.937261 0.08468612
vt 0.937261 0.1579111
vt 0.88776 0.1579111
vt 0.88776 0.08468612
vt 0.937261 0.08468612
vt 0.937261 0.1579111
vt 0.88776 0.1579111
vn 1 0 0
vn 1 0 0
vn 1 0 0
vn 1 0 0
vn 1 0 0
vn 1 0 0
vn 1 0 0
vn 1 0 0
vn 1 0 0
vn 1 0 0
vn 1 0 0
vn 1 0 0
vn 1 0 0
vn 1 0 0
vn 1 0 0
vn 1 0 0
vn 1 0 0
vn 1 0 0
vn 1 0 0
vn 1 0 0
vn 1 0 0
vn 1 0 0
vn 1 0 0
vn 1 0 0
vn 1 0 0
vn 1 0 0
vn 1 0 0
vn 1 0 0
vn 1 0 0
vn 1 0 0
vn 1 0 0
vn 1 0 0
vn 1 0 0
vn 1 0 0
vn 1 0 0
vn 1 0 0
vn 1 0 0
vn 1 0 0
vn 1 0 0
vn 1 0 0
vn 1 0 0
vn 1 0 0
vn 1 0 0
vn 1 0 0
vn 1 0 0
vn 1 0 0
vn 1 0 0
vn 1 0 0
vn 0.9998276 -0.01854599 -0.0008989997
vn 0.9959257 -0.09007296 -0.004367999
vn 0.9959257 -0.09007296 -0.004367999
vn 0.9997477 -0.02243299 -0.001088
vn 1 0 0
vn 1 0 0
vn 1 0 0
vn 1 0 0
vn 1 0 0
vn 1 0 0
vn 1 0 0
vn 1 0 0
vn 1 0 0
vn 1 0 0
vn 1 0 0
vn 1 0 0
vn 1 0 0
vn 1 0 0
vn 1 0 0
vn 1 0 0
vn 1 0 0
vn 1 0 0
vn 1 0 0
vn 1 0 0
vn 1 0 0
vn 1 0 0
vn 1 0 0
vn 1 0 0
vn 1 0 0
vn 1 0 0
g OP_129_0
f 3/3/3 2/2/2 1/1/1
f 4/4/4 3/3/3 1/1/1
f 7/7/7 6/6/6 5/5/5
f 8/8/8 7/7/7 5/5/5
f 11/11/11 10/10/10 9/9/9
f 12/12/12 11/11/11 9/9/9
f 15/15/15 14/14/14 13/13/13
f 16/16/16 15/15/15 13/13/13
f 19/19/19 18/18/18 17/17/17
f 20/20/20 19/19/19 17/17/17
f 23/23/23 22/22/22 21/21/21
f 24/24/24 23/23/23 21/21/21
f 27/27/27 26/26/26 25/25/25
f 28/28/28 27/27/27 25/25/25
f 31/31/31 30/30/30 29/29/29
f 32/32/32 31/31/31 29/29/29
f 35/35/35 34/34/34 33/33/33
f 36/36/36 35/35/35 33/33/33
f 39/39/39 38/38/38 37/37/37
f 40/40/40 39/39/39 37/37/37
f 43/43/43 42/42/42 41/41/41
f 44/44/44 43/43/43 41/41/41
f 47/47/47 46/46/46 45/45/45
f 48/48/48 47/47/47 45/45/45
f 51/51/51 50/50/50 49/49/49
f 52/52/52 51/51/51 49/49/49
f 52/52/52 49/49/49 53/53/53
f 49/49/49 54/54/54 53/53/53
f 57/57/57 56/56/56 55/55/55
f 58/58/58 57/57/57 55/55/55
f 61/61/61 60/60/60 59/59/59
f 62/62/62 61/61/61 59/59/59
f 65/65/65 64/64/64 63/63/63
f 66/66/66 65/65/65 63/63/63
f 69/69/69 68/68/68 67/67/67
f 70/70/70 69/69/69 67/67/67
f 73/73/73 72/72/72 71/71/71
f 74/74/74 73/73/73 71/71/71
f 77/77/77 76/76/76 75/75/75
f 78/78/78 77/77/77 75/75/75
