g OP_134
v 9.827152 -15.85552 -0.2099341
v 22.46077 -15.85552 -0.2099341
v 22.46077 4.648386 -0.2099341
v 9.827152 4.648386 -0.2099341
v 23.71775 -21.42539 0.5114824
v 42.43476 -19.29777 0.5114824
v 39.5853 5.769419 0.5114824
v 20.86826 3.641794 0.5114824
v -68.24515 -21.44181 0.578869
v -53.26056 -21.44181 0.578869
v -53.26056 2.877588 0.578869
v -68.24515 2.877588 0.578869
v -64.59167 -8.920355 0.3411294
v -49.32943 -8.920355 0.3411294
v -49.32943 15.84966 0.3411294
v -64.59167 15.84966 0.3411294
v -42.32333 -0.5958462 0.1839754
v -42.32333 4.648386 -0.2349127
v -54.95694 4.648386 -0.2349127
v -54.95694 0.629343 0.1839754
v -54.95694 -15.85552 0.1839754
v -42.32333 -15.85552 0.1839754
v -14.47052 -16.52794 -0.2127341
v 2.256046 -15.35517 -0.2127341
v 0.3526955 11.79137 -0.2127341
v -16.37388 10.6186 -0.2127341
v 11.24283 -33.61634 0.3403207
v 26.82537 -33.61634 0.3403207
v 26.82537 -8.326513 0.3403207
v 11.24283 -8.326513 0.3403207
v 66.09703 -8.792547 0.06453717
v 79.70853 -11.31824 0.06453717
v 83.15172 7.237741 0.06453717
v 69.54019 9.763445 0.06453717
v 38.84269 -16.19643 0.001854073
v 49.84999 -17.66244 0.001854073
v 52.34156 1.045122 0.001854073
v 41.33425 2.511118 0.001854073
v -19.6598 0.1800327 0.3022729
v -5.957088 0.1800327 0.3022729
v -5.957088 22.41897 0.3022729
v -19.6598 22.41897 0.3022729
v -16.74255 -27.16709 0.5659372
v -3.900311 -27.16709 0.5659372
v -3.900311 -6.324606 0.5659372
v -16.74255 -6.324606 0.5659372
v 15.71384 15.81291 0.4439126
v 26.68358 15.81291 0.4439126
v 26.68358 33.61634 0.4439126
v 15.71384 33.61634 0.4439126
v -81.4053 -13.71499 0.4440309
v -66.05765 -12.63889 0.4440309
v -67.80411 12.26973 0.4440309
v -83.15173 11.19364 0.4440309
v -18.3448 1.209803 -0.1011237
v 9.346333 1.209803 -0.1011237
v 9.346333 16.47167 -0.1011237
v -18.3448 16.47167 -0.1011237
v -57.06588 -33.61634 0.5130121
v -41.48336 -33.61634 0.5130121
v -41.48336 -8.326513 0.5130121
v -57.06588 -8.326513 0.5130121
v -37.87545 -14.26055 0.6706201
v -21.10962 -14.50757 0.6706201
v -20.70874 12.70268 0.6706201
v -37.47458 12.94968 0.6706201
v 14.10929 -1.26045 0.6927224
v 27.42446 -3.080908 0.6927224
v 30.37899 18.52905 0.6927224
v 17.06385 20.34951 0.6927224
v -44.59097 -21.42539 0.5114824
v -25.87394 -19.29777 0.5114824
v -28.72342 5.769419 0.5114824
v -47.44046 3.641794 0.5114824
v -30.26706 5.2969 0.06453717
v -17.42918 6.197008 0.06453717
v -18.89004 27.03237 0.06453717
v -31.72793 26.13227 0.06453717
v 24.60845 28.69331 0.06453717
v 4.810276 28.69331 -0.6927222
v 4.810276 22.67257 0.06453717
v 4.810276 -3.438353 0.06453717
v 24.60845 -3.438353 0.06453717
v 0.06354141 -21.44181 0.3022729
v 15.04816 -21.44181 0.3022729
v 15.04816 2.877588 0.3022729
v 0.06354141 2.877588 0.3022729
v 46.67551 -14.07487 0.06453717
v 60.51938 -14.07487 0.06453717
v 60.51938 4.797861 0.06453717
v 46.67551 4.797861 0.06453717
vt 0.88776 0.08468612
vt 0.937261 0.08468612
vt 0.937261 0.1579111
vt 0.88776 0.1579111
vt 0.88776 0.08468612
vt 0.937261 0.08468612
vt 0.937261 0.1579111
vt 0.88776 0.1579111
vt 0.88776 0.08468612
vt 0.937261 0.08468612
vt 0.937261 0.1579111
vt 0.88776 0.1579111
vt 0.88776 0.08468612
vt 0.937261 0.08468612
vt 0.937261 0.1579111
vt 0.88776 0.1579111
vt 0.937261 0.1391831
vt 0.937261 0.1579111
vt 0.88776 0.1579111
vt 0.88776 0.1435581
vt 0.88776 0.08468612
vt 0.937261 0.08468612
vt 0.88776 0.08468612
vt 0.937261 0.08468612
vt 0.937261 0.1579111
vt 0.88776 0.1579111
vt 0.88776 0.08468612
vt 0.937261 0.08468612
vt 0.937261 0.1579111
vt 0.88776 0.1579111
vt 0.88776 0.08468612
vt 0.937261 0.08468612
vt 0.937261 0.1579111
vt 0.88776 0.1579111
vt 0.88776 0.08468612
vt 0.937261 0.08468612
vt 0.937261 0.1579111
vt 0.88776 0.1579111
vt 0.88776 0.08468612
vt 0.937261 0.08468612
vt 0.937261 0.1579111
vt 0.88776 0.1579111
vt 0.88776 0.08468612
vt 0.937261 0.08468612
vt 0.937261 0.1579111
vt 0.88776 0.1579111
vt 0.88776 0.08468612
vt 0.937261 0.08468612
vt 0.937261 0.1579111
vt 0.88776 0.1579111
vt 0.88776 0.08468612
vt 0.937261 0.08468612
vt 0.937261 0.1579111
vt 0.88776 0.1579111
vt 0.88776 0.08468612
vt 0.937261 0.08468612
vt 0.937261 0.1579111
vt 0.88776 0.1579111
vt 0.88776 0.08468612
vt 0.937261 0.08468612
vt 0.937261 0.1579111
vt 0.88776 0.1579111
vt 0.88776 0.08468612
vt 0.937261 0.08468612
vt 0.937261 0.1579111
vt 0.88776 0.1579111
vt 0.88776 0.08468612
vt 0.937261 0.08468612
vt 0.937261 0.1579111
vt 0.88776 0.1579111
vt 0.88776 0.08468612
vt 0.937261 0.08468612
vt 0.937261 0.1579111
vt 0.88776 0.1579111
vt 0.88776 0.08468612
vt 0.937261 0.08468612
vt 0.937261 0.1579111
vt 0.88776 0.1579111
vt 0.9437521 0.1585621
vt 0.993253 0.1585621
vt 0.993253 0.1448411
vt 0.993253 0.0853371
vt 0.9437521 0.0853371
vt 0.88776 0.08468612
vt 0.937261 0.08468612
vt 0.937261 0.1579111
vt 0.88776 0.1579111
vt 0.88776 0.08468612
vt 0.937261 0.08468612
vt 0.937261 0.1579111
vt 0.88776 0.1579111
vn 0 0 -1
vn 0 0 -1
vn 0 0 -1
vn 0 0 -1
vn 0 0 -1
vn 0 0 -1
vn 0 0 -1
vn 0 0 -1
vn 0 0 -1
vn 0 0 -1
vn 0 0 -1
vn 0 0 -1
vn 0 0 -1
vn 0 0 -1
vn 0 0 -1
vn 0 0 -1
vn -0.0008989997 -0.01854599 -0.9998276
vn -0.004367999 -0.09007296 -0.9959257
vn -0.004367999 -0.09007296 -0.9959257
vn -0.001088 -0.02243299 -0.9997477
vn 0 0 -1
vn 0 0 -1
vn 0 0 -1
vn 0 0 -1
vn 0 0 -1
vn 0 0 -1
vn 0 0 -1
vn 0 0 -1
vn 0 0 -1
vn 0 0 -1
vn 0 0 -1
vn 0 0 -1
vn 0 0 -1
vn 0 0 -1
vn 0 0 -1
vn 0 0 -1
vn 0 0 -1
vn 0 0 -1
vn 0 0 -1
vn 0 0 -1
vn 0 0 -1
vn 0 0 -1
vn 0 0 -1
vn 0 0 -1
vn 0 0 -1
vn 0 0 -1
vn 0 0 -1
vn 0 0 -1
vn 0 0 -1
vn 0 0 -1
vn 0 0 -1
vn 0 0 -1
vn 0 0 -1
vn 0 0 -1
vn 0 0 -1
vn 0 0 -1
vn 0 0 -1
vn 0 0 -1
vn 0 0 -1
vn 0 0 -1
vn 0 0 -1
vn 0 0 -1
vn 0 0 -1
vn 0 0 -1
vn 0 0 -1
vn 0 0 -1
vn 0 0 -1
vn 0 0 -1
vn 0 0 -1
vn 0 0 -1
vn 0 0 -1
vn 0 0 -1
vn 0 0 -1
vn 0 0 -1
vn 0 0 -1
vn 0 0 -1
vn 0 0 -1
vn 0 0 -1
vn 0.0009010002 -0.002962 -0.9999952
vn 0.03792201 -0.124701 -0.9914693
vn 0.002529 -0.008315001 -0.9999622
vn 0 0 -1
vn 0 0 -1
vn 0 0 -1
vn 0 0 -1
vn 0 0 -1
vn 0 0 -1
vn 0 0 -1
vn 0 0 -1
vn 0 0 -1
vn 0 0 -1
g OP_134_0
f 3/3/3 2/2/2 1/1/1
f 4/4/4 3/3/3 1/1/1
f 7/7/7 6/6/6 5/5/5
f 8/8/8 7/7/7 5/5/5
f 11/11/11 10/10/10 9/9/9
f 12/12/12 11/11/11 9/9/9
f 15/15/15 14/14/14 13/13/13
f 16/16/16 15/15/15 13/13/13
f 19/19/19 18/18/18 17/17/17
f 20/20/20 19/19/19 17/17/17
f 20/20/20 17/17/17 21/21/21
f 17/17/17 22/22/22 21/21/21
f 25/25/25 24/24/24 23/23/23
f 26/26/26 25/25/25 23/23/23
f 29/29/29 28/28/28 27/27/27
f 30/30/30 29/29/29 27/27/27
f 33/33/33 32/32/32 31/31/31
f 34/34/34 33/33/33 31/31/31
f 37/37/37 36/36/36 35/35/35
f 38/38/38 37/37/37 35/35/35
f 41/41/41 40/40/40 39/39/39
f 42/42/42 41/41/41 39/39/39
f 45/45/45 44/44/44 43/43/43
f 46/46/46 45/45/45 43/43/43
f 49/49/49 48/48/48 47/47/47
f 50/50/50 49/49/49 47/47/47
f 53/53/53 52/52/52 51/51/51
f 54/54/54 53/53/53 51/51/51
f 57/57/57 56/56/56 55/55/55
f 58/58/58 57/57/57 55/55/55
f 61/61/61 60/60/60 59/59/59
f 62/62/62 61/61/61 59/59/59
f 65/65/65 64/64/64 63/63/63
f 66/66/66 65/65/65 63/63/63
f 69/69/69 68/68/68 67/67/67
f 70/70/70 69/69/69 67/67/67
f 73/73/73 72/72/72 71/71/71
f 74/74/74 73/73/73 71/71/71
f 77/77/77 76/76/76 75/75/75
f 78/78/78 77/77/77 75/75/75
f 81/81/81 80/80/80 79/79/79
f 81/81/81 79/79/79 82/82/82
f 79/79/79 83/83/83 82/82/82
f 86/86/86 85/85/85 84/84/84
f 87/87/87 86/86/86 84/84/84
f 90/90/90 89/89/89 88/88/88
f 91/91/91 90/90/90 88/88/88
