g OP_139
v -12.6553 150.3996 1.099094
v -12.6553 156.6834 1.099094
v -9.287872 156.6834 9.943333
v -9.287872 150.3996 9.943333
v -1.157013 156.6834 13.49118
v -1.157013 150.3996 13.49118
v 6.973785 156.6834 9.943333
v 6.973785 150.3996 9.943333
v 10.34128 156.6834 1.099094
v 10.34128 150.3996 1.099094
v 6.973785 156.6834 -7.744884
v 6.973785 150.3996 -7.744884
v -1.157013 156.6834 -11.29299
v -1.157013 150.3996 -11.29299
v -9.287872 156.6834 -7.744884
v -9.287872 150.3996 -7.744884
v -12.6553 156.6834 1.099094
v -12.6553 150.3996 1.099094
v -9.287872 156.6834 9.943333
v -12.6553 156.6834 1.099094
v -9.287872 156.6834 -7.744884
v -1.157013 156.6834 -11.29299
v 6.973785 156.6834 -7.744884
v -1.157013 156.6834 13.49118
v 6.973785 156.6834 9.943333
v 10.34128 156.6834 1.099094
v -3.870941 142.5305 15.45603
v -3.870941 150.785 15.45603
v 8.544647 150.785 11.3458
v 8.544647 142.5305 11.3458
v 12.6553 150.785 1.099339
v 12.6553 142.5305 1.099339
v 8.544647 150.785 -9.14687
v 8.544647 142.5305 -9.14687
v -3.870941 150.785 -13.25748
v -3.870941 142.5305 -13.25748
v -3.870941 150.785 -13.25748
v 8.544647 150.785 -9.14687
v -3.870941 150.785 15.45603
v 12.6553 150.785 1.099339
v 8.544647 150.785 11.3458
v -8.148956 150.785 -13.25748
v -8.148956 150.785 15.45603
v -3.870941 150.785 22.66088
v -8.148956 150.785 22.66088
v -8.148956 150.785 -22.66088
v -3.870941 150.785 -22.66088
v -3.870941 142.5305 15.45603
v -3.870941 142.5305 22.66088
v -3.870941 150.785 22.66088
v -3.870941 150.785 15.45603
v -3.870941 150.785 -13.25748
v -3.870941 150.785 -22.66088
v -3.870941 142.5305 -22.66088
v -3.870941 142.5305 -13.25748
v -3.870941 142.5305 22.66088
v -8.148956 142.5305 22.66088
v -8.148956 150.785 22.66088
v -3.870941 150.785 22.66088
v -3.870941 150.785 -22.66088
v -8.148956 150.785 -22.66088
v -8.148956 142.5305 -22.66088
v -3.870941 142.5305 -22.66088
v -3.870941 69.8131 15.45603
v -3.870941 78.06764 15.45603
v 8.544647 78.06764 11.3458
v 8.544647 69.8131 11.3458
v 12.6553 78.06764 1.099339
v 12.6553 69.8131 1.099339
v 8.544647 78.06764 -9.14687
v 8.544647 69.8131 -9.14687
v -3.870941 78.06764 -13.25748
v -3.870941 69.8131 -13.25748
v -3.870941 78.06764 -13.25748
v 8.544647 78.06764 -9.14687
v -3.870941 78.06764 15.45603
v 12.6553 78.06764 1.099339
v 8.544647 78.06764 11.3458
v -8.148956 78.06764 -13.25748
v -8.148956 78.06764 15.45603
v -3.870941 78.06764 22.66088
v -8.148956 78.06764 22.66088
v -8.148956 78.06764 -22.66088
v -3.870941 78.06764 -22.66088
v -3.870941 69.8131 15.45603
v -3.870941 69.8131 22.66088
v -3.870941 78.06764 22.66088
v -3.870941 78.06764 15.45603
v -3.870941 78.06764 -13.25748
v -3.870941 78.06764 -22.66088
v -3.870941 69.8131 -22.66088
v -3.870941 69.8131 -13.25748
v -3.870941 69.8131 22.66088
v -8.148956 69.8131 22.66088
v -8.148956 78.06764 22.66088
v -3.870941 78.06764 22.66088
v -3.870941 78.06764 -22.66088
v -8.148956 78.06764 -22.66088
v -8.148956 69.8131 -22.66088
v -3.870941 69.8131 -22.66088
v -3.870941 -125.1183 15.45603
v -3.870941 -116.8638 15.45603
v 8.544647 -116.8638 11.3458
v 8.544647 -125.1183 11.3458
v 12.6553 -116.8638 1.099339
v 12.6553 -125.1183 1.099339
v 8.544647 -116.8638 -9.14687
v 8.544647 -125.1183 -9.14687
v -3.870941 -116.8638 -13.25748
v -3.870941 -125.1183 -13.25748
v -3.870941 -116.8638 -13.25748
v 8.544647 -116.8638 -9.14687
v -3.870941 -116.8638 15.45603
v 12.6553 -116.8638 1.099339
v 8.544647 -116.8638 11.3458
v -8.148956 -116.8638 -13.25748
v -8.148956 -116.8638 15.45603
v -3.870941 -116.8638 22.66088
v -8.148956 -116.8638 22.66088
v -8.148956 -116.8638 -22.66088
v -3.870941 -116.8638 -22.66088
v -3.870941 -125.1183 15.45603
v -3.870941 -125.1183 22.66088
v -3.870941 -116.8638 22.66088
v -3.870941 -116.8638 15.45603
v -3.870941 -116.8638 -13.25748
v -3.870941 -116.8638 -22.66088
v -3.870941 -125.1183 -22.66088
v -3.870941 -125.1183 -13.25748
v -3.870941 -125.1183 22.66088
v -8.148956 -125.1183 22.66088
v -8.148956 -116.8638 22.66088
v -3.870941 -116.8638 22.66088
v -3.870941 -116.8638 -22.66088
v -8.148956 -116.8638 -22.66088
v -8.148956 -125.1183 -22.66088
v -3.870941 -125.1183 -22.66088
v -3.870941 -195.1644 15.45603
v -3.870941 -186.9099 15.45603
v 8.544647 -186.9099 11.3458
v 8.544647 -195.1644 11.3458
v 12.6553 -186.9099 1.099339
v 12.6553 -195.1644 1.099339
v 8.544647 -186.9099 -9.14687
v 8.544647 -195.1644 -9.14687
v -3.870941 -186.9099 -13.25748
v -3.870941 -195.1644 -13.25748
v -3.870941 -186.9099 -13.25748
v 8.544647 -186.9099 -9.14687
v -3.870941 -186.9099 15.45603
v 12.6553 -186.9099 1.099339
v 8.544647 -186.9099 11.3458
v -8.148956 -186.9099 -13.25748
v -8.148956 -186.9099 15.45603
v -3.870941 -186.9099 22.66088
v -8.148956 -186.9099 22.66088
v -8.148956 -186.9099 -22.66088
v -3.870941 -186.9099 -22.66088
v -3.870941 -195.1644 15.45603
v -3.870941 -195.1644 22.66088
v -3.870941 -186.9099 22.66088
v -3.870941 -186.9099 15.45603
v -3.870941 -186.9099 -13.25748
v -3.870941 -186.9099 -22.66088
v -3.870941 -195.1644 -22.66088
v -3.870941 -195.1644 -13.25748
v -3.870941 -195.1644 22.66088
v -8.148956 -195.1644 22.66088
v -8.148956 -186.9099 22.66088
v -3.870941 -186.9099 22.66088
v -3.870941 -186.9099 -22.66088
v -8.148956 -186.9099 -22.66088
v -8.148956 -195.1644 -22.66088
v -3.870941 -195.1644 -22.66088
v -3.870941 -271.6683 15.45603
v -3.870941 -263.4139 15.45603
v 8.544647 -263.4139 11.3458
v 8.544647 -271.6683 11.3458
v 12.6553 -263.4139 1.099339
v 12.6553 -271.6683 1.099339
v 8.544647 -263.4139 -9.14687
v 8.544647 -271.6683 -9.14687
v -3.870941 -263.4139 -13.25748
v -3.870941 -271.6683 -13.25748
v -3.870941 -263.4139 -13.25748
v 8.544647 -263.4139 -9.14687
v -3.870941 -263.4139 15.45603
v 12.6553 -263.4139 1.099339
v 8.544647 -263.4139 11.3458
v -8.148956 -263.4139 -13.25748
v -8.148956 -263.4139 15.45603
v -3.870941 -263.4139 22.66088
v -8.148956 -263.4139 22.66088
v -8.148956 -263.4139 -22.66088
v -3.870941 -263.4139 -22.66088
v -3.870941 -271.6683 15.45603
v -3.870941 -271.6683 22.66088
v -3.870941 -263.4139 22.66088
v -3.870941 -263.4139 15.45603
v -3.870941 -263.4139 -13.25748
v -3.870941 -263.4139 -22.66088
v -3.870941 -271.6683 -22.66088
v -3.870941 -271.6683 -13.25748
v -3.870941 -271.6683 22.66088
v -8.148956 -271.6683 22.66088
v -8.148956 -263.4139 22.66088
v -3.870941 -263.4139 22.66088
v -3.870941 -263.4139 -22.66088
v -8.148956 -263.4139 -22.66088
v -8.148956 -271.6683 -22.66088
v -3.870941 -271.6683 -22.66088
v -9.574066 -279.8574 9.441807
v -9.574066 142.8171 9.441807
v -1.494476 142.8171 12.78798
v -1.494476 -279.8574 12.78798
v -1.494476 -279.8574 12.78798
v -1.494476 142.8171 12.78798
v 6.585114 142.8171 9.441807
v 6.585114 -279.8574 9.441807
v 9.931305 142.8171 1.100864
v 9.931305 -279.8574 1.100864
v 6.585114 142.8171 -7.240147
v 6.585114 -279.8574 -7.240147
v -1.494476 142.8171 -10.58627
v 6.585114 -279.8574 -7.240147
v -1.494476 -279.8574 -10.58627
v -9.574066 142.8171 -7.240147
v -9.574066 -279.8574 -7.240147
v -1.494476 -279.8574 -10.58627
v -1.494476 142.8171 -10.58627
vt 0.6083274 0.14553
vt 0.6083273 0.1510275
vt 0.6166644 0.1510274
vt 0.6166645 0.1455299
vt 0.6247766 0.1510275
vt 0.6247767 0.1455299
vt 0.632889 0.1510275
vt 0.632889 0.14553
vt 0.641226 0.1510275
vt 0.641226 0.1455301
vt 0.6495628 0.1510275
vt 0.6495628 0.14553
vt 0.6576753 0.1510275
vt 0.6576751 0.1455299
vt 0.6657876 0.1510275
vt 0.6657876 0.1455299
vt 0.6741244 0.1510275
vt 0.6741244 0.1455299
vt 0.6399833 0.1224103
vt 0.6483203 0.1224103
vt 0.6543458 0.1166484
vt 0.654436 0.1085366
vt 0.6487644 0.1027362
vt 0.6343122 0.1166099
vt 0.634402 0.108498
vt 0.6404275 0.1027361
vt 0.7569859 0.294342
vt 0.7569859 0.307977
vt 0.780223 0.307977
vt 0.7802229 0.2943419
vt 0.8009007 0.3079769
vt 0.8009008 0.294342
vt 0.821578 0.307977
vt 0.821578 0.294342
vt 0.8448151 0.3079769
vt 0.8448152 0.2943419
vt 0.8167173 0.3393564
vt 0.8103691 0.3201826
vt 0.7723745 0.3393563
vt 0.7945458 0.3138345
vt 0.7787219 0.3201826
vt 0.8167173 0.345963
vt 0.7723743 0.345963
vt 0.7612476 0.3393563
vt 0.7612476 0.3459629
vt 0.8312392 0.3459629
vt 0.8312392 0.3393564
vt 0.7569859 0.294342
vt 0.7419443 0.2943419
vt 0.7419443 0.3079769
vt 0.7569859 0.307977
vt 0.8448151 0.3079769
vt 0.8639747 0.3079769
vt 0.8639748 0.294342
vt 0.8448152 0.2943419
vt 0.7419443 0.2943419
vt 0.7339317 0.2943419
vt 0.7339317 0.3079769
vt 0.7419443 0.3079769
vt 0.8639747 0.3079769
vt 0.8719872 0.3079768
vt 0.8719872 0.2943419
vt 0.8639748 0.294342
vt 0.7569859 0.294342
vt 0.7569859 0.307977
vt 0.780223 0.307977
vt 0.7802229 0.2943419
vt 0.8009007 0.3079769
vt 0.8009008 0.294342
vt 0.821578 0.307977
vt 0.821578 0.294342
vt 0.8448151 0.3079769
vt 0.8448152 0.2943419
vt 0.8167173 0.3393564
vt 0.8103691 0.3201826
vt 0.7723745 0.3393563
vt 0.7945458 0.3138345
vt 0.7787219 0.3201826
vt 0.8167173 0.345963
vt 0.7723743 0.345963
vt 0.7612476 0.3393563
vt 0.7612476 0.3459629
vt 0.8312392 0.3459629
vt 0.8312392 0.3393564
vt 0.7569859 0.294342
vt 0.7419443 0.2943419
vt 0.7419443 0.3079769
vt 0.7569859 0.307977
vt 0.8448151 0.3079769
vt 0.8639747 0.3079769
vt 0.8639748 0.294342
vt 0.8448152 0.2943419
vt 0.7419443 0.2943419
vt 0.7339317 0.2943419
vt 0.7339317 0.3079769
vt 0.7419443 0.3079769
vt 0.8639747 0.3079769
vt 0.8719872 0.3079768
vt 0.8719872 0.2943419
vt 0.8639748 0.294342
vt 0.7569859 0.294342
vt 0.7569859 0.307977
vt 0.780223 0.307977
vt 0.7802229 0.2943419
vt 0.8009007 0.3079769
vt 0.8009008 0.294342
vt 0.821578 0.307977
vt 0.821578 0.294342
vt 0.8448151 0.3079769
vt 0.8448152 0.2943419
vt 0.8167173 0.3393564
vt 0.8103691 0.3201826
vt 0.7723745 0.3393563
vt 0.7945458 0.3138345
vt 0.7787219 0.3201826
vt 0.8167173 0.345963
vt 0.7723743 0.345963
vt 0.7612476 0.3393563
vt 0.7612476 0.3459629
vt 0.8312392 0.3459629
vt 0.8312392 0.3393564
vt 0.7569859 0.294342
vt 0.7419443 0.2943419
vt 0.7419443 0.3079769
vt 0.7569859 0.307977
vt 0.8448151 0.3079769
vt 0.8639747 0.3079769
vt 0.8639748 0.294342
vt 0.8448152 0.2943419
vt 0.7419443 0.2943419
vt 0.7339317 0.2943419
vt 0.7339317 0.3079769
vt 0.7419443 0.3079769
vt 0.8639747 0.3079769
vt 0.8719872 0.3079768
vt 0.8719872 0.2943419
vt 0.8639748 0.294342
vt 0.7569859 0.294342
vt 0.7569859 0.307977
vt 0.780223 0.307977
vt 0.7802229 0.2943419
vt 0.8009007 0.3079769
vt 0.8009008 0.294342
vt 0.821578 0.307977
vt 0.821578 0.294342
vt 0.8448151 0.3079769
vt 0.8448152 0.2943419
vt 0.8167173 0.3393564
vt 0.8103691 0.3201826
vt 0.7723745 0.3393563
vt 0.7945458 0.3138345
vt 0.7787219 0.3201826
vt 0.8167173 0.345963
vt 0.7723743 0.345963
vt 0.7612476 0.3393563
vt 0.7612476 0.3459629
vt 0.8312392 0.3459629
vt 0.8312392 0.3393564
vt 0.7569859 0.294342
vt 0.7419443 0.2943419
vt 0.7419443 0.3079769
vt 0.7569859 0.307977
vt 0.8448151 0.3079769
vt 0.8639747 0.3079769
vt 0.8639748 0.294342
vt 0.8448152 0.2943419
vt 0.7419443 0.2943419
vt 0.7339317 0.2943419
vt 0.7339317 0.3079769
vt 0.7419443 0.3079769
vt 0.8639747 0.3079769
vt 0.8719872 0.3079768
vt 0.8719872 0.2943419
vt 0.8639748 0.294342
vt 0.7569859 0.294342
vt 0.7569859 0.307977
vt 0.780223 0.307977
vt 0.7802229 0.2943419
vt 0.8009007 0.3079769
vt 0.8009008 0.294342
vt 0.821578 0.307977
vt 0.821578 0.294342
vt 0.8448151 0.3079769
vt 0.8448152 0.2943419
vt 0.8167173 0.3393564
vt 0.8103691 0.3201826
vt 0.7723745 0.3393563
vt 0.7945458 0.3138345
vt 0.7787219 0.3201826
vt 0.8167173 0.345963
vt 0.7723743 0.345963
vt 0.7612476 0.3393563
vt 0.7612476 0.3459629
vt 0.8312392 0.3459629
vt 0.8312392 0.3393564
vt 0.7569859 0.294342
vt 0.7419443 0.2943419
vt 0.7419443 0.3079769
vt 0.7569859 0.307977
vt 0.8448151 0.3079769
vt 0.8639747 0.3079769
vt 0.8639748 0.294342
vt 0.8448152 0.2943419
vt 0.7419443 0.2943419
vt 0.7339317 0.2943419
vt 0.7339317 0.3079769
vt 0.7419443 0.3079769
vt 0.8639747 0.3079769
vt 0.8719872 0.3079768
vt 0.8719872 0.2943419
vt 0.8639748 0.294342
vt 0.3671998 0.006900307
vt 0.5682448 0.006900304
vt 0.5682448 0.002740683
vt 0.3671998 0.002740681
vt 0.3671998 0.02068747
vt 0.5682448 0.02068746
vt 0.5682447 0.01652787
vt 0.3671998 0.01652787
vt 0.5682446 0.01225315
vt 0.3671998 0.01225315
vt 0.5682446 0.007978407
vt 0.3671998 0.007978407
vt 0.5682445 0.003818816
vt 0.3671998 0.007978407
vt 0.3671998 0.003818815
vt 0.5682448 0.01544979
vt 0.3671998 0.01544979
vt 0.3671998 0.01960941
vt 0.5682448 0.0196094
vn -1 0 0
vn -1 0 0
vn -0.7330486 0 0.6801764
vn -0.7330486 0 0.6801764
vn 0 0 1
vn 0 0 1
vn 0.7330485 0 0.6801764
vn 0.7330485 0 0.6801764
vn 1 0 0
vn 1 0 0
vn 0.733048 0 -0.680177
vn 0.733048 0 -0.680177
vn 0 0 -1
vn 0 0 -1
vn -0.733048 0 -0.680177
vn -0.733048 0 -0.680177
vn -1 0 0
vn -1 0 0
vn 0 1 0
vn 0 1 0
vn 0 1 0
vn 0 1 0
vn 0 1 0
vn 0 1 0
vn 0 1 0
vn 0 1 0
vn 0.3142794 0 0.9493305
vn 0.3142794 0 0.9493305
vn 0.6558158 0 0.7549209
vn 0.6558158 0 0.7549209
vn 1 0 0
vn 1 0 0
vn 0.6558192 0 -0.7549179
vn 0.6558192 0 -0.7549179
vn 0.3143059 0 -0.9493217
vn 0.3143059 0 -0.9493217
vn 0 1 0
vn 0 1 0
vn 0 1 0
vn 0 1 0
vn 0 1 0
vn 0 1 0
vn 0 1 0
vn 0 1 0
vn 0 1 0
vn 0 1 0
vn 0 1 0
vn 1 0 0
vn 1 0 0
vn 1 0 0
vn 1 0 0
vn 1 0 0
vn 1 0 0
vn 1 0 0
vn 1 0 0
vn 0 0 1
vn 0 0 1
vn 0 0 1
vn 0 0 1
vn 0 0 -1
vn 0 0 -1
vn 0 0 -1
vn 0 0 -1
vn 0.3142797 0 0.9493304
vn 0.3142797 0 0.9493304
vn 0.6558159 0 0.7549208
vn 0.6558159 0 0.7549208
vn 1 0 0
vn 1 0 0
vn 0.6558195 0 -0.7549177
vn 0.6558195 0 -0.7549177
vn 0.3143063 0 -0.9493217
vn 0.3143063 0 -0.9493217
vn 0 1 0
vn 0 1 0
vn 0 1 0
vn 0 1 0
vn 0 1 0
vn 0 1 0
vn 0 1 0
vn 0 1 0
vn 0 1 0
vn 0 1 0
vn 0 1 0
vn 1 0 0
vn 1 0 0
vn 1 0 0
vn 1 0 0
vn 1 0 0
vn 1 0 0
vn 1 0 0
vn 1 0 0
vn 0 0 1
vn 0 0 1
vn 0 0 1
vn 0 0 1
vn 0 0 -1
vn 0 0 -1
vn 0 0 -1
vn 0 0 -1
vn 0.3142794 0 0.9493305
vn 0.3142794 0 0.9493305
vn 0.6558157 0 0.7549211
vn 0.6558157 0 0.7549211
vn 1 0 0
vn 1 0 0
vn 0.6558191 0 -0.754918
vn 0.6558191 0 -0.754918
vn 0.3143059 0 -0.9493217
vn 0.3143059 0 -0.9493217
vn 0 1 0
vn 0 1 0
vn 0 1 0
vn 0 1 0
vn 0 1 0
vn 0 1 0
vn 0 1 0
vn 0 1 0
vn 0 1 0
vn 0 1 0
vn 0 1 0
vn 1 0 0
vn 1 0 0
vn 1 0 0
vn 1 0 0
vn 1 0 0
vn 1 0 0
vn 1 0 0
vn 1 0 0
vn 0 0 1
vn 0 0 1
vn 0 0 1
vn 0 0 1
vn 0 0 -1
vn 0 0 -1
vn 0 0 -1
vn 0 0 -1
vn 0.3142792 0 0.9493306
vn 0.3142792 0 0.9493306
vn 0.6558155 0 0.7549213
vn 0.6558155 0 0.7549213
vn 1 0 0
vn 1 0 0
vn 0.6558193 0 -0.7549179
vn 0.6558193 0 -0.7549179
vn 0.3143063 0 -0.9493217
vn 0.3143063 0 -0.9493217
vn 0 1 0
vn 0 1 0
vn 0 1 0
vn 0 1 0
vn 0 1 0
vn 0 1 0
vn 0 1 0
vn 0 1 0
vn 0 1 0
vn 0 1 0
vn 0 1 0
vn 1 0 0
vn 1 0 0
vn 1 0 0
vn 1 0 0
vn 1 0 0
vn 1 0 0
vn 1 0 0
vn 1 0 0
vn 0 0 1
vn 0 0 1
vn 0 0 1
vn 0 0 1
vn 0 0 -1
vn 0 0 -1
vn 0 0 -1
vn 0 0 -1
vn 0.3142794 0 0.9493305
vn 0.3142794 0 0.9493305
vn 0.6558155 0 0.7549212
vn 0.6558155 0 0.7549212
vn 1 0 0
vn 1 0 0
vn 0.6558189 0 -0.7549183
vn 0.6558189 0 -0.7549183
vn 0.3143054 0 -0.9493219
vn 0.3143054 0 -0.9493219
vn 0 1 0
vn 0 1 0
vn 0 1 0
vn 0 1 0
vn 0 1 0
vn 0 1 0
vn 0 1 0
vn 0 1 0
vn 0 1 0
vn 0 1 0
vn 0 1 0
vn 1 0 0
vn 1 0 0
vn 1 0 0
vn 1 0 0
vn 1 0 0
vn 1 0 0
vn 1 0 0
vn 1 0 0
vn 0 0 1
vn 0 0 1
vn 0 0 1
vn 0 0 1
vn 0 0 -1
vn 0 0 -1
vn 0 0 -1
vn 0 0 -1
vn -0.3826352 0 0.9238995
vn -0.3826352 0 0.9238995
vn 0 0 1
vn 0 0 1
vn 0 0 1
vn 0 0 1
vn 0.7150564 0 0.6990667
vn 0.7150564 0 0.6990667
vn 1 0 0
vn 1 0 0
vn 0.7150566 0 -0.6990665
vn 0.9281006 0 -0.3723294
vn 0 0 -1
vn 0.7150566 0 -0.6990665
vn 0 0 -1
vn -0.3826297 0 -0.9239018
vn -0.3826297 0 -0.9239018
vn 0 0 -1
vn 0 0 -1
g OP_139_0
f 3/3/3 2/2/2 1/1/1
f 4/4/4 3/3/3 1/1/1
f 5/5/5 3/3/3 4/4/4
f 6/6/6 5/5/5 4/4/4
f 7/7/7 5/5/5 6/6/6
f 8/8/8 7/7/7 6/6/6
f 9/9/9 7/7/7 8/8/8
f 10/10/10 9/9/9 8/8/8
f 9/9/9 10/10/10 11/11/11
f 10/10/10 12/12/12 11/11/11
f 11/11/11 12/12/12 13/13/13
f 12/12/12 14/14/14 13/13/13
f 13/13/13 14/14/14 15/15/15
f 14/14/14 16/16/16 15/15/15
f 15/15/15 16/16/16 17/17/17
f 16/16/16 18/18/18 17/17/17
f 21/21/21 20/20/20 19/19/19
f 22/22/22 21/21/21 19/19/19
f 22/22/22 19/19/19 23/23/23
f 19/19/19 24/24/24 23/23/23
f 24/24/24 25/25/25 23/23/23
f 25/25/25 26/26/26 23/23/23
f 29/29/29 28/28/28 27/27/27
f 30/30/30 29/29/29 27/27/27
f 31/31/31 29/29/29 30/30/30
f 32/32/32 31/31/31 30/30/30
f 31/31/31 32/32/32 33/33/33
f 32/32/32 34/34/34 33/33/33
f 33/33/33 34/34/34 35/35/35
f 34/34/34 36/36/36 35/35/35
f 39/39/39 38/38/38 37/37/37
f 39/39/39 40/40/40 38/38/38
f 41/41/41 40/40/40 39/39/39
f 37/37/37 42/42/42 39/39/39
f 42/42/42 43/43/43 39/39/39
f 39/39/39 43/43/43 44/44/44
f 43/43/43 45/45/45 44/44/44
f 46/46/46 42/42/42 37/37/37
f 47/47/47 46/46/46 37/37/37
f 50/50/50 49/49/49 48/48/48
f 51/51/51 50/50/50 48/48/48
f 54/54/54 53/53/53 52/52/52
f 55/55/55 54/54/54 52/52/52
f 58/58/58 57/57/57 56/56/56
f 59/59/59 58/58/58 56/56/56
f 62/62/62 61/61/61 60/60/60
f 63/63/63 62/62/62 60/60/60
f 66/66/66 65/65/65 64/64/64
f 67/67/67 66/66/66 64/64/64
f 68/68/68 66/66/66 67/67/67
f 69/69/69 68/68/68 67/67/67
f 68/68/68 69/69/69 70/70/70
f 69/69/69 71/71/71 70/70/70
f 70/70/70 71/71/71 72/72/72
f 71/71/71 73/73/73 72/72/72
f 76/76/76 75/75/75 74/74/74
f 76/76/76 77/77/77 75/75/75
f 78/78/78 77/77/77 76/76/76
f 74/74/74 79/79/79 76/76/76
f 79/79/79 80/80/80 76/76/76
f 76/76/76 80/80/80 81/81/81
f 80/80/80 82/82/82 81/81/81
f 83/83/83 79/79/79 74/74/74
f 84/84/84 83/83/83 74/74/74
f 87/87/87 86/86/86 85/85/85
f 88/88/88 87/87/87 85/85/85
f 91/91/91 90/90/90 89/89/89
f 92/92/92 91/91/91 89/89/89
f 95/95/95 94/94/94 93/93/93
f 96/96/96 95/95/95 93/93/93
f 99/99/99 98/98/98 97/97/97
f 100/100/100 99/99/99 97/97/97
f 103/103/103 102/102/102 101/101/101
f 104/104/104 103/103/103 101/101/101
f 105/105/105 103/103/103 104/104/104
f 106/106/106 105/105/105 104/104/104
f 105/105/105 106/106/106 107/107/107
f 106/106/106 108/108/108 107/107/107
f 107/107/107 108/108/108 109/109/109
f 108/108/108 110/110/110 109/109/109
f 113/113/113 112/112/112 111/111/111
f 113/113/113 114/114/114 112/112/112
f 115/115/115 114/114/114 113/113/113
f 111/111/111 116/116/116 113/113/113
f 116/116/116 117/117/117 113/113/113
f 113/113/113 117/117/117 118/118/118
f 117/117/117 119/119/119 118/118/118
f 120/120/120 116/116/116 111/111/111
f 121/121/121 120/120/120 111/111/111
f 124/124/124 123/123/123 122/122/122
f 125/125/125 124/124/124 122/122/122
f 128/128/128 127/127/127 126/126/126
f 129/129/129 128/128/128 126/126/126
f 132/132/132 131/131/131 130/130/130
f 133/133/133 132/132/132 130/130/130
f 136/136/136 135/135/135 134/134/134
f 137/137/137 136/136/136 134/134/134
f 140/140/140 139/139/139 138/138/138
f 141/141/141 140/140/140 138/138/138
f 142/142/142 140/140/140 141/141/141
f 143/143/143 142/142/142 141/141/141
f 142/142/142 143/143/143 144/144/144
f 143/143/143 145/145/145 144/144/144
f 144/144/144 145/145/145 146/146/146
f 145/145/145 147/147/147 146/146/146
f 150/150/150 149/149/149 148/148/148
f 150/150/150 151/151/151 149/149/149
f 152/152/152 151/151/151 150/150/150
f 148/148/148 153/153/153 150/150/150
f 153/153/153 154/154/154 150/150/150
f 150/150/150 154/154/154 155/155/155
f 154/154/154 156/156/156 155/155/155
f 157/157/157 153/153/153 148/148/148
f 158/158/158 157/157/157 148/148/148
f 161/161/161 160/160/160 159/159/159
f 162/162/162 161/161/161 159/159/159
f 165/165/165 164/164/164 163/163/163
f 166/166/166 165/165/165 163/163/163
f 169/169/169 168/168/168 167/167/167
f 170/170/170 169/169/169 167/167/167
f 173/173/173 172/172/172 171/171/171
f 174/174/174 173/173/173 171/171/171
f 177/177/177 176/176/176 175/175/175
f 178/178/178 177/177/177 175/175/175
f 179/179/179 177/177/177 178/178/178
f 180/180/180 179/179/179 178/178/178
f 179/179/179 180/180/180 181/181/181
f 180/180/180 182/182/182 181/181/181
f 181/181/181 182/182/182 183/183/183
f 182/182/182 184/184/184 183/183/183
f 187/187/187 186/186/186 185/185/185
f 187/187/187 188/188/188 186/186/186
f 189/189/189 188/188/188 187/187/187
f 185/185/185 190/190/190 187/187/187
f 190/190/190 191/191/191 187/187/187
f 187/187/187 191/191/191 192/192/192
f 191/191/191 193/193/193 192/192/192
f 194/194/194 190/190/190 185/185/185
f 195/195/195 194/194/194 185/185/185
f 198/198/198 197/197/197 196/196/196
f 199/199/199 198/198/198 196/196/196
f 202/202/202 201/201/201 200/200/200
f 203/203/203 202/202/202 200/200/200
f 206/206/206 205/205/205 204/204/204
f 207/207/207 206/206/206 204/204/204
f 210/210/210 209/209/209 208/208/208
f 211/211/211 210/210/210 208/208/208
f 214/214/214 213/213/213 212/212/212
f 215/215/215 214/214/214 212/212/212
f 218/218/218 217/217/217 216/216/216
f 219/219/219 218/218/218 216/216/216
f 220/220/220 218/218/218 219/219/219
f 221/221/221 220/220/220 219/219/219
f 220/220/220 221/221/221 222/222/222
f 221/221/221 223/223/223 222/222/222
f 222/222/222 225/225/225 224/224/224
f 225/225/225 226/226/226 224/224/224
f 229/229/229 228/228/228 227/227/227
f 230/230/230 229/229/229 227/227/227
