g S_Ground_tiles_Qcity_0310
v -43.73145 -0.1643982 49.2998
v -43.73145 -0.1643982 -49.28033
v 43.55701 -0.1643982 -49.28033
v 43.55701 -0.1643982 49.2998
v 43.55701 4.034235 -49.28033
v 44.14746 4.034235 -50
v 49.49402 4.034235 -50
v 50 4.034235 -49.31921
v 43.55701 4.034235 49.2998
v 50 4.034235 49.2998
v 49.49402 3.522121 50
v 44.14746 3.522121 50
v 44.10956 -0.6319389 50
v -44.28406 -0.6319466 50
v -43.73145 -0.1643982 49.2998
v 43.55701 -0.1643982 49.2998
v 43.55701 -0.1643982 -49.28033
v -43.73145 -0.1643982 -49.28033
v -44.20337 -0.6319466 -50
v 44.02893 -0.6319389 -50
v -44.28406 -0.6319466 50
v -44.3219 3.522114 50
v -43.73145 4.034229 49.2998
v -43.73145 -0.1643982 49.2998
v -43.73145 -0.1643982 49.2998
v -43.73145 4.034229 49.2998
v -43.73145 4.034229 -49.28033
v -43.73145 -0.1643982 -49.28033
v -43.73145 -0.1643982 -49.28033
v -43.73145 4.034229 -49.28033
v -44.3219 4.034229 -50
v -44.20337 -0.6319466 -50
v 44.14746 3.522121 50
v 44.10956 -0.6319389 50
v 43.55701 -0.1643982 49.2998
v 43.55701 4.034235 49.2998
v 43.55701 4.034235 -49.28033
v 43.55701 -0.1643982 -49.28033
v 44.02893 -0.6319389 -50
v 44.14746 4.034235 -50
v 43.55701 4.034235 49.2998
v 43.55701 -0.1643982 49.2998
v 43.55701 -0.1643982 -49.28033
v 43.55701 4.034235 -49.28033
v -50 4.034235 49.2998
v -43.73145 4.034229 49.2998
v -44.3219 3.522114 50
v -49.49402 3.522121 50
v -43.73145 4.034229 -49.28033
v -50 4.034235 -49.31921
v -44.3219 4.034229 -50
v -49.49402 4.034235 -50
v -50 -28.50553 49.2998
v -50 4.034235 49.2998
v -49.49402 3.522121 50
v -49.49402 -28.50553 50
v -50 4.034235 -49.31921
v -50 4.034235 49.2998
v -50 -28.50553 49.2998
v -50 -28.50553 -49.31921
v -49.49402 -28.50553 -50
v -49.49402 4.034235 -50
v -50 4.034235 -49.31921
v -50 -28.50553 -49.31921
v -44.20337 -0.6319466 -50
v -44.3219 4.034229 -50
v -49.49402 4.034235 -50
v -49.49402 -28.50553 -50
v 49.49402 -28.50553 -50
v 44.02893 -0.6319389 -50
v 44.14746 4.034235 -50
v 49.49402 4.034235 -50
v 50 -28.50553 -49.31921
v 50 4.034235 -49.31921
v 49.49402 4.034235 -50
v 49.49402 -28.50553 -50
v 50 4.034235 -49.31921
v 50 -28.50553 -49.31921
v 50 -28.50553 49.2998
v 50 4.034235 49.2998
v 49.49402 -28.50553 50
v 49.49402 3.522121 50
v 50 4.034235 49.2998
v 50 -28.50553 49.2998
v 44.10956 -0.6319389 50
v 44.14746 3.522121 50
v 49.49402 3.522121 50
v 49.49402 -28.50553 50
v -49.49402 -28.50553 50
v -44.28406 -0.6319466 50
v -44.3219 3.522114 50
v -49.49402 3.522121 50
vt 0.4004858 0.7995104
vt 0.4004858 0.8980003
vt 0.4942505 0.8980003
vt 0.4942505 0.7995104
vt 0.2803077 0.3575317
vt 0.2807696 0.3572269
vt 0.2807696 0.3544662
vt 0.2805083 0.354205
vt 0.2295983 0.3575317
vt 0.2293977 0.354205
vt 0.2291364 0.3544662
vt 0.2291364 0.3572269
vt 0.4948449 0.7986135
vt 0.3998915 0.7986135
vt 0.4004858 0.7995104
vt 0.4942505 0.7995104
vt 0.4942505 0.8980003
vt 0.4004858 0.8980003
vt 0.3999788 0.8988963
vt 0.4947575 0.8988963
vt 0.2299889 0.3513221
vt 0.230078 0.3532075
vt 0.2305496 0.3533299
vt 0.2305416 0.3512849
vt 0.2305416 0.3512849
vt 0.2305496 0.3533299
vt 0.2813275 0.3533301
vt 0.2813353 0.3512849
vt 0.2813353 0.3512849
vt 0.2813275 0.3533301
vt 0.2818005 0.3532066
vt 0.2818664 0.3513156
vt 0.2819107 0.3504198
vt 0.2820002 0.348528
vt 0.2814457 0.3484906
vt 0.2814332 0.3505291
vt 0.2304963 0.3505291
vt 0.2304842 0.348491
vt 0.2299514 0.3485219
vt 0.2300176 0.3504188
vt 0.2814332 0.3505291
vt 0.2814457 0.3484906
vt 0.2304842 0.348491
vt 0.2304963 0.3505291
vt 0.1783836 0.3533301
vt 0.1785842 0.3500935
vt 0.1781223 0.3503984
vt 0.1781223 0.3530689
vt 0.2292937 0.3500935
vt 0.2294942 0.3533301
vt 0.2297556 0.3503984
vt 0.2297556 0.3530689
vt 0.2296025 0.3842058
vt 0.2296025 0.3995477
vt 0.229972 0.3995477
vt 0.229972 0.3842058
vt 0.1784918 0.3995477
vt 0.2296025 0.3995477
vt 0.2296025 0.3842058
vt 0.1784918 0.3842058
vt 0.1781223 0.3842058
vt 0.1781223 0.3995477
vt 0.1784918 0.3995477
vt 0.1784918 0.3842058
vt 0.2329395 0.3884347
vt 0.2328783 0.3861625
vt 0.2302078 0.3861625
vt 0.2302078 0.4015044
vt 0.2813186 0.4015044
vt 0.2784968 0.3884347
vt 0.2785579 0.3861625
vt 0.2813186 0.3861625
vt 0.2296088 0.3771163
vt 0.2296079 0.392459
vt 0.2299743 0.3924015
vt 0.229972 0.3771767
vt 0.2296079 0.392459
vt 0.2296088 0.3771163
vt 0.1784888 0.3771163
vt 0.1784879 0.392459
vt 0.1781223 0.3771738
vt 0.1781247 0.3923985
vt 0.1784879 0.392459
vt 0.1784888 0.3771163
vt 0.1809025 0.3706053
vt 0.180883 0.3683331
vt 0.1781223 0.3683332
vt 0.1781223 0.383675
vt 0.2292331 0.383675
vt 0.2265431 0.3706053
vt 0.2265626 0.3683332
vt 0.2292331 0.3683332
vn 0 1 0
vn 0 1 0
vn 0 1 0
vn 0 1 0
vn 0 1 0
vn 0 1 0
vn 0 1 0
vn 0 1 0
vn 0 1 0
vn 0 1 0
vn 0 1 0
vn 0 1 0
vn -0.044553 0.8810239 0.470969
vn 0 0.8944204 0.4472272
vn 0 0.8944204 0.4472272
vn -0.03662 0.883588 0.466831
vn -0.03814299 0.8839147 -0.4660898
vn 0 0.8944221 -0.447224
vn 0 0.8944221 -0.447224
vn -0.04175099 0.8828318 -0.4678299
vn 0.8247412 0.004004002 0.5654961
vn 0.8247412 0.004004002 0.5654961
vn 0.8247412 0.004004002 0.5654961
vn 0.8247412 0.004004002 0.5654961
vn 1 0 0
vn 1 0 0
vn 1 0 0
vn 1 0 0
vn 0.8422231 0.012801 -0.5389771
vn 0.8422231 0.012801 -0.5389771
vn 0.8422231 0.012801 -0.5389771
vn 0.8422231 0.012801 -0.5389771
vn -0.8247408 0.004003999 0.5654968
vn -0.044553 0.8810239 0.470969
vn -0.03662 0.883588 0.466831
vn -0.8247408 0.004003999 0.5654968
vn -0.8422227 0.012801 -0.5389778
vn -0.03814299 0.8839147 -0.4660898
vn -0.04175099 0.8828318 -0.4678299
vn -0.8422227 0.012801 -0.5389778
vn -1 0 0
vn -1 0 0
vn -1 0 0
vn -1 0 0
vn 0 1 0
vn 0 1 0
vn 0 1 0
vn 0 1 0
vn 0 1 0
vn 0 1 0
vn 0 1 0
vn 0 1 0
vn -0.7071062 0 0.7071072
vn -0.7071062 0 0.7071072
vn -0.7071062 0 0.7071072
vn -0.7071062 0 0.7071072
vn -1 0 0
vn -1 0 0
vn -1 0 0
vn -1 0 0
vn -0.7071062 0 -0.7071072
vn -0.7071062 0 -0.7071072
vn -0.7071062 0 -0.7071072
vn -0.7071062 0 -0.7071072
vn 0 0 -1
vn 0 0 -1
vn 0 0 -1
vn 0 0 -1
vn 0 0 -1
vn 0 0 -1
vn 0 0 -1
vn 0 0 -1
vn 0.7071062 0 -0.7071072
vn 0.7071062 0 -0.7071072
vn 0.7071062 0 -0.7071072
vn 0.7071062 0 -0.7071072
vn 1 0 0
vn 1 0 0
vn 1 0 0
vn 1 0 0
vn 0.7071062 0 0.7071072
vn 0.7071062 0 0.7071072
vn 0.7071062 0 0.7071072
vn 0.7071062 0 0.7071072
vn 0 0 1
vn 0 0 1
vn 0 0 1
vn 0 0 1
vn 0 0 1
vn 0 0 1
vn 0 0 1
vn 0 0 1
g S_Ground_tiles_Qcity_0310_0
f 3/3/3 2/2/2 1/1/1
f 4/4/4 3/3/3 1/1/1
f 7/7/7 6/6/6 5/5/5
f 8/8/8 7/7/7 5/5/5
f 8/8/8 5/5/5 9/9/9
f 10/10/10 8/8/8 9/9/9
f 11/11/11 10/10/10 9/9/9
f 12/12/12 11/11/11 9/9/9
f 15/15/15 14/14/14 13/13/13
f 16/16/16 15/15/15 13/13/13
f 19/19/19 18/18/18 17/17/17
f 20/20/20 19/19/19 17/17/17
f 23/23/23 22/22/22 21/21/21
f 24/24/24 23/23/23 21/21/21
f 27/27/27 26/26/26 25/25/25
f 28/28/28 27/27/27 25/25/25
f 31/31/31 30/30/30 29/29/29
f 32/32/32 31/31/31 29/29/29
f 35/35/35 34/34/34 33/33/33
f 36/36/36 35/35/35 33/33/33
f 39/39/39 38/38/38 37/37/37
f 40/40/40 39/39/39 37/37/37
f 43/43/43 42/42/42 41/41/41
f 44/44/44 43/43/43 41/41/41
f 47/47/47 46/46/46 45/45/45
f 48/48/48 47/47/47 45/45/45
f 46/46/46 49/49/49 45/45/45
f 49/49/49 50/50/50 45/45/45
f 49/49/49 51/51/51 50/50/50
f 51/51/51 52/52/52 50/50/50
f 55/55/55 54/54/54 53/53/53
f 56/56/56 55/55/55 53/53/53
f 59/59/59 58/58/58 57/57/57
f 60/60/60 59/59/59 57/57/57
f 63/63/63 62/62/62 61/61/61
f 64/64/64 63/63/63 61/61/61
f 67/67/67 66/66/66 65/65/65
f 68/68/68 67/67/67 65/65/65
f 68/68/68 65/65/65 69/69/69
f 65/65/65 70/70/70 69/69/69
f 70/70/70 71/71/71 69/69/69
f 71/71/71 72/72/72 69/69/69
f 75/75/75 74/74/74 73/73/73
f 76/76/76 75/75/75 73/73/73
f 79/79/79 78/78/78 77/77/77
f 80/80/80 79/79/79 77/77/77
f 83/83/83 82/82/82 81/81/81
f 84/84/84 83/83/83 81/81/81
f 87/87/87 86/86/86 85/85/85
f 88/88/88 87/87/87 85/85/85
f 88/88/88 85/85/85 89/89/89
f 85/85/85 90/90/90 89/89/89
f 90/90/90 91/91/91 89/89/89
f 91/91/91 92/92/92 89/89/89
