g S_Ground_tiles_Qcity_0223
v 49.08197 0 49.08191
v 49.08191 0 -49.08197
v 50 -1.482027 -49.99994
v 49.99994 -1.482027 49.99994
v -49.08203 0 49.08203
v -50 -1.482027 50.00006
v -50 -1.482027 -50.00012
v -49.08203 0 -49.08203
v 49.99994 -44.99999 49.99994
v 49.99994 -1.482027 49.99994
v 50 -1.482027 -49.99994
v 50 -44.99999 -49.99994
v -50 -44.99999 -50.00012
v -50 -1.482027 -50.00012
v -50 -1.482027 50.00006
v -50 -44.99999 50.00006
v 50 -1.482027 -49.99994
v -50 -1.482027 -50.00012
v -50 -44.99999 -50.00012
v 50 -44.99999 -49.99994
v -50 -44.99999 50.00006
v -50 -1.482027 50.00006
v 49.99994 -1.482027 49.99994
v 49.99994 -44.99999 49.99994
vt 0.2964365 0.8967705
vt 0.2006145 0.8967942
vt 0.1991252 0.8982598
vt 0.2979021 0.8982607
vt 0.2964128 0.8009495
vt 0.2979021 0.7994829
vt 0.1991243 0.7994829
vt 0.2005899 0.8009722
vt 0.3162782 0.7332077
vt 0.3162782 0.7625362
vt 0.3847341 0.7625362
vt 0.3847341 0.7332077
vt 0.245682 0.6414629
vt 0.245682 0.6710981
vt 0.3149396 0.6710981
vt 0.3149396 0.6414629
vt 0.4564449 0.7921693
vt 0.5249711 0.7921693
vt 0.5249711 0.7628708
vt 0.4564449 0.7628708
vt 0.5929008 0.6705447
vt 0.5929008 0.7012863
vt 0.6647502 0.7012863
vt 0.6647502 0.6705447
vn 0.03141901 0.9990124 0.03141801
vn 0.03141901 0.9990124 -0.03141901
vn 0.4082518 0.8164946 -0.4082488
vn 0.408246 0.8164959 0.4082519
vn -0.03141901 0.9990124 0.03141901
vn -0.4082459 0.8164968 0.4082499
vn -0.4082492 0.8164953 -0.4082501
vn -0.03141901 0.9990124 -0.03141901
vn 1 0 0
vn 1 0 0
vn 1 0 0
vn 1 0 0
vn -1 0 0
vn -1 0 0
vn -1 0 0
vn -1 0 0
vn 0 0 -1
vn 0 0 -1
vn 0 0 -1
vn 0 0 -1
vn 0 0 1
vn 0 0 1
vn 0 0 1
vn 0 0 1
g S_Ground_tiles_Qcity_0223_0
f 3/3/3 2/2/2 1/1/1
f 4/4/4 3/3/3 1/1/1
f 1/1/1 5/5/5 4/4/4
f 5/5/5 6/6/6 4/4/4
f 3/3/3 7/7/7 2/2/2
f 7/7/7 8/8/8 2/2/2
f 8/8/8 7/7/7 6/6/6
f 5/5/5 8/8/8 6/6/6
f 8/8/8 5/5/5 1/1/1
f 2/2/2 8/8/8 1/1/1
f 11/11/11 10/10/10 9/9/9
f 12/12/12 11/11/11 9/9/9
f 15/15/15 14/14/14 13/13/13
f 16/16/16 15/15/15 13/13/13
f 19/19/19 18/18/18 17/17/17
f 20/20/20 19/19/19 17/17/17
f 23/23/23 22/22/22 21/21/21
f 24/24/24 23/23/23 21/21/21
