g S_Ground_tiles_Qcity_0182
v 49.08197 0 26.9782
v 49.08197 0 -49.08192
v 50 -1.482027 -49.99995
v 50 -1.482027 27.97081
v -50 -1.482027 -50.00008
v 50 -1.482027 -49.99995
v 49.08197 0 -49.08192
v -49.08203 0 -49.08205
v -50 -1.482027 50.00012
v -50 -1.482027 -50.00008
v -49.08203 0 -49.08205
v -49.08203 0 49.08206
v 49.99994 -44.99999 49.99988
v 50 -5.538212 49.99988
v 49.99994 -5.137037 41.22185
v 50 -1.482027 27.97081
v 50 -44.99999 -49.99995
v 50 -1.482027 -49.99995
v -49.08203 0 49.08206
v -49.08203 0 -49.08205
v -30.90735 0 -32.87001
v -30.90729 0 32.28941
v -25.6087 0 32.28941
v -25.6087 0 -32.86995
v -20.10565 0 32.28941
v -20.10565 0 -32.86995
v -15.4613 0 -32.86995
v 49.08197 0 -49.08192
v -9.656433 0 -32.86995
v -9.656433 0 32.28941
v -15.4613 0 32.28941
v -4.947937 0 -32.86995
v 0.4360352 0 -32.86995
v 0.4360352 0 32.28941
v -4.947937 0 32.28941
v 5.643982 0 -32.86995
v 5.643982 0 32.28941
v 49.08197 0 26.9782
v -4.794678 0 49.08206
v 35.41089 0 49.082
v 44.74994 0 42.00365
v 42.19507 0 42.77208
v 40.40466 -1.907349E-06 47.59351
v -50 -44.99999 -50.00008
v -50 -1.482027 -50.00008
v -50 -1.482027 50.00012
v -50 -44.99999 50.00012
v 50 -44.99999 -49.99995
v 50 -1.482027 -49.99995
v -50 -1.482027 -50.00008
v -50 -44.99999 -50.00008
v -26.60626 -8.268259 31.20341
v -29.90979 -8.268259 31.20341
v -29.90979 -8.268259 -31.78407
v -26.60626 -8.268259 -31.78401
v -16.33569 -8.268259 31.20341
v -19.23126 -8.268259 31.20341
v -19.23126 -8.268259 -31.78401
v -16.33569 -8.268259 -31.78401
v -50 -44.99999 50.00012
v -50 -1.482027 50.00012
v -4.794678 -1.482027 50
v -4.794678 -44.99999 50
v 49.99994 -44.99999 49.99988
v 35.02338 -1.482027 49.99991
v 50 -5.538212 49.99988
v -4.794678 -1.482027 50
v -50 -1.482027 50.00012
v -49.08203 0 49.08206
v -4.794678 0 49.08206
v 35.02338 -1.482027 49.99991
v 35.41089 0 49.082
v -5.834412 -8.268259 31.20341
v -8.769958 -8.268259 31.20341
v -8.769958 -8.268259 -31.78401
v -5.834412 -8.268259 -31.78401
v 4.663513 -8.268259 31.20341
v 1.416504 -8.268259 31.20341
v 1.416504 -8.268259 -31.78401
v 4.663513 -8.268259 -31.78401
v -25.6087 0 32.28941
v -26.60626 -8.268259 31.20341
v -26.60626 -8.268259 -31.78401
v -25.6087 0 -32.86995
v -25.6087 0 -32.86995
v -26.60626 -8.268259 -31.78401
v -29.90979 -8.268259 -31.78407
v -30.90735 0 -32.87001
v -30.90735 0 -32.87001
v -29.90979 -8.268259 -31.78407
v -29.90979 -8.268259 31.20341
v -30.90729 0 32.28941
v -30.90729 0 32.28941
v -29.90979 -8.268259 31.20341
v -26.60626 -8.268259 31.20341
v -25.6087 0 32.28941
v -15.4613 0 32.28941
v -16.33569 -8.268259 31.20341
v -16.33569 -8.268259 -31.78401
v -15.4613 0 -32.86995
v -15.4613 0 -32.86995
v -16.33569 -8.268259 -31.78401
v -19.23126 -8.268259 -31.78401
v -20.10565 0 -32.86995
v -20.10565 0 -32.86995
v -19.23126 -8.268259 -31.78401
v -19.23126 -8.268259 31.20341
v -20.10565 0 32.28941
v -20.10565 0 32.28941
v -19.23126 -8.268259 31.20341
v -16.33569 -8.268259 31.20341
v -15.4613 0 32.28941
v -4.947937 0 32.28941
v -5.834412 -8.268259 31.20341
v -5.834412 -8.268259 -31.78401
v -4.947937 0 -32.86995
v -4.947937 0 -32.86995
v -5.834412 -8.268259 -31.78401
v -8.769958 -8.268259 -31.78401
v -9.656433 0 -32.86995
v -9.656433 0 -32.86995
v -8.769958 -8.268259 -31.78401
v -8.769958 -8.268259 31.20341
v -9.656433 0 32.28941
v -9.656433 0 32.28941
v -8.769958 -8.268259 31.20341
v -5.834412 -8.268259 31.20341
v -4.947937 0 32.28941
v 5.643982 0 32.28941
v 4.663513 -8.268259 31.20341
v 4.663513 -8.268259 -31.78401
v 5.643982 0 -32.86995
v 5.643982 0 -32.86995
v 4.663513 -8.268259 -31.78401
v 1.416504 -8.268259 -31.78401
v 0.4360352 0 -32.86995
v 0.4360352 0 -32.86995
v 1.416504 -8.268259 -31.78401
v 1.416504 -8.268259 31.20341
v 0.4360352 0 32.28941
v 0.4360352 0 32.28941
v 1.416504 -8.268259 31.20341
v 4.663513 -8.268259 31.20341
v 5.643982 0 32.28941
v 40.40466 -1.907349E-06 47.59351
v 50 -5.538212 49.99988
v 35.02338 -1.482027 49.99991
v 35.41089 0 49.082
v 42.19507 0 42.77208
v 44.74994 0 42.00365
v 49.99994 -5.137037 41.22185
v 49.08197 0 26.9782
v 50 -1.482027 27.97081
vt 0.6203321 0.9014817
vt 0.6930583 0.9014817
vt 0.6948754 0.8997311
vt 0.6191993 0.8997335
vt 0.6948754 0.9973474
vt 0.6948754 0.8997311
vt 0.6930583 0.9014817
vt 0.6930583 0.9952257
vt 0.5973565 0.9973474
vt 0.6948754 0.9973474
vt 0.6930583 0.9952257
vt 0.5992557 0.9952258
vt 0.7370056 0.762386
vt 0.7370056 0.7889809
vt 0.7430147 0.7892512
vt 0.7520842 0.7917169
vt 0.8054615 0.762386
vt 0.8054615 0.7917145
vt 0.5992557 0.9952258
vt 0.6930583 0.9952257
vt 0.6775665 0.9778694
vt 0.6153021 0.9778695
vt 0.6153021 0.9728094
vt 0.6775665 0.9728093
vt 0.6153021 0.967554
vt 0.6775665 0.967554
vt 0.6775665 0.9631188
vt 0.6930583 0.9014817
vt 0.6775665 0.9575753
vt 0.6153021 0.9575753
vt 0.6153021 0.9631189
vt 0.6775665 0.9530788
vt 0.6775665 0.9479373
vt 0.6153021 0.9479374
vt 0.6153021 0.9530789
vt 0.6775665 0.9429639
vt 0.6153021 0.942964
vt 0.6203321 0.9014817
vt 0.5992557 0.9529468
vt 0.5992557 0.9145373
vt 0.6060196 0.9056187
vt 0.6052853 0.9080585
vt 0.600678 0.9097683
vt 0.728142 0.6441787
vt 0.728142 0.6699051
vt 0.7882645 0.6699051
vt 0.7882645 0.6441787
vt 0.4571477 0.6732609
vt 0.4571477 0.7016196
vt 0.5234758 0.7016196
vt 0.5234758 0.6732609
vt 0.769985 0.8338638
vt 0.7699848 0.8316581
vt 0.7279271 0.8316581
vt 0.7279272 0.8338639
vt 0.7699848 0.8350483
vt 0.7699848 0.8331149
vt 0.7279273 0.8331149
vt 0.7279273 0.8350483
vt 0.7370056 0.7325448
vt 0.7370056 0.7618535
vt 0.7679732 0.7618538
vt 0.7679732 0.7325451
vt 0.8055079 0.7325448
vt 0.7952486 0.7618535
vt 0.8055079 0.7591217
vt 0.5973567 0.9532094
vt 0.5973565 0.9973474
vt 0.5992557 0.9952258
vt 0.5992557 0.9529468
vt 0.5973566 0.9143507
vt 0.5992557 0.9145373
vt 0.7699848 0.8408983
vt 0.7699848 0.8389382
vt 0.7279272 0.8389383
vt 0.7279272 0.8408983
vt 0.7699848 0.8378493
vt 0.7699848 0.8356813
vt 0.7279272 0.8356813
vt 0.7279271 0.8378493
vt 0.77071 0.8394247
vt 0.769985 0.8338638
vt 0.7279272 0.8338639
vt 0.7272021 0.8394247
vt 0.7223591 0.8345301
vt 0.7279272 0.8338639
vt 0.7279271 0.8316581
vt 0.7223589 0.8309921
vt 0.7272021 0.8260971
vt 0.7279271 0.8316581
vt 0.7699848 0.8316581
vt 0.77071 0.8260971
vt 0.7755532 0.830992
vt 0.7699848 0.8316581
vt 0.769985 0.8338638
vt 0.7755532 0.8345299
vt 0.7707099 0.8406
vt 0.7699848 0.8350483
vt 0.7279273 0.8350483
vt 0.7272022 0.8406
vt 0.7223591 0.8356322
vt 0.7279273 0.8350483
vt 0.7279273 0.8331149
vt 0.7223591 0.8325311
vt 0.7272022 0.8275633
vt 0.7279273 0.8331149
vt 0.7699848 0.8331149
vt 0.7707099 0.8275633
vt 0.7755532 0.832531
vt 0.7699848 0.8331149
vt 0.7699848 0.8350483
vt 0.7755531 0.8356321
vt 0.77071 0.8464508
vt 0.7699848 0.8408983
vt 0.7279272 0.8408983
vt 0.7272021 0.8464508
vt 0.722359 0.8414903
vt 0.7279272 0.8408983
vt 0.7279272 0.8389383
vt 0.7223589 0.8383464
vt 0.7272021 0.8333858
vt 0.7279272 0.8389383
vt 0.7699848 0.8389382
vt 0.77071 0.8333858
vt 0.7755531 0.8383464
vt 0.7699848 0.8389382
vt 0.7699848 0.8408983
vt 0.7755531 0.8414903
vt 0.7707099 0.8434089
vt 0.7699848 0.8378493
vt 0.7279271 0.8378493
vt 0.7272021 0.8434089
vt 0.7223589 0.838504
vt 0.7279271 0.8378493
vt 0.7279272 0.8356813
vt 0.7223589 0.8350266
vt 0.7272022 0.8301218
vt 0.7279272 0.8356813
vt 0.7699848 0.8356813
vt 0.77071 0.8301218
vt 0.7755531 0.8350267
vt 0.7699848 0.8356813
vt 0.7699848 0.8378493
vt 0.7755532 0.838504
vt 0.6541919 0.1442118
vt 0.6500874 0.1326492
vt 0.650201 0.1494409
vt 0.6521336 0.1494621
vt 0.6592351 0.1418566
vt 0.6601497 0.1391179
vt 0.6594785 0.131152
vt 0.6758232 0.1327352
vt 0.6743548 0.1311361
vn 0.8501259 0.5265794 0
vn 0.850126 0.5265794 0
vn 0.8501259 0.5265795 0
vn 0.8501259 0.5265794 0
vn 0 0.5265971 -0.8501149
vn 0 0.526597 -0.8501149
vn 0 0.5265971 -0.8501149
vn 0 0.5265971 -0.8501149
vn -0.8501238 0.526583 0
vn -0.8501238 0.526583 0
vn -0.8501238 0.5265831 0
vn -0.8501238 0.5265831 0
vn 1 0 0
vn 1 0 0
vn 1 0 0
vn 1 0 0
vn 1 0 0
vn 1 0 0
vn 0 1 0
vn 0 1 0
vn 0 1 0
vn 0 1 0
vn 0 1 0
vn 0 1 0
vn 0 1 0
vn 0 1 0
vn 0 1 0
vn 0 1 0
vn 0 1 0
vn 0 1 0
vn 0 1 0
vn 0 1 0
vn 0 1 0
vn 0 1 0
vn 0 1 0
vn 0 1 0
vn 0 1 0
vn 0 1 0
vn 0 1 0
vn 0 1 0
vn 0 1 0
vn 0 1 0
vn 0 1 0
vn -1 0 0
vn -1 0 0
vn -1 0 0
vn -1 0 0
vn 0 0 -1
vn 0 0 -1
vn 0 0 -1
vn 0 0 -1
vn 0 1 0
vn 0 1 0
vn 0 1 0
vn 0 1 0
vn 0 1 0
vn 0 1 0
vn 0 1 0
vn 0 1 0
vn 0 0 1
vn 0 0 1
vn 0 0 1
vn 0 0 1
vn 0 0 1
vn 0 0 1
vn 0 0 1
vn 0 0.5265836 0.8501234
vn 0 0.5265836 0.8501234
vn 0 0.5265835 0.8501234
vn 0 0.5265835 0.8501234
vn 0.05356601 0.5520555 0.832085
vn 0.07344083 0.5610014 0.8245507
vn 0 1 0
vn 0 1 0
vn 0 1 0
vn 0 1 0
vn 0 1 0
vn 0 1 0
vn 0 1 0
vn 0 1 0
vn -0.9928005 0.1197799 0
vn -0.9928005 0.1197799 0
vn -0.9928005 0.1197799 0
vn -0.9928005 0.1197799 0
vn -1.361332E-05 0.1302199 0.9914852
vn -1.361332E-05 0.1302199 0.9914852
vn -1.361332E-05 0.1302199 0.9914852
vn -1.361332E-05 0.1302199 0.9914852
vn 0.9927999 0.1197854 0
vn 0.9927999 0.1197854 0
vn 0.9927999 0.1197853 0
vn 0.9927999 0.1197854 0
vn 0 0.1302292 -0.9914839
vn 0 0.1302292 -0.9914839
vn 0 0.1302292 -0.9914839
vn 0 0.1302292 -0.9914839
vn -0.9944547 0.105166 0
vn -0.9944547 0.105166 0
vn -0.9944547 0.105166 0
vn -0.9944547 0.105166 0
vn 0 0.1302196 0.9914852
vn 0 0.1302196 0.9914852
vn 0 0.1302196 0.9914852
vn 0 0.1302196 0.9914852
vn 0.9944556 0.105157 0
vn 0.9944556 0.105157 0
vn 0.9944556 0.105157 0
vn 0.9944556 0.105157 0
vn 0 0.1302272 -0.9914841
vn 0 0.1302272 -0.9914841
vn 0 0.1302272 -0.9914841
vn 0 0.1302272 -0.9914841
vn -0.994302 0.1066 0
vn -0.994302 0.1066 0
vn -0.994302 0.1066 0
vn -0.994302 0.1066 0
vn 0 0.130219 0.9914853
vn 0 0.130219 0.9914853
vn 0 0.130219 0.9914853
vn 0 0.130219 0.9914853
vn 0.9943016 0.1066038 0
vn 0.9943016 0.1066038 0
vn 0.9943016 0.1066038 0
vn 0.9943016 0.1066038 0
vn 0 0.1302265 -0.9914842
vn 0 0.1302265 -0.9914842
vn 0 0.1302265 -0.9914842
vn 0 0.1302265 -0.9914842
vn -0.9930423 0.1177581 0
vn -0.9930423 0.1177581 0
vn -0.9930423 0.1177581 0
vn -0.9930423 0.1177581 0
vn 0 0.1302193 0.9914852
vn 0 0.1302193 0.9914852
vn 0 0.1302193 0.9914852
vn 0 0.1302193 0.9914852
vn 0.9930423 0.1177578 0
vn 0.9930423 0.1177578 0
vn 0.9930423 0.1177578 0
vn 0.9930423 0.1177578 0
vn 0 0.1302278 -0.9914841
vn 0 0.1302278 -0.9914841
vn 0 0.1302278 -0.9914841
vn 0 0.1302278 -0.9914841
vn 0.2956991 0.7420102 0.6016502
vn 0.5330449 0.7983915 0.280061
vn 0.05356601 0.5520555 0.832085
vn 0.07344083 0.5610014 0.8245507
vn 0.3725241 0.8858715 0.2765093
vn 0.6293393 0.7435332 0.2260318
vn 0.7122509 0.6873688 0.1422069
vn 0.7142354 0.6718249 0.196263
vn 0.7142354 0.6718249 0.196263
g S_Ground_tiles_Qcity_0182_0
f 3/3/3 2/2/2 1/1/1
f 4/4/4 3/3/3 1/1/1
f 7/7/7 6/6/6 5/5/5
f 8/8/8 7/7/7 5/5/5
f 11/11/11 10/10/10 9/9/9
f 12/12/12 11/11/11 9/9/9
f 15/15/15 14/14/14 13/13/13
f 15/15/15 13/13/13 16/16/16
f 13/13/13 17/17/17 16/16/16
f 17/17/17 18/18/18 16/16/16
f 21/21/21 20/20/20 19/19/19
f 22/22/22 21/21/21 19/19/19
f 23/23/23 22/22/22 19/19/19
f 20/20/20 21/21/21 24/24/24
f 24/24/24 23/23/23 25/25/25
f 25/25/25 23/23/23 19/19/19
f 26/26/26 24/24/24 25/25/25
f 20/20/20 24/24/24 26/26/26
f 20/20/20 26/26/26 27/27/27
f 20/20/20 27/27/27 28/28/28
f 27/27/27 29/29/29 28/28/28
f 29/29/29 27/27/27 30/30/30
f 27/27/27 31/31/31 30/30/30
f 31/31/31 25/25/25 19/19/19
f 29/29/29 32/32/32 28/28/28
f 32/32/32 33/33/33 28/28/28
f 33/33/33 32/32/32 34/34/34
f 32/32/32 35/35/35 34/34/34
f 33/33/33 36/36/36 28/28/28
f 28/28/28 36/36/36 37/37/37
f 38/38/38 28/28/28 37/37/37
f 35/35/35 39/39/39 34/34/34
f 37/37/37 34/34/34 39/39/39
f 35/35/35 30/30/30 39/39/39
f 30/30/30 31/31/31 39/39/39
f 40/40/40 37/37/37 39/39/39
f 41/41/41 38/38/38 37/37/37
f 42/42/42 41/41/41 37/37/37
f 43/43/43 42/42/42 37/37/37
f 40/40/40 43/43/43 37/37/37
f 31/31/31 19/19/19 39/39/39
f 46/46/46 45/45/45 44/44/44
f 47/47/47 46/46/46 44/44/44
f 50/50/50 49/49/49 48/48/48
f 51/51/51 50/50/50 48/48/48
f 54/54/54 53/53/53 52/52/52
f 55/55/55 54/54/54 52/52/52
f 58/58/58 57/57/57 56/56/56
f 59/59/59 58/58/58 56/56/56
f 62/62/62 61/61/61 60/60/60
f 63/63/63 62/62/62 60/60/60
f 63/63/63 64/64/64 62/62/62
f 64/64/64 65/65/65 62/62/62
f 64/64/64 66/66/66 65/65/65
f 69/69/69 68/68/68 67/67/67
f 70/70/70 69/69/69 67/67/67
f 70/70/70 67/67/67 71/71/71
f 72/72/72 70/70/70 71/71/71
f 75/75/75 74/74/74 73/73/73
f 76/76/76 75/75/75 73/73/73
f 79/79/79 78/78/78 77/77/77
f 80/80/80 79/79/79 77/77/77
f 83/83/83 82/82/82 81/81/81
f 84/84/84 83/83/83 81/81/81
f 87/87/87 86/86/86 85/85/85
f 88/88/88 87/87/87 85/85/85
f 91/91/91 90/90/90 89/89/89
f 92/92/92 91/91/91 89/89/89
f 95/95/95 94/94/94 93/93/93
f 96/96/96 95/95/95 93/93/93
f 99/99/99 98/98/98 97/97/97
f 100/100/100 99/99/99 97/97/97
f 103/103/103 102/102/102 101/101/101
f 104/104/104 103/103/103 101/101/101
f 107/107/107 106/106/106 105/105/105
f 108/108/108 107/107/107 105/105/105
f 111/111/111 110/110/110 109/109/109
f 112/112/112 111/111/111 109/109/109
f 115/115/115 114/114/114 113/113/113
f 116/116/116 115/115/115 113/113/113
f 119/119/119 118/118/118 117/117/117
f 120/120/120 119/119/119 117/117/117
f 123/123/123 122/122/122 121/121/121
f 124/124/124 123/123/123 121/121/121
f 127/127/127 126/126/126 125/125/125
f 128/128/128 127/127/127 125/125/125
f 131/131/131 130/130/130 129/129/129
f 132/132/132 131/131/131 129/129/129
f 135/135/135 134/134/134 133/133/133
f 136/136/136 135/135/135 133/133/133
f 139/139/139 138/138/138 137/137/137
f 140/140/140 139/139/139 137/137/137
f 143/143/143 142/142/142 141/141/141
f 144/144/144 143/143/143 141/141/141
f 147/147/147 146/146/146 145/145/145
f 148/148/148 147/147/147 145/145/145
f 145/145/145 146/146/146 149/149/149
f 149/149/149 146/146/146 150/150/150
f 146/146/146 151/151/151 150/150/150
f 150/150/150 151/151/151 152/152/152
f 151/151/151 153/153/153 152/152/152
