g S_Ground_tiles_Qcity_070
v -49.25006 0 -49.25
v -50 -0.447882 -50
v 50 -0.447882 -50
v 49.25012 0 -49.25
v -49.25006 0 49.25
v -50 -0.447882 50
v 50 -0.447882 50
v 49.25012 0 49.25
v -50 -14.1704 -50
v 50 -14.1704 -50
v 50 -0.447882 -50
v -50 -0.447882 -50
v 50 -15 50
v -50 -15 50
v -50 -0.447882 50
v 50 -0.447882 50
v 50 -0.447882 -50
v 50 -14.1704 -50
v 50 -15 50
v 50 -0.447882 50
v -50 -15 50
v -50 -14.1704 -50
v -50 -0.447882 -50
v -50 -0.447882 50
vt 0.1014225 0.9009054
vt 0.1002553 0.8997383
vt 0.1002553 0.9981434
vt 0.1014225 0.9969962
vt 0.1975159 0.9009054
vt 0.1986839 0.8997383
vt 0.1986839 0.9981434
vt 0.1975159 0.9969962
vt 0.894653 0.6250549
vt 0.844253 0.6250549
vt 0.844253 0.6323678
vt 0.894654 0.6323678
vt 0.8432114 0.6331714
vt 0.7927684 0.6331714
vt 0.7927684 0.6409194
vt 0.8432114 0.6409194
vt 0.9973958 0.632345
vt 0.9973949 0.624917
vt 0.9462809 0.624917
vt 0.9462638 0.632345
vt 0.9451143 0.616873
vt 0.8953844 0.616873
vt 0.8953994 0.624509
vt 0.9451223 0.624509
vn -0.010453 0.9998907 -0.010453
vn -0.706438 0.043499 -0.706437
vn 0.706438 0.043498 -0.706437
vn 0.010453 0.9998907 -0.010453
vn -0.010453 0.9998907 0.010453
vn -0.7064369 0.04350199 0.7064379
vn 0.7064359 0.043501 0.706439
vn 0.010453 0.9998907 0.010453
vn -0.7071068 0 -0.7071068
vn 0.7071068 0 -0.7071068
vn 0.706438 0.043498 -0.706437
vn -0.706438 0.043499 -0.706437
vn 0.7071068 0 0.7071068
vn -0.7071068 0 0.7071068
vn -0.7064369 0.04350199 0.7064379
vn 0.7064359 0.043501 0.706439
vn 0.706438 0.043498 -0.706437
vn 0.7071068 0 -0.7071068
vn 0.7071068 0 0.7071068
vn 0.7064359 0.043501 0.706439
vn -0.7071068 0 0.7071068
vn -0.7071068 0 -0.7071068
vn -0.706438 0.043499 -0.706437
vn -0.7064369 0.04350199 0.7064379
g S_Ground_tiles_Qcity_070_0
f 3/3/3 2/2/2 1/1/1
f 4/4/4 3/3/3 1/1/1
f 5/5/5 1/1/1 2/2/2
f 6/6/6 5/5/5 2/2/2
f 7/7/7 3/3/3 4/4/4
f 8/8/8 7/7/7 4/4/4
f 8/8/8 5/5/5 6/6/6
f 7/7/7 8/8/8 6/6/6
f 8/8/8 4/4/4 1/1/1
f 5/5/5 8/8/8 1/1/1
f 11/11/11 10/10/10 9/9/9
f 12/12/12 11/11/11 9/9/9
f 15/15/15 14/14/14 13/13/13
f 16/16/16 15/15/15 13/13/13
f 19/19/19 18/18/18 17/17/17
f 20/20/20 19/19/19 17/17/17
f 23/23/23 22/22/22 21/21/21
f 24/24/24 23/23/23 21/21/21
