g S_Ground_tiles_Qcity_0260
v 49.08191 0 -49.08194
v -49.08191 0 -49.08197
v -49.99988 -1.482027 -50
v 49.99988 -1.482027 -49.99994
v 49.08203 0 49.08197
v 50.00006 -1.482027 50
v -50.00006 -1.482027 50
v -49.08203 0 49.08197
v 49.99988 -44.99999 -49.99994
v 49.99988 -1.482027 -49.99994
v -49.99988 -1.482027 -50
v -49.99988 -44.99999 -50
v -50.00006 -44.99999 50
v -50.00006 -1.482027 50
v 50.00006 -1.482027 50
v 50.00006 -44.99999 50
v -49.99988 -1.482027 -50
v -50.00006 -1.482027 50
v -50.00006 -44.99999 50
v -49.99988 -44.99999 -50
v 50.00006 -44.99999 50
v 50.00006 -1.482027 50
v 49.99988 -1.482027 -49.99994
v 49.99988 -44.99999 -49.99994
vt 0.4993145 0.9012933
vt 0.5941166 0.9012709
vt 0.5955899 0.8998201
vt 0.4978638 0.8998201
vt 0.4993379 0.9960963
vt 0.4978637 0.9975471
vt 0.5955908 0.9975471
vt 0.5941401 0.9960729
vt 0.3171572 0.6092727
vt 0.3171572 0.6386012
vt 0.3856133 0.6386012
vt 0.3856133 0.6092727
vt 0.4564449 0.703197
vt 0.4564449 0.7325073
vt 0.5249435 0.7325073
vt 0.5249435 0.703197
vt 0.6662557 0.7012883
vt 0.7359118 0.7012883
vt 0.7359118 0.6715074
vt 0.6662557 0.6715074
vt 0.4574551 0.6436273
vt 0.4574551 0.6719965
vt 0.52376 0.6719965
vt 0.52376 0.6436273
vn 0.03141801 0.9990124 -0.03141901
vn -0.03141901 0.9990124 -0.03141901
vn -0.4082488 0.8164946 -0.4082518
vn 0.4082519 0.8164959 -0.408246
vn 0.03141901 0.9990124 0.03141901
vn 0.4082499 0.8164968 0.4082459
vn -0.4082501 0.8164953 0.4082492
vn -0.03141901 0.9990124 0.03141901
vn 0 0 -1
vn 0 0 -1
vn 0 0 -1
vn 0 0 -1
vn 0 0 1
vn 0 0 1
vn 0 0 1
vn 0 0 1
vn -1 0 0
vn -1 0 0
vn -1 0 0
vn -1 0 0
vn 1 0 0
vn 1 0 0
vn 1 0 0
vn 1 0 0
g S_Ground_tiles_Qcity_0260_0
f 3/3/3 2/2/2 1/1/1
f 4/4/4 3/3/3 1/1/1
f 1/1/1 5/5/5 4/4/4
f 5/5/5 6/6/6 4/4/4
f 3/3/3 7/7/7 2/2/2
f 7/7/7 8/8/8 2/2/2
f 8/8/8 7/7/7 6/6/6
f 5/5/5 8/8/8 6/6/6
f 8/8/8 5/5/5 1/1/1
f 2/2/2 8/8/8 1/1/1
f 11/11/11 10/10/10 9/9/9
f 12/12/12 11/11/11 9/9/9
f 15/15/15 14/14/14 13/13/13
f 16/16/16 15/15/15 13/13/13
f 19/19/19 18/18/18 17/17/17
f 20/20/20 19/19/19 17/17/17
f 23/23/23 22/22/22 21/21/21
f 24/24/24 23/23/23 21/21/21
