g S_Ground_tiles_Qcity_0304
v 50 4.165993 49.41821
v 49.52652 3.69252 49.89166
v 43.95413 3.69252 49.89166
v 43.29561 4.165993 49.41821
v 43.29561 4.165993 49.41821
v 43.95413 3.69252 49.89166
v 43.95413 -0.4676208 49.89166
v 43.29561 3.814697E-06 49.41821
v -49.52652 3.69252 49.89166
v -50 4.165993 49.41821
v -43.39641 4.165993 49.41821
v -44.05498 3.69252 49.89166
v -44.05498 3.69252 49.89166
v -43.39641 4.165993 49.41821
v -43.39641 3.814697E-06 49.41821
v -44.05498 -0.4676208 49.89166
v 43.29561 3.814697E-06 49.41821
v 43.95413 -0.4676208 49.89166
v -44.05498 -0.4676208 49.89166
v -43.39641 3.814697E-06 49.41821
v -49.52652 -28.31389 49.89166
v -50 -28.31389 49.41821
v -50 4.165993 49.41821
v -49.52652 3.69252 49.89166
v 43.95413 -0.4676208 49.89166
v 43.95413 3.69252 49.89166
v 49.52652 3.69252 49.89166
v 49.52652 -28.31389 49.89166
v -49.52652 -28.31389 49.89166
v -44.05498 -0.4676208 49.89166
v -44.05498 3.69252 49.89166
v -49.52652 3.69252 49.89166
v 50 -28.31389 49.41821
v 49.52652 -28.31389 49.89166
v 49.52652 3.69252 49.89166
v 50 4.165993 49.41821
v -43.39638 3.552714E-15 -42.5885
v 43.29561 3.552714E-15 -42.5885
v 43.29561 3.814697E-06 49.41821
v -43.39641 3.814697E-06 49.41821
v 43.29561 4.165993 -42.5885
v 49.06459 4.165993 -49.89166
v 50 4.165993 -48.95624
v 43.29561 4.165993 49.41821
v 50 4.165993 49.41821
v 50 4.165993 -48.95624
v 49.06459 4.165993 -49.89166
v 49.06459 -28.31389 -49.89166
v 50 -28.31389 -48.95624
v -43.39641 4.165993 -42.58844
v -50 4.165993 -48.95624
v -49.06459 4.165993 -49.89166
v -50 4.165993 49.41821
v -43.39641 4.165993 49.41821
v -49.06459 4.165993 -49.89166
v -50 4.165993 -48.95624
v -50 -28.31389 -48.95624
v -49.06459 -28.31389 -49.89166
v -49.06459 4.165993 -49.89166
v 49.06459 4.165993 -49.89166
v 43.29561 4.165993 -42.5885
v -43.39641 4.165993 -42.58844
v 43.29561 4.165993 -42.5885
v 43.29561 3.552714E-15 -42.5885
v -43.39638 3.552714E-15 -42.5885
v -43.39641 4.165993 -42.58844
v -43.39641 3.814697E-06 49.41821
v -43.39641 4.165993 49.41821
v -43.39641 4.165993 -42.58844
v -43.39638 3.552714E-15 -42.5885
v 43.29561 3.814697E-06 49.41821
v 43.29561 3.552714E-15 -42.5885
v 43.29561 4.165993 -42.5885
v 43.29561 4.165993 49.41821
v 49.06459 -28.31389 -49.89166
v 49.06459 4.165993 -49.89166
v -49.06459 4.165993 -49.89166
v -49.06459 -28.31389 -49.89166
v -50 4.165993 49.41821
v -50 -28.31389 49.41821
v -50 -28.31389 -48.95624
v -50 4.165993 -48.95624
v 50 4.165993 49.41821
v 50 4.165993 -48.95624
v 50 -28.31389 -48.95624
v 50 -28.31389 49.41821
vt 0.1781223 0.40734
vt 0.1783317 0.4076361
vt 0.1807957 0.4076361
vt 0.1810869 0.40734
vt 0.2193179 0.3615613
vt 0.2195463 0.3617125
vt 0.2195338 0.3598129
vt 0.2193228 0.3596916
vt 0.2221314 0.4076361
vt 0.2223407 0.40734
vt 0.2194208 0.40734
vt 0.219712 0.4076361
vt 0.1787719 0.3590165
vt 0.1790418 0.359206
vt 0.1790399 0.3574273
vt 0.1787753 0.3574342
vt 0.4981286 0.8984316
vt 0.4974159 0.8989233
vt 0.5955914 0.8989233
vt 0.5949763 0.8984316
vt 0.2669249 0.3960772
vt 0.2666288 0.3960714
vt 0.2666317 0.4091827
vt 0.2669276 0.4089696
vt 0.225008 0.3704861
vt 0.225008 0.3686465
vt 0.222544 0.3686465
vt 0.222544 0.3815493
vt 0.2663437 0.3815494
vt 0.2639242 0.3704861
vt 0.2639242 0.3686465
vt 0.2663437 0.3686465
vt 0.266627 0.3629279
vt 0.2669231 0.3629259
vt 0.2669293 0.3500311
vt 0.2666335 0.3498175
vt 0.5949455 0.7992422
vt 0.4978929 0.7992422
vt 0.4981286 0.8984316
vt 0.5949763 0.8984316
vt 0.1810869 0.3666562
vt 0.178536 0.3634268
vt 0.1781223 0.3638405
vt 0.1810869 0.40734
vt 0.1781223 0.40734
vt 0.2231283 0.3498175
vt 0.222544 0.3498229
vt 0.2225473 0.362918
vt 0.2231327 0.3629317
vt 0.2194207 0.3666562
vt 0.2223407 0.3638405
vt 0.2219271 0.3634268
vt 0.2223407 0.40734
vt 0.2194208 0.40734
vt 0.222544 0.409173
vt 0.2231294 0.4091848
vt 0.2231316 0.3960714
vt 0.2225473 0.3960854
vt 0.2219271 0.3634268
vt 0.178536 0.3634268
vt 0.1810869 0.3666562
vt 0.2194207 0.3666562
vt 0.1786681 0.3549953
vt 0.1786681 0.3568348
vt 0.2170023 0.3568355
vt 0.2170023 0.3549959
vt 0.1790399 0.3574273
vt 0.1790418 0.359206
vt 0.2196691 0.3592569
vt 0.2196663 0.3574457
vt 0.2193228 0.3596916
vt 0.1787821 0.3598675
vt 0.1787731 0.3617239
vt 0.2193179 0.3615613
vt 0.222544 0.3822549
vt 0.222544 0.3953671
vt 0.2659352 0.3953671
vt 0.2659352 0.3822549
vt 0.2666317 0.4091827
vt 0.2666288 0.3960714
vt 0.2231316 0.3960714
vt 0.2231294 0.4091848
vt 0.2666335 0.3498175
vt 0.2231283 0.3498175
vt 0.2231327 0.3629317
vt 0.266627 0.3629279
vn 0 0.7070922 0.7071213
vn 0 0.7070922 0.7071213
vn 0 0.7070922 0.7071213
vn 0 0.7070922 0.7071213
vn -0.7071252 0 0.7070882
vn -0.7071252 0 0.7070882
vn -0.7071252 0 0.7070882
vn -0.7071252 0 0.7070882
vn 0 0.7070898 0.7071238
vn 0 0.7070898 0.7071238
vn 0 0.7070898 0.7071238
vn 0 0.7070898 0.7071238
vn 0.7071252 0 0.7070882
vn 0.7071252 0 0.7070882
vn 0.7071252 0 0.7070882
vn 0.7071252 0 0.7070882
vn 0 0.7070888 0.7071248
vn 0 0.7070888 0.7071248
vn 0 0.7070888 0.7071248
vn 0 0.7070888 0.7071248
vn -0.7071097 0 0.7071038
vn -0.7071097 0 0.7071038
vn -0.7071097 0 0.7071038
vn -0.7071097 0 0.7071038
vn 0 0 1
vn 0 0 1
vn 0 0 1
vn 0 0 1
vn 0 0 1
vn 0 0 1
vn 0 0 1
vn 0 0 1
vn 0.7070968 0 0.7071168
vn 0.7070968 0 0.7071168
vn 0.7070968 0 0.7071168
vn 0.7070968 0 0.7071168
vn 0 1 0
vn 0 1 0
vn 0 1 0
vn 0 1 0
vn 0 1 0
vn 0 1 0
vn 0 1 0
vn 0 1 0
vn 0 1 0
vn 0.7071112 0 -0.7071022
vn 0.7071112 0 -0.7071022
vn 0.7071112 0 -0.7071022
vn 0.7071112 0 -0.7071022
vn 0 1 0
vn 0 1 0
vn 0 1 0
vn 0 1 0
vn 0 1 0
vn -0.7071112 0 -0.7071022
vn -0.7071112 0 -0.7071022
vn -0.7071112 0 -0.7071022
vn -0.7071112 0 -0.7071022
vn 0 1 0
vn 0 1 0
vn 0 1 0
vn 0 1 0
vn 0 -2.2E-05 1
vn 0 -2.2E-05 1
vn 0 -2.2E-05 1
vn 0 -2.2E-05 1
vn 0.9999881 -2.5E-05 0.004898001
vn 0.9999881 -2.5E-05 0.004898001
vn 0.9999881 -2.5E-05 0.004898001
vn 0.9999881 -2.5E-05 0.004898001
vn -0.9999881 0 0.004897
vn -0.9999881 0 0.004897
vn -0.9999881 0 0.004897
vn -0.9999881 0 0.004897
vn 0 0 -1
vn 0 0 -1
vn 0 0 -1
vn 0 0 -1
vn -1 0 0
vn -1 0 0
vn -1 0 0
vn -1 0 0
vn 1 0 0
vn 1 0 0
vn 1 0 0
vn 1 0 0
g S_Ground_tiles_Qcity_0304_0
f 3/3/3 2/2/2 1/1/1
f 4/4/4 3/3/3 1/1/1
f 7/7/7 6/6/6 5/5/5
f 8/8/8 7/7/7 5/5/5
f 11/11/11 10/10/10 9/9/9
f 12/12/12 11/11/11 9/9/9
f 15/15/15 14/14/14 13/13/13
f 16/16/16 15/15/15 13/13/13
f 19/19/19 18/18/18 17/17/17
f 20/20/20 19/19/19 17/17/17
f 23/23/23 22/22/22 21/21/21
f 24/24/24 23/23/23 21/21/21
f 27/27/27 26/26/26 25/25/25
f 28/28/28 27/27/27 25/25/25
f 29/29/29 28/28/28 25/25/25
f 30/30/30 29/29/29 25/25/25
f 30/30/30 31/31/31 29/29/29
f 31/31/31 32/32/32 29/29/29
f 35/35/35 34/34/34 33/33/33
f 36/36/36 35/35/35 33/33/33
f 39/39/39 38/38/38 37/37/37
f 40/40/40 39/39/39 37/37/37
f 43/43/43 42/42/42 41/41/41
f 41/41/41 44/44/44 43/43/43
f 44/44/44 45/45/45 43/43/43
f 48/48/48 47/47/47 46/46/46
f 49/49/49 48/48/48 46/46/46
f 52/52/52 51/51/51 50/50/50
f 50/50/50 51/51/51 53/53/53
f 54/54/54 50/50/50 53/53/53
f 57/57/57 56/56/56 55/55/55
f 58/58/58 57/57/57 55/55/55
f 61/61/61 60/60/60 59/59/59
f 62/62/62 61/61/61 59/59/59
f 65/65/65 64/64/64 63/63/63
f 66/66/66 65/65/65 63/63/63
f 69/69/69 68/68/68 67/67/67
f 70/70/70 69/69/69 67/67/67
f 73/73/73 72/72/72 71/71/71
f 74/74/74 73/73/73 71/71/71
f 77/77/77 76/76/76 75/75/75
f 78/78/78 77/77/77 75/75/75
f 81/81/81 80/80/80 79/79/79
f 82/82/82 81/81/81 79/79/79
f 85/85/85 84/84/84 83/83/83
f 86/86/86 85/85/85 83/83/83
