g S_Ground_tiles_Qcity_0256
v -50 -26.35674 49.41821
v -50 -11.88509 49.41821
v -49.52649 -11.88509 49.89166
v -49.52649 -26.35674 49.89166
v -50 26.35674 49.41821
v -43.66516 26.35674 49.41821
v -44.10748 25.88326 49.89166
v -49.52649 25.88326 49.89166
v -43.66516 26.35674 49.41821
v -43.66516 22.19659 49.41821
v -44.10748 21.72312 49.89166
v -44.10748 25.88326 49.89166
v 49.52649 -26.35674 49.89166
v 49.52649 -11.88509 49.89166
v 50 -11.88509 49.41821
v 50 -26.35674 49.41821
v 49.52649 25.88326 49.89166
v 44.20837 25.88326 49.89166
v 43.76599 26.35674 49.41821
v 50 26.35674 49.41821
v 44.20837 25.88326 49.89166
v 44.20837 21.72312 49.89166
v 43.76599 22.19659 49.41821
v 43.76599 26.35674 49.41821
v -43.66516 22.19659 49.41821
v 43.76599 22.19659 49.41821
v 44.20837 21.72312 49.89166
v -44.10748 21.72312 49.89166
v 49.52649 -11.88509 49.89166
v 49.52649 -26.35674 49.89166
v -49.52649 -26.35674 49.89166
v -49.52649 -11.88509 49.89166
v 49.20667 -3.328438 49.09833
v 49.20667 -11.57391 49.09833
v -49.20667 -11.57391 49.02216
v -49.20667 -3.328438 49.02216
v 49.52649 -3.328442 49.89166
v 49.52649 25.88326 49.89166
v 50 26.35674 49.41821
v 50 -3.328438 49.41821
v 44.20837 21.72312 49.89166
v 44.20837 25.88326 49.89166
v 49.52649 25.88326 49.89166
v 49.52649 -3.328442 49.89166
v -49.52649 -3.328438 49.89166
v -44.10748 21.72312 49.89166
v -44.10748 25.88326 49.89166
v -49.52649 25.88326 49.89166
v -50 -3.328438 49.41821
v -50 26.35674 49.41821
v -49.52649 25.88326 49.89166
v -49.52649 -3.328438 49.89166
v 43.32904 22.1966 -43.30701
v 43.76599 22.19659 49.41821
v -43.66516 22.19659 49.41821
v -43.22821 22.1966 -43.30701
v 50 -26.35674 -48.95624
v 50 -11.88509 -48.95624
v 49.06451 -11.88509 -49.89166
v 49.06451 -26.35674 -49.89166
v -49.06458 -26.35674 -49.89166
v -49.06458 -11.88509 -49.89166
v -50 -11.88509 -48.95624
v -50 -26.35674 -48.95624
v -43.22821 26.35674 -43.30701
v -50 26.35674 -48.95624
v -49.06458 26.35674 -49.89166
v -43.66516 26.35674 49.41821
v -50 26.35674 49.41821
v -50 26.35674 -48.95624
v -50 -3.328438 -48.95624
v -49.06458 -3.328438 -49.89166
v -49.06458 26.35674 -49.89166
v 43.32886 26.35674 -43.30676
v 49.06451 26.35674 -49.89166
v 50 26.35674 -48.95624
v 50 26.35674 49.41821
v 43.76599 26.35674 49.41821
v 49.06451 26.35674 -49.89166
v 49.06451 -3.328438 -49.89166
v 50 -3.328438 -48.95624
v 50 26.35674 -48.95624
v 49.06451 26.35674 -49.89166
v 43.32886 26.35674 -43.30676
v -43.22821 26.35674 -43.30701
v -49.06458 26.35674 -49.89166
v -49.06458 -26.35674 -49.89166
v 49.06451 -26.35674 -49.89166
v 49.06451 -11.88509 -49.89166
v -49.06458 -11.88509 -49.89166
v -43.22821 26.35674 -43.30701
v 43.32886 26.35674 -43.30676
v 43.32904 22.1966 -43.30701
v -43.22821 22.1966 -43.30701
v 50 -11.88509 49.41821
v 50 -11.88509 -48.95624
v 50 -26.35674 -48.95624
v 50 -26.35674 49.41821
v -50 -11.88509 49.41821
v -50 -26.35674 49.41821
v -50 -26.35674 -48.95624
v -50 -11.88509 -48.95624
v 43.76599 22.19659 49.41821
v 43.32904 22.1966 -43.30701
v 43.32886 26.35674 -43.30676
v 43.76599 26.35674 49.41821
v -43.66516 22.19659 49.41821
v -43.66516 26.35674 49.41821
v -43.22821 26.35674 -43.30701
v -43.22821 22.1966 -43.30701
v -48.97571 -11.57391 -48.86731
v 48.97571 -11.57391 -48.86731
v 48.97571 -3.328438 -48.86731
v -48.97571 -3.328438 -48.86731
v 49.20667 -3.328438 49.09833
v 48.97571 -3.328438 -48.86731
v 48.97571 -11.57391 -48.86731
v 49.20667 -11.57391 49.09833
v -49.20667 -3.328438 49.02216
v -49.20667 -11.57391 49.02216
v -48.97571 -11.57391 -48.86731
v -48.97571 -3.328438 -48.86731
v -49.06458 -3.328438 -49.89166
v 49.06451 -3.328438 -49.89166
v 49.06451 26.35674 -49.89166
v -49.06458 26.35674 -49.89166
v 50 26.35674 49.41821
v 50 26.35674 -48.95624
v 50 -3.328438 -48.95624
v 50 -3.328438 49.41821
v -50 26.35674 49.41821
v -50 -3.328438 49.41821
v -50 -3.328438 -48.95624
v -50 26.35674 -48.95624
v 49.52649 -11.88509 49.89166
v 49.20667 -11.57391 49.09833
v 50 -11.88509 49.41821
v 48.97571 -11.57391 -48.86731
v 50 -11.88509 -48.95624
v 49.06451 -11.88509 -49.89166
v 50 -3.328438 49.41821
v 49.20667 -3.328438 49.09833
v 49.52649 -3.328442 49.89166
v 50 -3.328438 -48.95624
v 48.97571 -3.328438 -48.86731
v 49.06451 -3.328438 -49.89166
v 49.52649 -3.328442 49.89166
v 49.20667 -3.328438 49.09833
v -49.20667 -3.328438 49.02216
v -49.52649 -3.328438 49.89166
v -49.52649 -11.88509 49.89166
v -49.20667 -11.57391 49.02216
v 49.20667 -11.57391 49.09833
v 49.52649 -11.88509 49.89166
v -50 -11.88509 49.41821
v -49.20667 -11.57391 49.02216
v -49.52649 -11.88509 49.89166
v -50 -11.88509 -48.95624
v -48.97571 -11.57391 -48.86731
v -49.06458 -11.88509 -49.89166
v -49.52649 -3.328438 49.89166
v -49.20667 -3.328438 49.02216
v -50 -3.328438 49.41821
v -48.97571 -3.328438 -48.86731
v -50 -3.328438 -48.95624
v -49.06458 -3.328438 -49.89166
v -49.06458 -3.328438 -49.89166
v -48.97571 -3.328438 -48.86731
v 48.97571 -3.328438 -48.86731
v 49.06451 -3.328438 -49.89166
v 49.06451 -11.88509 -49.89166
v 48.97571 -11.57391 -48.86731
v -48.97571 -11.57391 -48.86731
v -49.06458 -11.88509 -49.89166
vt 0.2272048 0.3443603
vt 0.2265707 0.363086
vt 0.227146 0.3625335
vt 0.2280425 0.3445071
vt 0.2315152 0.2882632
vt 0.2316821 0.2961012
vt 0.2325039 0.2954308
vt 0.2323487 0.2888338
vt 0.2316821 0.2961012
vt 0.2316651 0.3012379
vt 0.2323287 0.3012176
vt 0.2323379 0.2969249
vt 0.1173569 0.3226317
vt 0.1181732 0.3404962
vt 0.1187503 0.3410014
vt 0.1182047 0.3224758
vt 0.2845432 0.3290649
vt 0.2846649 0.3225092
vt 0.283829 0.3218468
vt 0.2837014 0.3296573
vt 0.2845304 0.3209387
vt 0.2844538 0.3166612
vt 0.2837859 0.316657
vt 0.283829 0.3218468
vt 0.2956851 0.8960403
vt 0.2024283 0.8960403
vt 0.2019564 0.8965123
vt 0.296157 0.8965123
vt 0.1675829 0.3475146
vt 0.1675829 0.3648235
vt 0.2860563 0.3648235
vt 0.2860563 0.3475146
vt 0.5562432 0.3214217
vt 0.5562429 0.335035
vt 0.718725 0.335035
vt 0.718725 0.3214217
vt 0.1191479 0.3229022
vt 0.1173569 0.357344
vt 0.1181131 0.3580755
vt 0.119935 0.3230306
vt 0.1237178 0.3706223
vt 0.1237178 0.3656464
vt 0.1173569 0.3656465
vt 0.1173569 0.4005855
vt 0.2358304 0.4005855
vt 0.2293489 0.3706223
vt 0.2293489 0.3656466
vt 0.2358304 0.3656465
vt 0.236407 0.3618066
vt 0.240073 0.3963095
vt 0.240803 0.3955781
vt 0.2371636 0.361548
vt 0.2024283 0.8008673
vt 0.2024283 0.8960403
vt 0.2956851 0.8960403
vt 0.2956851 0.8008673
vt 0.227486 0.3224758
vt 0.227106 0.3409761
vt 0.2281616 0.3398382
vt 0.2290918 0.3227352
vt 0.1173569 0.3446791
vt 0.1185278 0.3619549
vt 0.1195342 0.363051
vt 0.1190559 0.3443603
vt 0.1244189 0.2966831
vt 0.118301 0.2882632
vt 0.1173569 0.2896523
vt 0.2316821 0.2961012
vt 0.2315152 0.2882632
vt 0.1189378 0.398551
vt 0.1219622 0.3620753
vt 0.1204654 0.3616076
vt 0.1173569 0.3982705
vt 0.1746532 0.3218936
vt 0.1687579 0.3286167
vt 0.1699061 0.3296499
vt 0.2837014 0.3296573
vt 0.283829 0.3218468
vt 0.2389739 0.3591009
vt 0.2376406 0.3230676
vt 0.236096 0.3233183
vt 0.2373951 0.3592957
vt 0.2847063 0.3435602
vt 0.277846 0.3356843
vt 0.1743185 0.3356845
vt 0.1673378 0.3435602
vt 0.2347254 0.3028896
vt 0.1173569 0.3028896
vt 0.1173569 0.3201987
vt 0.2347255 0.3201985
vt 0.1743185 0.3356845
vt 0.277846 0.3356843
vt 0.2778462 0.3307085
vt 0.1743185 0.3307088
vt 0.1187503 0.3410014
vt 0.227106 0.3409761
vt 0.227486 0.3224758
vt 0.1182047 0.3224758
vt 0.2265707 0.363086
vt 0.2272048 0.3443603
vt 0.1190559 0.3443603
vt 0.1195342 0.363051
vt 0.2837859 0.316657
vt 0.1748695 0.316657
vt 0.1746532 0.3218936
vt 0.283829 0.3218468
vt 0.2316651 0.3012379
vt 0.2316821 0.2961012
vt 0.1244189 0.2966831
vt 0.1247149 0.3018514
vt 0.7210284 0.3318535
vt 0.5593098 0.3318535
vt 0.5593098 0.345467
vt 0.7210288 0.345467
vt 0.5593098 0.3612714
vt 0.7210525 0.3612714
vt 0.7210528 0.3476581
vt 0.5593098 0.3476581
vt 0.5593098 0.3406128
vt 0.5593098 0.3542263
vt 0.7209269 0.3542263
vt 0.7209269 0.3406128
vt 0.2347254 0.2853529
vt 0.1173569 0.2853529
vt 0.1173569 0.3208581
vt 0.2347254 0.3208581
vt 0.1181131 0.3580755
vt 0.2373951 0.3592957
vt 0.236096 0.3233183
vt 0.119935 0.3230306
vt 0.240073 0.3963095
vt 0.236407 0.3618066
vt 0.1219622 0.3620753
vt 0.1189378 0.398551
vt 0.1183261 0.3416504
vt 0.1191806 0.342238
vt 0.1187503 0.3410014
vt 0.226693 0.3427424
vt 0.227106 0.3409761
vt 0.2277267 0.3421802
vt 0.119935 0.3230306
vt 0.1201158 0.3221003
vt 0.1191479 0.3229022
vt 0.236096 0.3233183
vt 0.236102 0.3221003
vt 0.2376406 0.3230676
vt 0.1173569 0.4005855
vt 0.1177396 0.4015344
vt 0.2354478 0.4016255
vt 0.2358304 0.4005855
vt 0.2860563 0.3475146
vt 0.2856738 0.34641
vt 0.1679656 0.3464953
vt 0.1675829 0.3475146
vt 0.2265707 0.363086
vt 0.2260805 0.3643738
vt 0.2269805 0.3637375
vt 0.1195342 0.363051
vt 0.1199534 0.3648235
vt 0.1188955 0.3642642
vt 0.2371636 0.361548
vt 0.2360328 0.3608561
vt 0.236407 0.3618066
vt 0.1219131 0.3608561
vt 0.1219622 0.3620753
vt 0.1204654 0.3616076
vt 0.2347254 0.2853529
vt 0.234619 0.2841277
vt 0.1174633 0.2841277
vt 0.1173569 0.2853529
vt 0.1173569 0.3201987
vt 0.1174633 0.3214791
vt 0.2346192 0.3214791
vt 0.2347255 0.3201985
vn -0.7070822 0 0.7071313
vn -0.7070822 0 0.7071313
vn -0.7070822 0 0.7071313
vn -0.7070822 0 0.7071313
vn 0 0.7070863 0.7071272
vn 0 0.7070863 0.7071272
vn 0 0.7070863 0.7071272
vn 0 0.7070863 0.7071272
vn 0.7070597 0 0.7071537
vn 0.7070597 0 0.7071537
vn 0.7070597 0 0.7071537
vn 0.7070597 0 0.7071537
vn 0.7070822 0 0.7071313
vn 0.7070822 0 0.7071313
vn 0.7070822 0 0.7071313
vn 0.7070822 0 0.7071313
vn 0 0.7070917 0.7071218
vn 0 0.7070917 0.7071218
vn 0 0.7070917 0.7071218
vn 0 0.7070917 0.7071218
vn -0.7070597 0 0.7071537
vn -0.7070597 0 0.7071537
vn -0.7070597 0 0.7071537
vn -0.7070597 0 0.7071537
vn 0 0.7070872 0.7071263
vn 0 0.7070872 0.7071263
vn 0 0.7070872 0.7071263
vn 0 0.7070872 0.7071263
vn 0 0 1
vn 0 0 1
vn 0 0 1
vn 0 0 1
vn -0.0007739998 0 0.9999998
vn -0.0007739998 0 0.9999998
vn -0.0007739998 0 0.9999998
vn -0.0007739998 0 0.9999998
vn 0.7070848 0 0.7071288
vn 0.7070848 0 0.7071288
vn 0.7070848 0 0.7071288
vn 0.7070848 0 0.7071288
vn 0 0 1
vn 0 0 1
vn 0 0 1
vn 0 0 1
vn 0 0 1
vn 0 0 1
vn 0 0 1
vn 0 0 1
vn -0.7070848 0 0.7071288
vn -0.7070848 0 0.7071288
vn -0.7070848 0 0.7071288
vn -0.7070848 0 0.7071288
vn 0 1 0
vn 0 1 0
vn 0 1 0
vn 0 1 0
vn 0.7071118 0 -0.7071018
vn 0.7071118 0 -0.7071018
vn 0.7071118 0 -0.7071018
vn 0.7071118 0 -0.7071018
vn -0.7071118 0 -0.7071018
vn -0.7071118 0 -0.7071018
vn -0.7071118 0 -0.7071018
vn -0.7071118 0 -0.7071018
vn 0 1 0
vn 0 1 0
vn 0 1 0
vn 0 1 0
vn 0 1 0
vn -0.7071038 0 -0.7071097
vn -0.7071038 0 -0.7071097
vn -0.7071038 0 -0.7071097
vn -0.7071038 0 -0.7071097
vn 0 1 0
vn 0 1 0
vn 0 1 0
vn 0 1 0
vn 0 1 0
vn 0.7071038 0 -0.7071097
vn 0.7071038 0 -0.7071097
vn 0.7071038 0 -0.7071097
vn 0.7071038 0 -0.7071097
vn 0 1 0
vn 0 1 0
vn 0 1 0
vn 0 1 0
vn 0 0 -1
vn 0 0 -1
vn 0 0 -1
vn 0 0 -1
vn 0 -2.2E-05 1
vn 0 -2.2E-05 1
vn 0 -2.2E-05 1
vn 0 -2.2E-05 1
vn 1 0 0
vn 1 0 0
vn 1 0 0
vn 1 0 0
vn -1 0 0
vn -1 0 0
vn -1 0 0
vn -1 0 0
vn -0.9999881 -2.5E-05 0.004898001
vn -0.9999881 -2.5E-05 0.004898001
vn -0.9999881 -2.5E-05 0.004898001
vn -0.9999881 -2.5E-05 0.004898001
vn 0.9999881 0 0.004897
vn 0.9999881 0 0.004897
vn 0.9999881 0 0.004897
vn 0.9999881 0 0.004897
vn 0 0 -1
vn 0 0 -1
vn 0 0 -1
vn 0 0 -1
vn 0.9999973 0 -0.002358
vn 0.9999973 0 -0.002358
vn 0.9999973 0 -0.002358
vn 0.9999973 0 -0.002358
vn -0.9999973 0 -0.002360001
vn -0.9999973 0 -0.002360001
vn -0.9999973 0 -0.002360001
vn -0.9999973 0 -0.002360001
vn 0 0 -1
vn 0 0 -1
vn 0 0 -1
vn 0 0 -1
vn 1 0 0
vn 1 0 0
vn 1 0 0
vn 1 0 0
vn -1 0 0
vn -1 0 0
vn -1 0 0
vn -1 0 0
vn 0.0006910001 0.9366421 0.350287
vn 0.1729529 0.9694966 0.1736769
vn 0.323819 0.946119 0.000388
vn 0.157198 0.9749449 -0.157389
vn 0.3237849 0.9461298 -0.001318
vn 0.0008429997 0.9568416 -0.2906089
vn 0 -1 0
vn 0 -1 0
vn 0 -1 0
vn 0 -1 0
vn 0 -1 0
vn 0 -1 0
vn 0 -1 0
vn 0 -1 0
vn 0 -1 0
vn 0 -1 0
vn -0.0009219995 0.9366615 0.3502347
vn -0.177412 0.9695271 0.168944
vn 0.1729529 0.9694966 0.1736769
vn 0.0006910001 0.9366421 0.350287
vn -0.323751 0.9461421 0.0004890001
vn -0.177412 0.9695271 0.168944
vn -0.0009219995 0.9366615 0.3502347
vn -0.323802 0.946124 -0.001318
vn -0.15717 0.9749439 -0.157423
vn -0.0008429997 0.9568416 -0.2906089
vn 0 -1 0
vn 0 -1 0
vn 0 -1 0
vn 0 -1 0
vn 0 -1 0
vn 0 -1 0
vn 0 -1 0
vn 0 -1 0
vn 0 -1 0
vn 0 -1 0
vn 0.0008429997 0.9568416 -0.2906089
vn 0.157198 0.9749449 -0.157389
vn -0.15717 0.9749439 -0.157423
vn -0.0008429997 0.9568416 -0.2906089
g S_Ground_tiles_Qcity_0256_0
f 3/3/3 2/2/2 1/1/1
f 4/4/4 3/3/3 1/1/1
f 7/7/7 6/6/6 5/5/5
f 8/8/8 7/7/7 5/5/5
f 11/11/11 10/10/10 9/9/9
f 12/12/12 11/11/11 9/9/9
f 15/15/15 14/14/14 13/13/13
f 16/16/16 15/15/15 13/13/13
f 19/19/19 18/18/18 17/17/17
f 20/20/20 19/19/19 17/17/17
f 23/23/23 22/22/22 21/21/21
f 24/24/24 23/23/23 21/21/21
f 27/27/27 26/26/26 25/25/25
f 28/28/28 27/27/27 25/25/25
f 31/31/31 30/30/30 29/29/29
f 32/32/32 31/31/31 29/29/29
f 35/35/35 34/34/34 33/33/33
f 36/36/36 35/35/35 33/33/33
f 39/39/39 38/38/38 37/37/37
f 40/40/40 39/39/39 37/37/37
f 43/43/43 42/42/42 41/41/41
f 44/44/44 43/43/43 41/41/41
f 44/44/44 41/41/41 45/45/45
f 41/41/41 46/46/46 45/45/45
f 46/46/46 47/47/47 45/45/45
f 47/47/47 48/48/48 45/45/45
f 51/51/51 50/50/50 49/49/49
f 52/52/52 51/51/51 49/49/49
f 55/55/55 54/54/54 53/53/53
f 56/56/56 55/55/55 53/53/53
f 59/59/59 58/58/58 57/57/57
f 60/60/60 59/59/59 57/57/57
f 63/63/63 62/62/62 61/61/61
f 64/64/64 63/63/63 61/61/61
f 67/67/67 66/66/66 65/65/65
f 68/68/68 65/65/65 66/66/66
f 69/69/69 68/68/68 66/66/66
f 72/72/72 71/71/71 70/70/70
f 73/73/73 72/72/72 70/70/70
f 76/76/76 75/75/75 74/74/74
f 76/76/76 74/74/74 77/77/77
f 74/74/74 78/78/78 77/77/77
f 81/81/81 80/80/80 79/79/79
f 82/82/82 81/81/81 79/79/79
f 85/85/85 84/84/84 83/83/83
f 86/86/86 85/85/85 83/83/83
f 89/89/89 88/88/88 87/87/87
f 90/90/90 89/89/89 87/87/87
f 93/93/93 92/92/92 91/91/91
f 94/94/94 93/93/93 91/91/91
f 97/97/97 96/96/96 95/95/95
f 98/98/98 97/97/97 95/95/95
f 101/101/101 100/100/100 99/99/99
f 102/102/102 101/101/101 99/99/99
f 105/105/105 104/104/104 103/103/103
f 106/106/106 105/105/105 103/103/103
f 109/109/109 108/108/108 107/107/107
f 110/110/110 109/109/109 107/107/107
f 113/113/113 112/112/112 111/111/111
f 114/114/114 113/113/113 111/111/111
f 117/117/117 116/116/116 115/115/115
f 118/118/118 117/117/117 115/115/115
f 121/121/121 120/120/120 119/119/119
f 122/122/122 121/121/121 119/119/119
f 125/125/125 124/124/124 123/123/123
f 126/126/126 125/125/125 123/123/123
f 129/129/129 128/128/128 127/127/127
f 130/130/130 129/129/129 127/127/127
f 133/133/133 132/132/132 131/131/131
f 134/134/134 133/133/133 131/131/131
f 137/137/137 136/136/136 135/135/135
f 138/138/138 136/136/136 137/137/137
f 139/139/139 138/138/138 137/137/137
f 140/140/140 138/138/138 139/139/139
f 143/143/143 142/142/142 141/141/141
f 141/141/141 142/142/142 144/144/144
f 142/142/142 145/145/145 144/144/144
f 144/144/144 145/145/145 146/146/146
f 149/149/149 148/148/148 147/147/147
f 150/150/150 149/149/149 147/147/147
f 153/153/153 152/152/152 151/151/151
f 154/154/154 153/153/153 151/151/151
f 157/157/157 156/156/156 155/155/155
f 155/155/155 156/156/156 158/158/158
f 156/156/156 159/159/159 158/158/158
f 158/158/158 159/159/159 160/160/160
f 163/163/163 162/162/162 161/161/161
f 164/164/164 162/162/162 163/163/163
f 165/165/165 164/164/164 163/163/163
f 166/166/166 164/164/164 165/165/165
f 169/169/169 168/168/168 167/167/167
f 170/170/170 169/169/169 167/167/167
f 173/173/173 172/172/172 171/171/171
f 174/174/174 173/173/173 171/171/171
