g S_Ground_tiles_Qcity_0312
v 50 4.165989 -49.41821
v 43.44666 4.165989 -49.41821
v 44.10748 3.692516 -49.89166
v 49.52649 3.692516 -49.89166
v 43.44666 4.165989 -49.41821
v 43.44666 0 -49.41821
v 44.10748 -0.4676247 -49.89166
v 44.10748 3.692516 -49.89166
v -49.52649 3.692516 -49.89166
v -44.20837 3.692516 -49.89166
v -43.54742 4.165989 -49.41821
v -50 4.165989 -49.41821
v -44.20837 3.692516 -49.89166
v -44.20837 -0.4676247 -49.89166
v -43.54742 0 -49.41821
v -43.54742 4.165989 -49.41821
v 43.44666 0 -49.41821
v -43.54742 0 -49.41821
v -44.20837 -0.4676247 -49.89166
v 44.10748 -0.4676247 -49.89166
v -49.52649 -28.34582 -49.89166
v -49.52649 3.692516 -49.89166
v -50 4.165989 -49.41821
v -50 -28.34582 -49.41821
v -44.20837 -0.4676247 -49.89166
v -44.20837 3.692516 -49.89166
v -49.52649 3.692516 -49.89166
v -49.52649 -28.34582 -49.89166
v 49.52649 -28.34582 -49.89166
v 44.10748 -0.4676247 -49.89166
v 44.10748 3.692516 -49.89166
v 49.52649 3.692516 -49.89166
v 50 -28.34582 -49.41821
v 50 4.165989 -49.41821
v 49.52649 3.692516 -49.89166
v 49.52649 -28.34582 -49.89166
v -43.54742 0 43.30688
v -43.54742 0 -49.41821
v 43.44666 0 -49.41821
v 43.44666 0 43.30688
v 43.44666 4.165989 43.30688
v 50 4.165989 48.95624
v 49.06458 4.165989 49.89166
v 43.44666 4.165989 -49.41821
v 50 4.165989 -49.41821
v 50 4.165989 48.95624
v 50 -28.34582 48.95624
v 49.06458 -28.34582 49.89166
v 49.06458 4.165989 49.89166
v -43.54742 4.165989 43.30688
v -49.06458 4.165989 49.89166
v -50 4.165989 48.95624
v -50 4.165989 -49.41821
v -43.54742 4.165989 -49.41821
v -49.06458 4.165989 49.89166
v -49.06458 -28.34582 49.89166
v -50 -28.34582 48.95624
v -50 4.165989 48.95624
v -49.06458 4.165989 49.89166
v -43.54742 4.165989 43.30688
v 43.44666 4.165989 43.30688
v 49.06458 4.165989 49.89166
v 43.44666 4.165989 43.30688
v -43.54742 4.165989 43.30688
v -43.54742 0 43.30688
v 43.44666 0 43.30688
v -43.54742 0 -49.41821
v -43.54742 0 43.30688
v -43.54742 4.165989 43.30688
v -43.54742 4.165989 -49.41821
v 43.44666 0 -49.41821
v 43.44666 4.165989 -49.41821
v 43.44666 4.165989 43.30688
v 43.44666 0 43.30688
v 49.06458 -28.34582 49.89166
v -49.06458 -28.34582 49.89166
v -49.06458 4.165989 49.89166
v 49.06458 4.165989 49.89166
v -50 4.165989 -49.41821
v -50 4.165989 48.95624
v -50 -28.34582 48.95624
v -50 -28.34582 -49.41821
v 50 4.165989 -49.41821
v 50 -28.34582 -49.41821
v 50 -28.34582 48.95624
v 50 4.165989 48.95624
vt 0.2360475 0.3516749
vt 0.2361397 0.3557808
vt 0.2365491 0.3553118
vt 0.2364704 0.3519644
vt 0.2361397 0.3557808
vt 0.2361109 0.3582057
vt 0.2364602 0.3582481
vt 0.2364649 0.35607
vt 0.2629544 0.3723781
vt 0.2630162 0.3690517
vt 0.2625332 0.3686132
vt 0.2625273 0.3726787
vt 0.2629479 0.3682548
vt 0.2629091 0.3660844
vt 0.2625473 0.3661517
vt 0.2625332 0.3686132
vt 0.3962848 0.898881
vt 0.2995164 0.898881
vt 0.2988541 0.8993726
vt 0.3969944 0.8993726
vt 0.1790311 0.3692511
vt 0.1781223 0.3867272
vt 0.178506 0.3870984
vt 0.1794305 0.3693163
vt 0.1813499 0.3934648
vt 0.1813499 0.39094
vt 0.1781223 0.39094
vt 0.1781223 0.4086684
vt 0.2382371 0.4086684
vt 0.2349482 0.3934648
vt 0.2349482 0.39094
vt 0.2382371 0.39094
vt 0.2385296 0.3889916
vt 0.2403898 0.4064988
vt 0.2407602 0.4061276
vt 0.2389135 0.3888604
vt 0.2995515 0.7997276
vt 0.2995164 0.898881
vt 0.3962848 0.898881
vt 0.3963749 0.7997276
vt 0.1817959 0.355857
vt 0.1786014 0.3516749
vt 0.1781223 0.3523798
vt 0.2361397 0.3557808
vt 0.2360475 0.3516749
vt 0.1789245 0.4076361
vt 0.1804591 0.3891279
vt 0.1796997 0.3888906
vt 0.1781223 0.4074938
vt 0.2074498 0.3687678
vt 0.2042038 0.3721507
vt 0.2047864 0.3726749
vt 0.2625273 0.3726787
vt 0.2625332 0.3686132
vt 0.2398321 0.3876187
vt 0.2391556 0.3693351
vt 0.2383718 0.3694623
vt 0.239031 0.3877175
vt 0.2630372 0.3797332
vt 0.2596888 0.3757368
vt 0.2068927 0.375737
vt 0.2034832 0.3797332
vt 0.2068927 0.375737
vt 0.2596888 0.3757368
vt 0.2596887 0.373212
vt 0.2068928 0.3732124
vt 0.2625473 0.3661517
vt 0.2072827 0.3661563
vt 0.2074498 0.3687678
vt 0.2625332 0.3686132
vt 0.2361109 0.3582057
vt 0.2361397 0.3557808
vt 0.1817959 0.355857
vt 0.1817869 0.3585625
vt 0.2376764 0.3501982
vt 0.1781223 0.3501982
vt 0.1781223 0.3682139
vt 0.2376764 0.3682139
vt 0.178506 0.3870984
vt 0.239031 0.3877175
vt 0.2383718 0.3694623
vt 0.1794305 0.3693163
vt 0.2403898 0.4064988
vt 0.2385296 0.3889916
vt 0.1804591 0.3891279
vt 0.1789245 0.4076361
vn 0 0.7070863 -0.7071272
vn 0 0.7070863 -0.7071272
vn 0 0.7070863 -0.7071272
vn 0 0.7070863 -0.7071272
vn -0.7070597 0 -0.7071537
vn -0.7070597 0 -0.7071537
vn -0.7070597 0 -0.7071537
vn -0.7070597 0 -0.7071537
vn 0 0.7070917 -0.7071218
vn 0 0.7070917 -0.7071218
vn 0 0.7070917 -0.7071218
vn 0 0.7070917 -0.7071218
vn 0.7070597 0 -0.7071537
vn 0.7070597 0 -0.7071537
vn 0.7070597 0 -0.7071537
vn 0.7070597 0 -0.7071537
vn 0 0.7070872 -0.7071263
vn 0 0.7070872 -0.7071263
vn 0 0.7070872 -0.7071263
vn 0 0.7070872 -0.7071263
vn -0.7070848 0 -0.7071288
vn -0.7070848 0 -0.7071288
vn -0.7070848 0 -0.7071288
vn -0.7070848 0 -0.7071288
vn 0 0 -1
vn 0 0 -1
vn 0 0 -1
vn 0 0 -1
vn 0 0 -1
vn 0 0 -1
vn 0 0 -1
vn 0 0 -1
vn 0.7070848 0 -0.7071288
vn 0.7070848 0 -0.7071288
vn 0.7070848 0 -0.7071288
vn 0.7070848 0 -0.7071288
vn 0 1 0
vn 0 1 0
vn 0 1 0
vn 0 1 0
vn 0 1 0
vn 0 1 0
vn 0 1 0
vn 0 1 0
vn 0 1 0
vn 0.7071038 0 0.7071097
vn 0.7071038 0 0.7071097
vn 0.7071038 0 0.7071097
vn 0.7071038 0 0.7071097
vn 0 1 0
vn 0 1 0
vn 0 1 0
vn 0 1 0
vn 0 1 0
vn -0.7071038 0 0.7071097
vn -0.7071038 0 0.7071097
vn -0.7071038 0 0.7071097
vn -0.7071038 0 0.7071097
vn 0 1 0
vn 0 1 0
vn 0 1 0
vn 0 1 0
vn 0 -2.2E-05 -1
vn 0 -2.2E-05 -1
vn 0 -2.2E-05 -1
vn 0 -2.2E-05 -1
vn 0.9999881 -2.5E-05 -0.004898001
vn 0.9999881 -2.5E-05 -0.004898001
vn 0.9999881 -2.5E-05 -0.004898001
vn 0.9999881 -2.5E-05 -0.004898001
vn -0.9999881 0 -0.004897
vn -0.9999881 0 -0.004897
vn -0.9999881 0 -0.004897
vn -0.9999881 0 -0.004897
vn 0 0 1
vn 0 0 1
vn 0 0 1
vn 0 0 1
vn -1 0 0
vn -1 0 0
vn -1 0 0
vn -1 0 0
vn 1 0 0
vn 1 0 0
vn 1 0 0
vn 1 0 0
g S_Ground_tiles_Qcity_0312_0
f 3/3/3 2/2/2 1/1/1
f 4/4/4 3/3/3 1/1/1
f 7/7/7 6/6/6 5/5/5
f 8/8/8 7/7/7 5/5/5
f 11/11/11 10/10/10 9/9/9
f 12/12/12 11/11/11 9/9/9
f 15/15/15 14/14/14 13/13/13
f 16/16/16 15/15/15 13/13/13
f 19/19/19 18/18/18 17/17/17
f 20/20/20 19/19/19 17/17/17
f 23/23/23 22/22/22 21/21/21
f 24/24/24 23/23/23 21/21/21
f 27/27/27 26/26/26 25/25/25
f 28/28/28 27/27/27 25/25/25
f 28/28/28 25/25/25 29/29/29
f 25/25/25 30/30/30 29/29/29
f 30/30/30 31/31/31 29/29/29
f 31/31/31 32/32/32 29/29/29
f 35/35/35 34/34/34 33/33/33
f 36/36/36 35/35/35 33/33/33
f 39/39/39 38/38/38 37/37/37
f 40/40/40 39/39/39 37/37/37
f 43/43/43 42/42/42 41/41/41
f 44/44/44 41/41/41 42/42/42
f 45/45/45 44/44/44 42/42/42
f 48/48/48 47/47/47 46/46/46
f 49/49/49 48/48/48 46/46/46
f 52/52/52 51/51/51 50/50/50
f 52/52/52 50/50/50 53/53/53
f 50/50/50 54/54/54 53/53/53
f 57/57/57 56/56/56 55/55/55
f 58/58/58 57/57/57 55/55/55
f 61/61/61 60/60/60 59/59/59
f 62/62/62 61/61/61 59/59/59
f 65/65/65 64/64/64 63/63/63
f 66/66/66 65/65/65 63/63/63
f 69/69/69 68/68/68 67/67/67
f 70/70/70 69/69/69 67/67/67
f 73/73/73 72/72/72 71/71/71
f 74/74/74 73/73/73 71/71/71
f 77/77/77 76/76/76 75/75/75
f 78/78/78 77/77/77 75/75/75
f 81/81/81 80/80/80 79/79/79
f 82/82/82 81/81/81 79/79/79
f 85/85/85 84/84/84 83/83/83
f 86/86/86 85/85/85 83/83/83
