g S_Outworld_prop_0112
v -12.19358 8.31569 2.929261
v -13.7736 12.5863 -0.9721065
v 4.39132 14.8346 -2.929382
v 7.179711 8.682237 2.929261
v 13.77358 -8.229369 2.929261
v -3.167274 -14.8346 2.929261
v -12.19358 8.31569 2.929261
v 7.179711 8.682237 2.929261
vt 0.9373291 0.1461991
vt 0.9373291 0.1577951
vt 0.888133 0.1577951
vt 0.888133 0.1295461
vt 0.888133 0.08440112
vt 0.9373291 0.08440112
vt 0.9373291 0.1461991
vt 0.888133 0.1295461
vn -0.009319997 0.6814098 0.7318428
vn -0.009319997 0.6814098 0.7318428
vn -0.009319997 0.6814098 0.7318428
vn -0.009319997 0.6814098 0.7318428
vn 0 0 1
vn 0 0 1
vn 0 0 1
vn 0 0 1
g S_Outworld_prop_0112_0
f 3/3/3 2/2/2 1/1/1
f 4/4/4 3/3/3 1/1/1
f 7/7/7 6/6/6 5/5/5
f 8/8/8 7/7/7 5/5/5
