g S_Outworld_prop_0429
v 7.349884 -8.846122 45.49067
v 7.349884 -0.5171669 45.49067
v 7.349884 -0.5171669 38.44136
v 7.349884 -8.846122 38.44136
v 7.349884 -0.5171669 45.49067
v -6.353363 8.84611 45.49067
v -6.353363 8.84611 38.44136
v 7.349884 -0.5171669 38.44136
v -6.353363 8.84611 45.49067
v -6.353363 -8.846122 45.49067
v -6.353363 -8.846122 38.44136
v -6.353363 8.84611 38.44136
v 7.349884 -8.846122 38.44136
v 7.349884 -0.5171669 38.44136
v -6.353363 8.84611 38.44136
v -6.353363 -8.846122 38.44136
v -6.353363 -8.846122 45.49067
v -6.353363 8.84611 45.49067
v 7.349884 -0.5171669 45.49067
v 7.349884 -8.846122 45.49067
v 1.911835 -2.178742 -50.44769
v 1.911835 -8.239612 -50.44769
v 1.911835 -8.239612 50.44782
v 1.911835 -2.178742 50.44782
v 1.598236 -1.505387 50.44782
v -7.349762 -1.505387 50.44782
v -7.349762 -1.505387 -50.44788
v 1.598358 -1.505387 -50.44769
v 1.911835 -2.178742 -50.44769
v 1.911835 -2.178742 50.44782
v 1.598236 -1.505387 50.44782
v 1.598358 -1.505387 -50.44769
v 7.349884 -8.846122 -38.50391
v 7.349884 -0.5171669 -38.50391
v 7.349884 -0.5171669 -45.55322
v 7.349884 -8.846122 -45.55322
v 7.349884 -0.5171669 -38.50391
v -6.353363 8.84611 -38.50391
v -6.353363 8.84611 -45.55322
v 7.349884 -0.5171669 -45.55322
v -6.353363 8.84611 -38.50391
v -6.353363 -8.846122 -38.50391
v -6.353363 -8.846122 -45.55322
v -6.353363 8.84611 -45.55322
v 7.349884 -8.846122 -45.55322
v 7.349884 -0.5171669 -45.55322
v -6.353363 8.84611 -45.55322
v -6.353363 -8.846122 -45.55322
v -6.353363 -8.846122 -38.50391
v -6.353363 8.84611 -38.50391
v 7.349884 -0.5171669 -38.50391
v 7.349884 -8.846122 -38.50391
vt 0.9610529 0.3772495
vt 0.9610503 0.3896205
vt 0.9715217 0.3896204
vt 0.9715244 0.3772495
vt 0.9610503 0.3896205
vt 0.9610503 0.4043702
vt 0.9715219 0.4043702
vt 0.9715217 0.3896204
vt 0.9610503 0.4043702
vt 0.9610504 0.4306523
vt 0.9715219 0.4306523
vt 0.9715219 0.4043702
vt 0.9741949 0.3965231
vt 0.9624051 0.4002743
vt 0.9553229 0.4238887
vt 0.9803666 0.4159205
vt 0.9530481 0.4062751
vt 0.978092 0.4142433
vt 0.9710096 0.3906289
vt 0.9592198 0.3868778
vt 0.8014213 0.3403439
vt 0.8013984 0.3340141
vt 0.6833296 0.3340148
vt 0.6833525 0.3403444
vt 0.683355 0.3414738
vt 0.6833579 0.3544613
vt 0.8014268 0.3544614
vt 0.8014237 0.3414735
vt 0.8014213 0.3403439
vt 0.6833525 0.3403444
vt 0.683355 0.3414738
vt 0.8014237 0.3414735
vt 0.9612312 0.3772485
vt 0.961229 0.3896204
vt 0.9717004 0.3896205
vt 0.9717026 0.3772485
vt 0.961229 0.3896204
vt 0.9612289 0.4043703
vt 0.9717003 0.4043703
vt 0.9717004 0.3896205
vt 0.9612289 0.4043703
vt 0.9612289 0.4306512
vt 0.9717002 0.4306513
vt 0.9717003 0.4043703
vt 0.9750829 0.3821409
vt 0.963293 0.3858921
vt 0.9562106 0.4095066
vt 0.9812545 0.4015384
vt 0.9535218 0.4148301
vt 0.9785658 0.4227984
vt 0.9714833 0.3991839
vt 0.9596934 0.3954327
vn 1 0 0
vn 1 0 0
vn 1 0 0
vn 1 0 0
vn 0.5641672 0.8256605 0
vn 0.5641672 0.8256605 0
vn 0.5641672 0.8256605 0
vn 0.5641672 0.8256605 0
vn -1 0 0
vn -1 0 0
vn -1 0 0
vn -1 0 0
vn 0 0 -1
vn 0 0 -1
vn 0 0 -1
vn 0 0 -1
vn 0 0 1
vn 0 0 1
vn 0 0 1
vn 0 0 1
vn 1 0 0
vn 1 0 0
vn 1 0 0
vn 1 0 0
vn 0 1 0
vn 0 1 0
vn 0 1 0
vn 0 1 0
vn 0.9065501 0.4220983 0
vn 0.9065501 0.4220983 0
vn 0.9065501 0.4220984 0
vn 0.9065501 0.4220983 0
vn 1 0 0
vn 1 0 0
vn 1 0 0
vn 1 0 0
vn 0.5641673 0.8256605 0
vn 0.5641673 0.8256605 0
vn 0.5641673 0.8256605 0
vn 0.5641673 0.8256605 0
vn -1 0 0
vn -1 0 0
vn -1 0 0
vn -1 0 0
vn 0 0 -1
vn 0 0 -1
vn 0 0 -1
vn 0 0 -1
vn 0 0 1
vn 0 0 1
vn 0 0 1
vn 0 0 1
g S_Outworld_prop_0429_0
f 3/3/3 2/2/2 1/1/1
f 4/4/4 3/3/3 1/1/1
f 7/7/7 6/6/6 5/5/5
f 8/8/8 7/7/7 5/5/5
f 11/11/11 10/10/10 9/9/9
f 12/12/12 11/11/11 9/9/9
f 15/15/15 14/14/14 13/13/13
f 16/16/16 15/15/15 13/13/13
f 19/19/19 18/18/18 17/17/17
f 20/20/20 19/19/19 17/17/17
f 23/23/23 22/22/22 21/21/21
f 24/24/24 23/23/23 21/21/21
f 27/27/27 26/26/26 25/25/25
f 28/28/28 27/27/27 25/25/25
f 31/31/31 30/30/30 29/29/29
f 32/32/32 31/31/31 29/29/29
f 35/35/35 34/34/34 33/33/33
f 36/36/36 35/35/35 33/33/33
f 39/39/39 38/38/38 37/37/37
f 40/40/40 39/39/39 37/37/37
f 43/43/43 42/42/42 41/41/41
f 44/44/44 43/43/43 41/41/41
f 47/47/47 46/46/46 45/45/45
f 48/48/48 47/47/47 45/45/45
f 51/51/51 50/50/50 49/49/49
f 52/52/52 51/51/51 49/49/49
