g S_Outworld_prop_0619
v -5.952187 11.839 5.978278
v 2.013145 13.96866 3.360846
v 2.338096 10.31763 11.20484
v -2.336952 15.94697 -5.847162
v -16.83518 6.831653 2.511725
v -15.22404 8.217052 -5.129632
v -19.24369 -3.364576 -8.582025
v -19.51102 -3.587264 -0.2372984
v -19.01798 -10.55076 -7.793451
v -18.54765 -10.14342 3.746832
v -15.07413 -16.14412 5.933356
v -5.945229 -16.14412 12.80421
v -7.407875 -7.188512 14.08057
v -16.77409 2.490367 5.527838
v -5.262001 1.763766 16.17335
v -15.12711 -16.14412 -6.699945
v -16.77946 -13.81068 -12.63842
v -18.67741 -10.08252 -12.33959
v -15.23466 -3.33831 -14.2434
v -9.795509 7.88993 -10.71337
v -12.19267 8.23875 9.009772
v -3.959511 8.532229 13.06055
v 5.667198 4.388089 17.11768
v 3.39254 -0.7018577 19.01905
v 11.35079 -8.230474 19.98462
v 4.219566 -8.483917 20.69507
v -0.2995988 -8.749749 18.35108
v -12.68241 -9.474014 -17.76684
v -12.32719 -13.72945 -16.92797
v -6.414711 -16.14412 -18.72729
v 7.994469 -16.14412 19.5127
v 11.46603 -15.95537 18.18555
v 7.107994 -5.022746 -14.79174
v 4.403893 -16.14412 -14.32494
v 15.02126 -7.019711 -2.995599
v 10.5682 6.847037 -8.817132
v 14.87511 1.676787 -1.248285
v 4.483849 5.464911 -14.39013
v 0.5948103 -16.14412 -19.31957
v -3.668129 -6.288502 -21.21484
v -3.485146 -12.93185 -21.29418
v -12.68241 -9.474014 -17.76684
v -12.32719 -13.72945 -16.92797
v 3.087547 12.93325 -11.98412
v -4.682289 2.910559 -15.8933
v -15.23466 -3.33831 -14.2434
v -9.795509 7.88993 -10.71337
v 0.8954085 15.78614 -9.661859
v -2.336952 15.94697 -5.847162
v 4.200706 16.14412 -4.078119
v 9.879234 12.44944 -6.134759
v 10.47146 8.879279 4.915778
v 12.84594 -0.7372906 3.402838
v 2.013145 13.96866 3.360846
v 11.18356 7.785655 11.23658
v 2.338096 10.31763 11.20484
v 14.36749 0.529456 9.215827
v 14.82238 -9.787291 4.305182
v 14.50985 -8.67218 14.06837
v 14.95995 -15.72602 11.3191
v 11.70034 2.004937 13.95631
v 11.35079 -8.230474 19.98462
v 11.46603 -15.95537 18.18555
v 5.667198 4.388089 17.11768
v 12.92742 -15.54052 -3.114496
v -6.414711 -16.14412 -18.72729
vt 0.832001 0.1077311
vt 0.836502 0.1216511
vt 0.850335 0.1091181
vt 0.815465 0.1254001
vt 0.817601 0.0931321
vt 0.806656 0.0998291
vt 0.795905 0.0805101
vt 0.809892 0.0767791
vt 0.79525 0.06767011
vt 0.815712 0.06469411
vt 0.820301 0.05256411
vt 0.843875 0.0525931
vt 0.842991 0.06877311
vt 0.821506 0.08509011
vt 0.847115 0.08552811
vt 0.794548 0.0556611
vt 0.786021 0.0645581
vt 0.788105 0.07099011
vt 0.783945 0.0849571
vt 0.797249 0.1085871
vt 0.830146 0.0949121
vt 0.844049 0.09906111
vt 0.864097 0.09583711
vt 0.862636 0.08432811
vt 0.879218 0.0723161
vt 0.866598 0.07007711
vt 0.857724 0.06812911
vt 0.774179 0.0724441
vt 0.775292 0.06353711
vt 0.76651 0.05537511
vt 0.87404 0.05657711
vt 0.880751 0.0573331
vt 0.892358 0.2074293
vt 0.870795 0.2009853
vt 0.887136 0.2359943
vt 0.91231 0.2220213
vt 0.903671 0.2373703
vt 0.912457 0.2074973
vt 0.874623 0.1867883
vt 0.897061 0.1831063
vt 0.885037 0.1797353
vt 0.900618 0.1642573
vt 0.89179 0.1610163
vt 0.92666 0.2110933
vt 0.916709 0.1894633
vt 0.917269 0.1647843
vt 0.93488 0.1872293
vt 0.934701 0.2120673
vt 0.943934 0.2123023
vt 0.935368 0.2241083
vt 0.922834 0.2258973
vt 0.922901 0.2462543
vt 0.902707 0.2476293
vt 0.942481 0.2380993
vt 0.922609 0.2581343
vt 0.940348 0.2572383
vt 0.90682 0.2581993
vt 0.8845 0.2512693
vt 0.891468 0.2709363
vt 0.875962 0.2681613
vt 0.913893 0.2665483
vt 0.897062 0.2835753
vt 0.880177 0.2841153
vt 0.927205 0.2738333
vt 0.870794 0.2342903
vt 0.881284 0.1710113
vn -0.3297803 0.9039009 0.2724119
vn 0.110681 0.9319531 0.3452725
vn 0.08923888 0.8432539 0.5300559
vn -0.3926106 0.8669984 -0.3068723
vn -0.7512701 0.6502247 0.1131416
vn -0.7034443 0.6640141 -0.2534787
vn -0.920601 0.2615241 -0.2899984
vn -0.9900713 0.09079999 0.1073042
vn -0.9449037 -0.3272891 -0.006229357
vn -0.8171499 -0.174775 0.5492901
vn -0.7077849 -0.2406809 0.6641636
vn -0.5636531 -0.2102769 0.7987983
vn -0.6259492 -0.093637 0.7742221
vn -0.770851 0.073672 0.632741
vn -0.4918903 0.161337 0.8555783
vn -0.7002189 -0.7055984 -0.1087408
vn -0.5838162 -0.6898007 -0.4281748
vn -0.8300095 -0.06387103 -0.5540801
vn -0.5749069 0.377773 -0.7257889
vn -0.4525956 0.591106 -0.6676458
vn -0.6026269 0.5314298 0.5953345
vn -0.225194 0.6538258 0.7223569
vn 0.1898251 0.5238791 0.8303717
vn -0.1062466 0.2374539 0.965571
vn 0.5747677 0.130645 0.8078206
vn -0.2803259 -0.1592219 0.9466075
vn -0.4357597 -0.214206 0.8742021
vn -0.5284092 0.050039 -0.8475139
vn -0.4902174 -0.6734867 -0.5532652
vn -0.3640346 -0.6721071 -0.6447874
vn -0.2424269 -0.2893519 0.9260156
vn 0.7532535 -0.1485859 0.6407272
vn 0.7007757 -0.01188701 -0.7132827
vn 0.7863116 -0.2099549 -0.5810618
vn 0.9183112 -0.06143201 -0.3910635
vn 0.7971882 0.1898979 -0.5730879
vn 0.9585531 0.281366 0.04482184
vn 0.4759167 0.2587619 -0.8405627
vn 0.5687569 -0.05261998 -0.8208208
vn 0.148486 0.2176221 -0.9646723
vn -0.08279853 -0.1608309 -0.9835028
vn -0.5284092 0.050039 -0.8475139
vn -0.4902174 -0.6734867 -0.5532652
vn 0.2576078 0.52117 -0.8136463
vn -0.3191973 0.4975621 -0.8065637
vn -0.5749069 0.377773 -0.7257889
vn -0.4525956 0.591106 -0.6676458
vn -0.2107088 0.7173857 -0.6640477
vn -0.3926106 0.8669984 -0.3068723
vn 0.3367719 0.9328273 0.1281329
vn 0.7892663 0.5915869 -0.1645711
vn 0.8263052 0.5586969 0.07125761
vn 0.9722457 0.233595 0.01309776
vn 0.110681 0.9319531 0.3452725
vn 0.6022138 0.695579 0.3918017
vn 0.08923888 0.8432539 0.5300559
vn 0.975884 0.215699 0.03352977
vn 0.9986212 -0.02078299 -0.04820496
vn 0.9597496 0.06524501 0.2731735
vn 0.990903 -0.060406 0.1202602
vn 0.7137042 0.3438021 0.6102676
vn 0.5747677 0.130645 0.8078206
vn 0.7532535 -0.1485859 0.6407272
vn 0.1898251 0.5238791 0.8303717
vn 0.8801652 -0.192838 -0.4337311
vn -0.3640346 -0.6721071 -0.6447874
g S_Outworld_prop_0619_0
f 3/3/3 2/2/2 1/1/1
f 1/1/1 2/2/2 4/4/4
f 4/4/4 5/5/5 1/1/1
f 6/6/6 5/5/5 4/4/4
f 6/6/6 7/7/7 5/5/5
f 7/7/7 8/8/8 5/5/5
f 8/8/8 7/7/7 9/9/9
f 8/8/8 9/9/9 10/10/10
f 10/10/10 9/9/9 11/11/11
f 10/10/10 11/11/11 12/12/12
f 13/13/13 10/10/10 12/12/12
f 14/14/14 10/10/10 13/13/13
f 8/8/8 10/10/10 14/14/14
f 5/5/5 8/8/8 14/14/14
f 15/15/15 14/14/14 13/13/13
f 9/9/9 16/16/16 11/11/11
f 17/17/17 16/16/16 9/9/9
f 7/7/7 18/18/18 9/9/9
f 18/18/18 17/17/17 9/9/9
f 19/19/19 7/7/7 6/6/6
f 7/7/7 19/19/19 18/18/18
f 20/20/20 6/6/6 4/4/4
f 20/20/20 19/19/19 6/6/6
f 15/15/15 21/21/21 14/14/14
f 21/21/21 15/15/15 22/22/22
f 22/22/22 15/15/15 23/23/23
f 23/23/23 15/15/15 24/24/24
f 24/24/24 25/25/25 23/23/23
f 26/26/26 25/25/25 24/24/24
f 24/24/24 15/15/15 27/27/27
f 15/15/15 13/13/13 27/27/27
f 13/13/13 12/12/12 27/27/27
f 27/27/27 26/26/26 24/24/24
f 1/1/1 21/21/21 22/22/22
f 3/3/3 1/1/1 22/22/22
f 3/3/3 22/22/22 23/23/23
f 5/5/5 21/21/21 1/1/1
f 21/21/21 5/5/5 14/14/14
f 19/19/19 28/28/28 18/18/18
f 18/18/18 28/28/28 29/29/29
f 17/17/17 18/18/18 29/29/29
f 17/17/17 29/29/29 30/30/30
f 16/16/16 17/17/17 30/30/30
f 26/26/26 31/31/31 25/25/25
f 26/26/26 27/27/27 31/31/31
f 31/31/31 32/32/32 25/25/25
f 27/27/27 12/12/12 31/31/31
f 35/35/35 34/34/34 33/33/33
f 33/33/33 36/36/36 35/35/35
f 36/36/36 37/37/37 35/35/35
f 36/36/36 33/33/33 38/38/38
f 39/39/39 38/38/38 33/33/33
f 33/33/33 34/34/34 39/39/39
f 38/38/38 39/39/39 40/40/40
f 40/40/40 39/39/39 41/41/41
f 41/41/41 42/42/42 40/40/40
f 42/42/42 41/41/41 43/43/43
f 44/44/44 38/38/38 40/40/40
f 44/44/44 40/40/40 45/45/45
f 45/45/45 40/40/40 46/46/46
f 40/40/40 42/42/42 46/46/46
f 47/47/47 45/45/45 46/46/46
f 48/48/48 45/45/45 47/47/47
f 45/45/45 48/48/48 44/44/44
f 49/49/49 48/48/48 47/47/47
f 49/49/49 50/50/50 48/48/48
f 51/51/51 44/44/44 48/48/48
f 44/44/44 51/51/51 38/38/38
f 51/51/51 37/37/37 36/36/36
f 36/36/36 38/38/38 51/51/51
f 51/51/51 48/48/48 50/50/50
f 50/50/50 52/52/52 51/51/51
f 53/53/53 51/51/51 52/52/52
f 52/52/52 50/50/50 54/54/54
f 54/54/54 50/50/50 49/49/49
f 54/54/54 55/55/55 52/52/52
f 55/55/55 54/54/54 56/56/56
f 52/52/52 55/55/55 57/57/57
f 53/53/53 52/52/52 57/57/57
f 57/57/57 58/58/58 53/53/53
f 58/58/58 57/57/57 59/59/59
f 58/58/58 59/59/59 60/60/60
f 61/61/61 59/59/59 57/57/57
f 55/55/55 61/61/61 57/57/57
f 59/59/59 61/61/61 62/62/62
f 63/63/63 59/59/59 62/62/62
f 60/60/60 59/59/59 63/63/63
f 62/62/62 61/61/61 64/64/64
f 64/64/64 55/55/55 56/56/56
f 64/64/64 61/61/61 55/55/55
f 53/53/53 37/37/37 51/51/51
f 53/53/53 35/35/35 37/37/37
f 58/58/58 35/35/35 53/53/53
f 60/60/60 65/65/65 58/58/58
f 58/58/58 65/65/65 35/35/35
f 65/65/65 34/34/34 35/35/35
f 41/41/41 66/66/66 43/43/43
f 41/41/41 39/39/39 66/66/66
