g S_Outworld_prop_0594
v 10.07655 4.461839 -20.5629
v 10.07655 -4.461836 -20.5629
v 10.07661 -4.461836 20.56296
v 10.07661 4.461839 20.56296
v -10.07659 4.461839 20.56296
v -10.07665 4.461839 -20.5629
v 10.07655 4.461839 -20.5629
v 10.07661 4.461839 20.56296
v -10.07659 -4.461836 20.56296
v -10.07665 -4.461836 -20.5629
v -10.07665 4.461839 -20.5629
v -10.07659 4.461839 20.56296
v 10.07655 -4.461836 -20.5629
v 10.07655 4.461839 -20.5629
v -10.07665 4.461839 -20.5629
v -10.07665 -4.461836 -20.5629
v -10.07659 -4.461836 20.56296
v -10.07659 4.461839 20.56296
v 10.07661 4.461839 20.56296
v 10.07661 -4.461836 20.56296
vt 0.5292506 0.3277189
vt 0.52925 0.3343637
vt 0.5598735 0.3343661
vt 0.559874 0.3277212
vt 0.5598724 0.3415051
vt 0.5292507 0.3415051
vt 0.5292507 0.3565108
vt 0.5598724 0.3565108
vt 0.5609258 0.3525264
vt 0.5303198 0.3525274
vt 0.53032 0.3591684
vt 0.560926 0.3591674
vt 0.5813211 0.3266193
vt 0.5813211 0.3199749
vt 0.5663154 0.319975
vt 0.5663154 0.3266194
vt 0.5643091 0.3288957
vt 0.5643092 0.3222513
vt 0.5493034 0.3222513
vt 0.5493034 0.3288957
vn 1 0 0
vn 1 0 0
vn 1 0 0
vn 1 0 0
vn 0 1 0
vn 0 1 0
vn 0 1 0
vn 0 1 0
vn -1 0 0
vn -1 0 0
vn -1 0 0
vn -1 0 0
vn 0 0 -1
vn 0 0 -1
vn 0 0 -1
vn 0 0 -1
vn 0 0 1
vn 0 0 1
vn 0 0 1
vn 0 0 1
g S_Outworld_prop_0594_0
f 3/3/3 2/2/2 1/1/1
f 4/4/4 3/3/3 1/1/1
f 7/7/7 6/6/6 5/5/5
f 8/8/8 7/7/7 5/5/5
f 11/11/11 10/10/10 9/9/9
f 12/12/12 11/11/11 9/9/9
f 15/15/15 14/14/14 13/13/13
f 16/16/16 15/15/15 13/13/13
f 19/19/19 18/18/18 17/17/17
f 20/20/20 19/19/19 17/17/17
