g S_Outworld_prop_097
v 4.935202 -2.857965 -8.548143
v 4.935202 2.857977 -8.548143
v -4.935343 2.857977 -8.548143
v -4.935343 -2.857965 -8.548143
v -4.935343 -2.857965 -8.548143
v -4.935343 2.857977 -8.548143
v -9.870462 2.857977 7.469356E-05
v -9.870462 -2.857965 7.469356E-05
v -9.870462 -2.857965 7.469356E-05
v -9.870462 2.857977 7.469356E-05
v -4.935282 2.857977 8.548231
v -4.935282 -2.857965 8.548231
v -4.935282 -2.857965 8.548231
v -4.935282 2.857977 8.548231
v 4.935202 2.857977 8.548231
v 4.935202 -2.857965 8.548231
v 4.935202 -2.857965 8.548231
v 4.935202 2.857977 8.548231
v 9.870443 2.857977 7.469356E-05
v 9.870443 -2.857965 7.469356E-05
v 9.870443 -2.857965 7.469356E-05
v 9.870443 2.857977 7.469356E-05
v 4.935202 2.857977 -8.548143
v 4.935202 -2.857965 -8.548143
v 4.935202 2.857977 -8.548143
v -3.997504E-05 2.857977 7.469356E-05
v -4.935343 2.857977 -8.548143
v -9.870462 2.857977 7.469356E-05
v -4.935282 2.857977 8.548231
v 4.935202 2.857977 8.548231
v 9.870443 2.857977 7.469356E-05
vt 0.3386786 0.4955157
vt 0.3386786 0.5069124
vt 0.3560938 0.5069124
vt 0.3560938 0.4955157
vt 0.3560938 0.4955157
vt 0.3560938 0.5069124
vt 0.373509 0.5069124
vt 0.373509 0.4955157
vt 0.373509 0.4955157
vt 0.373509 0.5069124
vt 0.3909242 0.5069124
vt 0.3909242 0.4955157
vt 0.3909242 0.4955157
vt 0.3909242 0.5069124
vt 0.4083393 0.5069124
vt 0.4083393 0.4955157
vt 0.4083393 0.4955157
vt 0.4083393 0.5069124
vt 0.4257545 0.5069124
vt 0.4257545 0.4955157
vt 0.4257545 0.4955157
vt 0.4257545 0.5069124
vt 0.4431697 0.5069124
vt 0.4431697 0.4955157
vt 0.3664481 0.5071126
vt 0.3570313 0.5232379
vt 0.3757046 0.5231454
vt 0.3664481 0.5391781
vt 0.3479351 0.5391781
vt 0.3386786 0.5231454
vt 0.3479351 0.5071126
vn 0 0 -1
vn 0 0 -1
vn 0 0 -1
vn 0 0 -1
vn -0.8660328 0 -0.4999873
vn -0.8660328 0 -0.4999873
vn -0.8660328 0 -0.4999873
vn -0.8660328 0 -0.4999873
vn -0.8660301 0 0.499992
vn -0.8660301 0 0.499992
vn -0.8660301 0 0.499992
vn -0.8660301 0 0.499992
vn 0 0 1
vn 0 0 1
vn 0 0 1
vn 0 0 1
vn 0.8660274 0 0.4999967
vn 0.8660274 0 0.4999967
vn 0.8660274 0 0.4999967
vn 0.8660274 0 0.4999967
vn 0.8660274 0 -0.4999967
vn 0.8660274 0 -0.4999967
vn 0.8660274 0 -0.4999967
vn 0.8660274 0 -0.4999967
vn 0 1 0
vn 0 1 0
vn 0 1 0
vn 0 1 0
vn 0 1 0
vn 0 1 0
vn 0 1 0
g S_Outworld_prop_097_0
f 3/3/3 2/2/2 1/1/1
f 4/4/4 3/3/3 1/1/1
f 7/7/7 6/6/6 5/5/5
f 8/8/8 7/7/7 5/5/5
f 11/11/11 10/10/10 9/9/9
f 12/12/12 11/11/11 9/9/9
f 15/15/15 14/14/14 13/13/13
f 16/16/16 15/15/15 13/13/13
f 19/19/19 18/18/18 17/17/17
f 20/20/20 19/19/19 17/17/17
f 23/23/23 22/22/22 21/21/21
f 24/24/24 23/23/23 21/21/21
f 27/27/27 26/26/26 25/25/25
f 28/28/28 26/26/26 27/27/27
f 29/29/29 26/26/26 28/28/28
f 30/30/30 26/26/26 29/29/29
f 31/31/31 26/26/26 30/30/30
f 25/25/25 26/26/26 31/31/31
