g S_Outworld_prop_0327
v -125.0107 -0.5045138 -198.4487
v -135.4892 -0.5045138 -203.6358
v -133.7415 -0.5045138 -209.9509
v -123.2636 -0.5045138 -204.7643
v -103.5999 -0.5044909 -184.2072
v -101.9989 -0.4963923 -190.6289
v -53.75621 -0.4826403 -141.9581
v -33.44513 -0.4826136 -113.401
v -37.89614 -0.1375552 -109.8083
v -57.52788 0.5044965 -137.1294
v -22.71814 -0.5045596 -74.08352
v -17.49178 -0.4826136 -76.03701
v -15.2699 -0.5045596 -43.00356
v -9.295339 -0.4826136 -42.8005
v -10.64438 -0.5045596 -7.596638
v -4.636784 -0.4826136 -6.577534
v -6.256001 -0.5045596 32.88633
v -0.2562757 -0.4826136 33.85911
v -0.44344 -0.5045596 65.20634
v 5.536266 -0.4826136 65.45689
v 12.85794 -0.4826136 88.23447
v 6.776653 -0.5045596 88.06449
v 17.12596 -0.5045596 111.7223
v 22.5182 -0.4826136 110.1363
v 35.53697 -0.4826136 130.0763
v 29.99212 -0.5045596 131.7294
v -84.44891 0.5045614 -167.9555
v -80.73425 -0.4882784 -172.3436
v -101.9989 -0.4963923 -190.6289
v -103.5999 -0.5044909 -184.2072
vt 0.7484048 0.05171613
vt 0.7631436 0.05171613
vt 0.7700331 0.02744728
vt 0.7552952 0.02744728
vt 0.7135468 0.05171613
vt 0.7206866 0.02744728
vt 0.6206242 0.02744728
vt 0.5680013 0.02744728
vt 0.5666468 0.05171613
vt 0.6171407 0.05171613
vt 0.5085059 0.05171613
vt 0.5071381 0.02744728
vt 0.4622482 0.05171613
vt 0.4574969 0.02744728
vt 0.4124484 0.05171613
vt 0.4066044 0.02744728
vt 0.3561848 0.05171613
vt 0.3504075 0.02744728
vt 0.3095326 0.05171613
vt 0.3047152 0.02744728
vt 0.2694154 0.02744728
vt 0.2742037 0.05171613
vt 0.2354793 0.05171613
vt 0.2335059 0.02744728
vt 0.1976418 0.02744728
vt 0.1996419 0.05171613
vt 0.6777228 0.05171613
vt 0.6806754 0.02744728
vt 0.7206866 0.02744728
vt 0.7135468 0.05171613
vn -0.0003884253 0.9999999 0.0003707123
vn 0 1 0
vn 0 1 0
vn -0.0003143491 0.9999999 0.0003000144
vn -0.0005223366 0.9999998 0.0004985164
vn -0.0005223366 0.9999998 0.0004985164
vn 0.1155113 0.9891096 -0.0912104
vn 0.06685782 0.9971335 -0.03542409
vn 0.05934565 0.9977914 -0.02983878
vn 0.111772 0.9901947 -0.08379431
vn 0.01363453 0.9999011 -0.003477371
vn 0.01440681 0.9998895 -0.003672356
vn -0.003745873 0.9999927 0.0007153951
vn -0.003737168 0.9999928 0.0006549238
vn -0.003716607 0.999993 0.0004470457
vn -0.003718455 0.999993 0.0004329178
vn -0.003726052 0.999993 0.0004981455
vn -0.003728116 0.999993 0.0005505705
vn -0.003715554 0.9999927 0.0008415689
vn -0.003706135 0.9999927 0.0009293391
vn -0.003648069 0.9999924 0.001435155
vn -0.003660784 0.9999925 0.001330699
vn -0.003519551 0.9999921 0.00183902
vn -0.003484812 0.9999921 0.001917039
vn -0.003366958 0.999992 0.002181727
vn -0.003366958 0.999992 0.002181727
vn 0.09268112 0.9910126 -0.09645704
vn 0.08861799 0.9915513 -0.09472534
vn 0.0369684 0.9966747 -0.07261444
vn 0.0369684 0.9966747 -0.07261443
g S_Outworld_prop_0327_0
f 3/3/3 2/2/2 1/1/1
f 4/4/4 3/3/3 1/1/1
f 1/1/1 5/5/5 4/4/4
f 5/5/5 6/6/6 4/4/4
f 9/9/9 8/8/8 7/7/7
f 10/10/10 9/9/9 7/7/7
f 9/9/9 11/11/11 8/8/8
f 11/11/11 12/12/12 8/8/8
f 11/11/11 13/13/13 12/12/12
f 13/13/13 14/14/14 12/12/12
f 13/13/13 15/15/15 14/14/14
f 15/15/15 16/16/16 14/14/14
f 15/15/15 17/17/17 16/16/16
f 17/17/17 18/18/18 16/16/16
f 17/17/17 19/19/19 18/18/18
f 19/19/19 20/20/20 18/18/18
f 21/21/21 20/20/20 19/19/19
f 22/22/22 21/21/21 19/19/19
f 22/22/22 23/23/23 21/21/21
f 23/23/23 24/24/24 21/21/21
f 25/25/25 24/24/24 23/23/23
f 26/26/26 25/25/25 23/23/23
f 7/7/7 28/28/28 27/27/27
f 10/10/10 7/7/7 27/27/27
f 27/27/27 28/28/28 29/29/29
f 30/30/30 27/27/27 29/29/29
