g S_Outworld_prop_0354
v 6.675166 -1.495422 113.2427
v 6.324519 0.0001220703 113.2427
v 6.324519 0.0001220703 -113.7825
v 6.675166 -1.495422 -113.7825
v 4.438228 1.495361 113.2427
v 4.438228 1.495361 -113.7827
v 0.3573561 1.495361 113.2427
v 0.357173 1.495361 -113.7832
vt 0.7043952 0.3491556
vt 0.7043962 0.3477693
vt 0.6393061 0.3477657
vt 0.6393058 0.3491493
vt 0.7043971 0.3430729
vt 0.6393063 0.343073
vt 0.7043973 0.3342798
vt 0.6393059 0.3342792
vn 0.9736025 0.2282502 0
vn 0.8007888 0.5989469 0
vn 0.8007824 0.5989554 0
vn 0.9736025 0.2282502 0
vn 0.2430601 0.9700113 0
vn 0.2430381 0.9700168 0
vn 0 1 0
vn 0 1 0
g S_Outworld_prop_0354_0
f 3/3/3 2/2/2 1/1/1
f 4/4/4 3/3/3 1/1/1
f 2/2/2 3/3/3 5/5/5
f 3/3/3 6/6/6 5/5/5
f 5/5/5 6/6/6 7/7/7
f 6/6/6 8/8/8 7/7/7
