g S_Outworld_prop_0558
v -12.04682 -2.938676 12.04676
v -12.04682 2.938678 12.04676
v 12.04682 2.938678 12.04676
v 12.04682 -2.938676 12.04676
v -12.04682 2.938678 12.04676
v -12.04682 2.938678 -12.04687
v 12.04682 2.938678 -12.04687
v 12.04682 2.938678 12.04676
v -12.04682 2.938678 -12.04687
v -12.04682 -2.938676 -12.04687
v 12.04682 -2.938676 -12.04687
v 12.04682 2.938678 -12.04687
v 12.04682 -2.938676 12.04676
v 12.04682 2.938678 12.04676
v 12.04682 2.938678 -12.04687
v 12.04682 -2.938676 -12.04687
v -12.04682 -2.938676 -12.04687
v -12.04682 2.938678 -12.04687
v -12.04682 2.938678 12.04676
v -12.04682 -2.938676 12.04676
vt 0.4379464 0.5408776
vt 0.4379464 0.5511355
vt 0.4482044 0.5511355
vt 0.4482044 0.5408776
vt 0.4379464 0.5511355
vt 0.4379464 0.5613935
vt 0.4482044 0.5613935
vt 0.4482044 0.5511355
vt 0.4379464 0.5613935
vt 0.4379464 0.5716515
vt 0.4482044 0.5716515
vt 0.4482044 0.5613935
vt 0.4482044 0.5408776
vt 0.4482044 0.5511355
vt 0.4584624 0.5511355
vt 0.4584624 0.5408776
vt 0.4276885 0.5408776
vt 0.4276885 0.5511355
vt 0.4379464 0.5511355
vt 0.4379464 0.5408776
vn 0 0 1
vn 0 0 1
vn 0 0 1
vn 0 0 1
vn 0 1 0
vn 0 1 0
vn 0 1 0
vn 0 1 0
vn 0 0 -1
vn 0 0 -1
vn 0 0 -1
vn 0 0 -1
vn 1 0 0
vn 1 0 0
vn 1 0 0
vn 1 0 0
vn -1 0 0
vn -1 0 0
vn -1 0 0
vn -1 0 0
g S_Outworld_prop_0558_0
f 3/3/3 2/2/2 1/1/1
f 4/4/4 3/3/3 1/1/1
f 7/7/7 6/6/6 5/5/5
f 8/8/8 7/7/7 5/5/5
f 11/11/11 10/10/10 9/9/9
f 12/12/12 11/11/11 9/9/9
f 15/15/15 14/14/14 13/13/13
f 16/16/16 15/15/15 13/13/13
f 19/19/19 18/18/18 17/17/17
f 20/20/20 19/19/19 17/17/17
