g S_Outworld_prop_0324
v -50 508.8469 104.4736
v -50 508.8469 -104.4736
v 50 508.8469 -104.4736
v 50 508.8469 104.4736
v 50 50 104.4736
v 50 508.8469 104.4736
v 50 508.8469 -104.4736
v 50 50 -104.4736
vt 0.2098982 0.2764617
vt 0.2098982 0.4278968
vt 0.2856157 0.4278968
vt 0.2856157 0.2764617
vt 0.1007505 0.1150516
vt 0.1007505 0.3910813
vt 0.2210651 0.3910813
vt 0.2210651 0.1150516
vn 0 1 0
vn 0 1 0
vn 0 1 0
vn 0 1 0
vn 1 0 0
vn 1 0 0
vn 1 0 0
vn 1 0 0
g S_Outworld_prop_0324_0
f 3/3/3 2/2/2 1/1/1
f 4/4/4 3/3/3 1/1/1
f 7/7/7 6/6/6 5/5/5
f 8/8/8 7/7/7 5/5/5
