g S_outworld_paper
v -106.5104 0.8733633 266.217
v -113.3555 -1.562724 268.6329
v -119.8022 -1.669963 250.3247
v -112.9547 0.3219998 247.9106
v -143.7177 -1.767266 258.7464
v -129.6926 -1.070193 274.3859
v -137.271 -1.101026 277.0546
v -132.9719 0.4322557 247.2457
v -133.9638 -1.41163 252.5155
v -148.1004 -1.295422 249.9121
v -147.1106 0.2195778 244.6382
v -151.5028 -1.506961 268.3776
v -136.283 -1.142199 265.1337
v -137.3611 -1.209232 270.985
v -100.061 0.05281842 263.7441
v -103.1549 -0.7060958 262.4696
v -99.3765 -0.7467074 256.1643
v -97.35623 -0.1559886 256.91
v -108.8423 -0.7835575 252.3668
v -111.5467 -0.7429458 259.202
v -153.2302 -1.737674 467.576
v -168.5237 -0.9135771 452.3995
v -163.9084 -1.737674 447.7487
v -143.8927 -1.737674 427.5788
v -128.5993 -1.737674 442.7554
v -181.9136 1.367793 484.8751
v -185.7678 -1.091954 475.7322
v -164.6298 -0.1394588 470.0824
v -161.9482 1.758965 475.8678
v -176.9778 -0.8765745 442.3277
v -196.9195 -1.768298 451.3379
v -167.066 0.4449091 459.878
v -173.7625 -1.340802 457.0475
v -165.5337 -0.7404051 443.2939
v -161.1679 0.6388693 444.96
v -186.1815 -1.229917 435.0097
v -192.0673 -1.790544 449.9188
v 161.6469 0.9233656 89.97429
v 152.8843 -1.226037 86.3647
v 163.5854 -1.341062 68.50661
v 169.3072 0.3319807 70.61873
v 136.7765 -1.445428 57.75121
v 129.117 -1.330403 77.10994
v 196.9195 1.811852 69.17186
v 186.9551 -1.811852 72.6086
v 177.5707 -1.373837 45.96071
v 187.5386 1.603465 42.51198
v 142.7571 -1.788722 58.21388
v 163.1733 -1.281735 80.99712
v 152.1415 -1.413207 84.88002
v 160.3183 0.8877001 -413.7041
v 158.8961 -1.609927 -406.0128
v 138.3188 -1.544433 -409.8119
v 139.7423 0.3587923 -417.5058
v 133.3566 -1.586825 -382.9319
v 155.5063 -1.638881 -387.6506
v 153.9338 -1.652314 -379.1329
v -164.1124 1.64784 -484.7857
v -160.1701 -1.487035 -476.3172
v -182.8221 -1.625035 -465.7921
v -186.7625 0.9383173 -474.2639
v -169.0728 -1.750251 -436.2025
v -150.7778 -0.8532209 -456.104
v -146.4209 -0.8928996 -446.7276
v -146.497 0.6676188 -484.875
v -146.4239 -0.8211106 -478.3116
v -160.7066 -0.9007769 -480.2945
v -160.9104 0.2580099 -484.5141
v -160.2991 -0.9730635 -460.2916
v -145.884 -0.8933954 -460.6539
v -151.562 -0.5099401 -451.2712
v -144.6451 -0.5464754 -444.7296
v -159.5144 -0.5738803 -442.8629
v -148.5306 -0.6318978 -432.4753
v -144.9123 -0.6028051 -436.3009
v -140.5783 0.7989645 -440.8835
vt 0.9304132 0.1566731
vt 0.9304048 0.140805
vt 0.8883252 0.1407985
vt 0.8883227 0.1565756
vt 0.8883336 0.08583105
vt 0.9304106 0.1032558
vt 0.9304132 0.08583755
vt 0.9304132 0.1566731
vt 0.9304048 0.140805
vt 0.8883252 0.1407985
vt 0.8883227 0.1565756
vt 0.8883336 0.08583105
vt 0.9304106 0.1032558
vt 0.9304132 0.08583755
vt 0.9304132 0.1566731
vt 0.9304048 0.140805
vt 0.8883252 0.1407985
vt 0.8883227 0.1565756
vt 0.8883336 0.08583105
vt 0.9304132 0.08583755
vt 0.9437521 0.1585621
vt 0.993253 0.1585621
vt 0.993253 0.1448411
vt 0.993253 0.0853371
vt 0.9437521 0.0853371
vt 0.9304132 0.1566731
vt 0.9304048 0.140805
vt 0.8883252 0.1407985
vt 0.8883227 0.1565756
vt 0.8883336 0.08583105
vt 0.9304132 0.08583755
vt 0.9304132 0.1566731
vt 0.9304048 0.140805
vt 0.8883252 0.1407985
vt 0.8883227 0.1565756
vt 0.8883336 0.08583105
vt 0.9304132 0.08583755
vt 0.9304132 0.1566731
vt 0.9304048 0.140805
vt 0.8883252 0.1407985
vt 0.8883227 0.1565756
vt 0.8883336 0.08583105
vt 0.9304132 0.08583755
vt 0.9304132 0.1566731
vt 0.9304048 0.140805
vt 0.8883252 0.1407985
vt 0.8883227 0.1565756
vt 0.8883336 0.08583105
vt 0.9304106 0.1032558
vt 0.9304132 0.08583755
vt 0.9304132 0.1566731
vt 0.9304065 0.1408148
vt 0.8883252 0.140799
vt 0.8883227 0.1565756
vt 0.8883336 0.08583108
vt 0.9304106 0.1032558
vt 0.9303886 0.08583482
vt 0.9304132 0.1566731
vt 0.9304048 0.140805
vt 0.8883252 0.1407985
vt 0.8883227 0.1565756
vt 0.8883336 0.08583105
vt 0.9304106 0.1032558
vt 0.9304132 0.08583755
vt 0.9304132 0.1566731
vt 0.9304048 0.140805
vt 0.8883252 0.1407985
vt 0.8883227 0.1565756
vt 0.8883336 0.08583105
vt 0.9304132 0.08583755
vt 0.9304048 0.140805
vt 0.9304101 0.1061895
vt 0.8883252 0.1407985
vt 0.8883336 0.08583105
vt 0.9074801 0.08583401
vt 0.9304132 0.08583755
vn -0.09841315 0.9950047 0.01675089
vn -0.02624647 0.9996552 0.0006864275
vn -0.02624655 0.9996552 0.0006864467
vn -0.09841315 0.9950047 0.01675089
vn -0.005454763 0.9999774 -0.003936612
vn -0.0004326472 0.9996849 -0.02509687
vn -0.005454763 0.9999774 -0.003936612
vn -0.02245289 0.9943841 0.1034229
vn -0.0004282726 0.9994593 0.0328759
vn -0.0004283022 0.9994593 0.03287599
vn -0.02245289 0.9943841 0.1034229
vn 0.005909457 0.9999039 0.0125435
vn -0.009949696 0.9999478 -0.00234108
vn 0.005909457 0.9999039 0.0125435
vn -0.08527626 0.9950047 -0.05190089
vn -0.02026308 0.9996552 -0.01669597
vn -0.02026316 0.9996552 -0.01669602
vn -0.08527627 0.9950047 -0.05190089
vn -0.001535796 0.9999774 -0.006549251
vn -0.001535796 0.9999774 -0.006549251
vn 0.002725942 0.9999952 -0.001467819
vn 0.1147555 0.9914693 -0.06180289
vn 0.00765211 0.9999622 -0.004120717
vn 0 1 0
vn 0 1 0
vn -0.07553001 0.992451 -0.0966245
vn -0.05362957 0.9982199 -0.02609212
vn -0.05362959 0.9982199 -0.02609221
vn -0.07553001 0.992451 -0.0966245
vn -0.04727349 0.9988654 -0.005770831
vn -0.04727349 0.9988654 -0.005770831
vn -0.1172768 0.9928726 -0.02121452
vn -0.05241191 0.9985258 0.01411699
vn -0.05241199 0.9985258 0.01411694
vn -0.1172768 0.9928726 -0.02121452
vn -0.03369461 0.9991375 0.02426882
vn -0.03369461 0.9991375 0.02426882
vn -0.08527627 0.9950047 -0.05190089
vn -0.02026308 0.9996552 -0.01669597
vn -0.02026316 0.9996552 -0.01669602
vn -0.08527628 0.9950047 -0.05190089
vn -0.001535795 0.9999774 -0.00654925
vn -0.001535795 0.9999774 -0.00654925
vn -0.09841315 0.9943841 0.03892658
vn -0.02624646 0.9993916 0.02296977
vn -0.02624655 0.9993916 0.02296979
vn -0.09841315 0.9943841 0.03892658
vn -0.005454764 0.9998167 0.01835507
vn -0.0004326541 0.9999959 -0.002806508
vn -0.005454764 0.9998167 0.01835507
vn -0.03168689 0.9948989 0.0957717
vn -0.009676485 0.9996357 0.02519669
vn -0.009676513 0.9996357 0.02519678
vn -0.03168689 0.9948989 0.09577171
vn -0.003333442 0.9999826 0.004864042
vn 0.002796208 0.9999939 0.002093191
vn -0.003333442 0.9999826 0.004864042
vn 0.02614529 0.9950047 0.09634399
vn 0.003209438 0.9996552 0.02605854
vn 0.003209467 0.9996552 0.02605863
vn 0.0261453 0.9950047 0.09634399
vn -0.003393318 0.9999774 0.005808333
vn -0.02493872 0.9996849 0.002846214
vn -0.003393318 0.9999774 0.005808333
vn -0.01440863 0.9950047 0.09878328
vn -0.007439507 0.9996552 0.0251794
vn -0.007439516 0.9996552 0.02517949
vn -0.01440863 0.9950047 0.09878328
vn -0.005426672 0.9999774 0.003975247
vn -0.005426672 0.9999774 0.003975247
vn 0.01260694 0.9996552 0.0230307
vn -0.001007964 0.9999774 0.006650814
vn 0.012607 0.9996552 0.02303078
vn -0.001008151 0.9999774 0.006650939
vn -0.0176155 0.9998261 0.006123541
vn -0.001008151 0.9999774 0.006650939
g S_outworld_paper_0
f 3/3/3 2/2/2 1/1/1
f 4/4/4 3/3/3 1/1/1
f 3/3/3 5/5/5 2/2/2
f 5/5/5 6/6/6 2/2/2
f 5/5/5 7/7/7 6/6/6
f 10/10/10 9/9/9 8/8/8
f 11/11/11 10/10/10 8/8/8
f 10/10/10 12/12/12 9/9/9
f 12/12/12 13/13/13 9/9/9
f 12/12/12 14/14/14 13/13/13
f 17/17/17 16/16/16 15/15/15
f 18/18/18 17/17/17 15/15/15
f 17/17/17 19/19/19 16/16/16
f 19/19/19 20/20/20 16/16/16
f 23/23/23 22/22/22 21/21/21
f 23/23/23 21/21/21 24/24/24
f 21/21/21 25/25/25 24/24/24
f 28/28/28 27/27/27 26/26/26
f 29/29/29 28/28/28 26/26/26
f 28/28/28 30/30/30 27/27/27
f 30/30/30 31/31/31 27/27/27
f 34/34/34 33/33/33 32/32/32
f 35/35/35 34/34/34 32/32/32
f 34/34/34 36/36/36 33/33/33
f 36/36/36 37/37/37 33/33/33
f 40/40/40 39/39/39 38/38/38
f 41/41/41 40/40/40 38/38/38
f 40/40/40 42/42/42 39/39/39
f 42/42/42 43/43/43 39/39/39
f 46/46/46 45/45/45 44/44/44
f 47/47/47 46/46/46 44/44/44
f 46/46/46 48/48/48 45/45/45
f 48/48/48 49/49/49 45/45/45
f 48/48/48 50/50/50 49/49/49
f 53/53/53 52/52/52 51/51/51
f 54/54/54 53/53/53 51/51/51
f 53/53/53 55/55/55 52/52/52
f 55/55/55 56/56/56 52/52/52
f 55/55/55 57/57/57 56/56/56
f 60/60/60 59/59/59 58/58/58
f 61/61/61 60/60/60 58/58/58
f 60/60/60 62/62/62 59/59/59
f 62/62/62 63/63/63 59/59/59
f 62/62/62 64/64/64 63/63/63
f 67/67/67 66/66/66 65/65/65
f 68/68/68 67/67/67 65/65/65
f 67/67/67 69/69/69 66/66/66
f 69/69/69 70/70/70 66/66/66
f 73/73/73 72/72/72 71/71/71
f 73/73/73 74/74/74 72/72/72
f 74/74/74 75/75/75 72/72/72
f 75/75/75 76/76/76 72/72/72
