g S_Outworld_prop_015
v 83.4247 -200 -200.8147
v 83.4247 -200 -109.2829
v 83.4247 311.9672 -109.2829
v 83.4247 311.9672 -200.8147
v 83.05135 -200 -1.336658
v 83.05135 -200 243.2922
v 83.05135 311.9672 243.2922
v 83.05135 311.9672 -1.336658
v 42.24977 -200 -107.243
v 42.24977 -200 -3.376529
v 42.24977 311.9672 -3.376529
v 42.24977 311.9672 -107.243
v 42.24977 -200 -107.243
v 42.24977 311.9672 -107.243
v 81.38484 311.9672 -107.243
v 81.38484 -200 -107.243
v 42.24977 311.9672 -107.243
v -126.6208 311.9672 -202.8546
v 81.38484 311.9672 -202.8546
v 81.38484 311.9672 -107.243
v 42.24977 311.9672 -3.376529
v -126.6208 311.9672 245.3703
v 83.05135 311.9672 243.2922
v 83.05135 311.9672 -1.336658
v 81.01149 311.9672 -3.376529
v 83.4247 311.9672 -109.2829
v 83.4247 311.9672 -200.8147
v -126.6208 311.9672 -202.8546
v -126.6208 -200 -202.8546
v 81.38484 -200 -202.8546
v 81.38484 311.9672 -202.8546
v 42.24977 311.9672 -3.376529
v 42.24977 -200 -3.376529
v 81.01149 -200 -3.376529
v 81.01149 311.9672 -3.376529
v 81.38484 -200 -107.243
v 81.38484 311.9672 -107.243
v 83.4247 311.9672 -109.2829
v 83.4247 -200 -109.2829
v 83.4247 -200 -200.8147
v 83.4247 311.9672 -200.8147
v 81.38484 311.9672 -202.8546
v 81.38484 -200 -202.8546
v 83.05135 -200 -1.336658
v 83.05135 311.9672 -1.336658
v 81.01149 311.9672 -3.376529
v 81.01149 -200 -3.376529
vt 0.1337458 0.05758036
vt 0.07879017 0.05758036
vt 0.07879017 0.3649652
vt 0.1337458 0.3649652
vt 0.2633495 0.06728195
vt 0.1164735 0.06728018
vt 0.1164735 0.3746649
vt 0.2633495 0.3746668
vt 0.1575242 0.06728342
vt 0.09516284 0.06728342
vt 0.09516298 0.3746668
vt 0.1575244 0.3746668
vt 0.1614913 0.06728207
vt 0.1614912 0.3746668
vt 0.1849876 0.3746668
vt 0.1849877 0.06728207
vt 0.3650966 0.2772966
vt 0.4446583 0.2322502
vt 0.3466586 0.2322502
vt 0.3466586 0.2772966
vt 0.3650967 0.3262323
vt 0.44466 0.4434274
vt 0.3458712 0.4424489
vt 0.3458735 0.3271934
vt 0.3468346 0.3262323
vt 0.3456977 0.2763356
vt 0.3456976 0.2332114
vt 0.3153397 0.05630753
vt 0.3153397 0.3636925
vt 0.4402262 0.3636925
vt 0.4402262 0.05630753
vt 0.2598207 0.05630753
vt 0.2598206 0.3636924
vt 0.2830932 0.3636924
vt 0.2830932 0.05630753
vt 0.07756576 0.05757942
vt 0.07756557 0.3649652
vt 0.07879017 0.3649652
vt 0.07879017 0.05758036
vt 0.1337458 0.05758036
vt 0.1337458 0.3649652
vt 0.1349706 0.3649652
vt 0.1349708 0.05758021
vt 0.2633495 0.06728195
vt 0.2633495 0.3746668
vt 0.2645741 0.3746668
vt 0.2645739 0.06728265
vn 1 0 0
vn 1 0 0
vn 1 0 0
vn 1 0 0
vn 1 0 0
vn 1 0 0
vn 1 0 0
vn 1 0 0
vn 1 0 0
vn 1 0 0
vn 1 0 0
vn 1 0 0
vn 0 0 1
vn 0 0 1
vn 0 0 1
vn 0 0 1
vn 0 1 0
vn 0 1 0
vn 0 1 0
vn 0 1 0
vn 0 1 0
vn 0 1 0
vn 0 1 0
vn 0 1 0
vn 0 1 0
vn 0 1 0
vn 0 1 0
vn 0 0 -1
vn 0 0 -1
vn 0 0 -1
vn 0 0 -1
vn 0 0 -1
vn 0 0 -1
vn 0 0 -1
vn 0 0 -1
vn 0.7071136 0 0.7071
vn 0.7071136 0 0.7071
vn 0.7071136 0 0.7071
vn 0.7071136 0 0.7071
vn 0.7071136 0 -0.7071
vn 0.7071136 0 -0.7071
vn 0.7071136 0 -0.7071
vn 0.7071136 0 -0.7071
vn 0.7071109 0 -0.7071026
vn 0.7071109 0 -0.7071026
vn 0.7071109 0 -0.7071026
vn 0.7071109 0 -0.7071026
g S_Outworld_prop_015_0
f 3/3/3 2/2/2 1/1/1
f 4/4/4 3/3/3 1/1/1
f 7/7/7 6/6/6 5/5/5
f 8/8/8 7/7/7 5/5/5
f 11/11/11 10/10/10 9/9/9
f 12/12/12 11/11/11 9/9/9
f 15/15/15 14/14/14 13/13/13
f 16/16/16 15/15/15 13/13/13
f 19/19/19 18/18/18 17/17/17
f 20/20/20 19/19/19 17/17/17
f 21/21/21 17/17/17 18/18/18
f 22/22/22 21/21/21 18/18/18
f 23/23/23 21/21/21 22/22/22
f 23/23/23 24/24/24 21/21/21
f 24/24/24 25/25/25 21/21/21
f 20/20/20 26/26/26 19/19/19
f 26/26/26 27/27/27 19/19/19
f 30/30/30 29/29/29 28/28/28
f 31/31/31 30/30/30 28/28/28
f 34/34/34 33/33/33 32/32/32
f 35/35/35 34/34/34 32/32/32
f 38/38/38 37/37/37 36/36/36
f 39/39/39 38/38/38 36/36/36
f 42/42/42 41/41/41 40/40/40
f 43/43/43 42/42/42 40/40/40
f 46/46/46 45/45/45 44/44/44
f 47/47/47 46/46/46 44/44/44
