g S_Outworld_prop_0555
v 50 0.001919218 -48.50012
v -48.50015 0.001919218 50
v -50 0.001919218 48.50012
v 48.50015 0.001919218 -50
v 48.50015 0.001919218 50
v 50 0.001919218 48.50012
v -48.50015 0.001919218 -50
v -50 0.001919218 -48.50012
v 50 0.001919218 -48.50012
v 48.50015 0.001919218 -50
v 48.50015 -85.12876 -50
v 50 -85.12876 -48.50012
v -48.50015 -85.12876 -50
v -48.50015 0.001919218 -50
v 50 0.001919218 48.50012
v 50 -85.12876 48.50012
v 48.50015 0.001919218 50
v 48.50015 -85.12876 50
v -48.50015 0.001919218 -50
v -50 0.001919218 -48.50012
v -50 -85.12876 -48.50012
v -48.50015 -85.12876 -50
v -50 -85.12876 48.50012
v -50 0.001919218 48.50012
v -48.50015 -85.12876 50
v -48.50015 0.001919218 50
v 48.50015 -85.12876 50
v 48.50015 0.001919218 50
vt 0.7970133 0.9961799
vt 0.6996051 0.8984178
vt 0.6982371 0.8999055
vt 0.795404 0.9976686
vt 0.7956445 0.8984178
vt 0.7970133 0.8999055
vt 0.6998464 0.9976686
vt 0.6982371 0.9961799
vt 0.6413392 0.6143631
vt 0.6419459 0.6143642
vt 0.6419424 0.5900078
vt 0.6413358 0.5900078
vt 0.6696807 0.5900078
vt 0.6696807 0.6143642
vt 0.6136056 0.6143642
vt 0.6135964 0.5900078
vt 0.6129988 0.6143642
vt 0.6129897 0.5900078
vt 0.6696807 0.6143642
vt 0.6702864 0.6143642
vt 0.6702864 0.5900078
vt 0.6696807 0.5900078
vt 0.6980245 0.5900078
vt 0.6980211 0.6143642
vt 0.6986312 0.5900078
vt 0.6986278 0.6143631
vt 0.7263706 0.5900078
vt 0.7263614 0.6143631
vn 0 1 0
vn 0 1 0
vn 0 1 0
vn 0 1 0
vn 0 1 0
vn 0 1 0
vn 0 1 0
vn 0 1 0
vn 0.9998841 0 -0.01522509
vn 0.01522504 0 -0.9998841
vn 0.01522504 0 -0.9998841
vn 0.9998841 0 -0.01522509
vn -0.01522504 0 -0.9998841
vn -0.01522504 0 -0.9998841
vn 0.9998841 0 0.01522513
vn 0.9998841 0 0.01522513
vn 0.01522509 0 0.9998841
vn 0.01522509 0 0.9998841
vn -0.01522504 0 -0.9998841
vn -0.9998841 0 -0.01522509
vn -0.9998841 0 -0.01522509
vn -0.01522504 0 -0.9998841
vn -0.9998841 0 0.01522509
vn -0.9998841 0 0.01522509
vn -0.01522505 0 0.9998841
vn -0.01522505 0 0.9998841
vn 0.01522509 0 0.9998841
vn 0.01522509 0 0.9998841
g S_Outworld_prop_0555_0
f 3/3/3 2/2/2 1/1/1
f 4/4/4 3/3/3 1/1/1
f 2/2/2 5/5/5 1/1/1
f 5/5/5 6/6/6 1/1/1
f 4/4/4 7/7/7 3/3/3
f 7/7/7 8/8/8 3/3/3
f 11/11/11 10/10/10 9/9/9
f 12/12/12 11/11/11 9/9/9
f 11/11/11 13/13/13 10/10/10
f 13/13/13 14/14/14 10/10/10
f 12/12/12 9/9/9 15/15/15
f 16/16/16 12/12/12 15/15/15
f 16/16/16 15/15/15 17/17/17
f 18/18/18 16/16/16 17/17/17
f 21/21/21 20/20/20 19/19/19
f 22/22/22 21/21/21 19/19/19
f 21/21/21 23/23/23 20/20/20
f 23/23/23 24/24/24 20/20/20
f 23/23/23 25/25/25 24/24/24
f 25/25/25 26/26/26 24/24/24
f 25/25/25 27/27/27 26/26/26
f 27/27/27 28/28/28 26/26/26
