g S_Outworld_prop_0565
v -207.4189 623.9343 0
v -207.419 301.3516 239.1088
v -207.419 244.0406 239.1088
v -207.4189 1.525879E-05 0
v -207.419 301.3516 244.3868
v -207.419 623.9343 244.3868
v -207.419 1.525879E-05 244.3868
v -207.419 244.0406 244.3868
v 8.069804E-07 623.9343 0
v -2.265548 623.9343 244.3868
v -207.419 623.9343 244.3868
v -207.4189 623.9343 0
v -205.2301 623.9343 246.3945
v -4.45436 623.9343 246.3945
v -2.265548 244.0406 239.1088
v 8.069804E-07 1.525879E-05 0
v -2.265548 1.525879E-05 244.3868
v -2.265548 244.0406 244.3868
v 8.069804E-07 623.9343 0
v -2.265548 301.3516 239.1088
v -2.265548 623.9343 244.3868
v -2.265548 301.3516 244.3868
v -205.2301 244.0406 246.3945
v -4.45436 244.0406 246.3945
v -4.45436 1.525879E-05 246.3945
v -205.2301 1.525879E-05 246.3945
v -205.2301 623.9343 246.3945
v -4.45436 623.9343 246.3945
v -4.45436 301.3516 246.3945
v -205.2301 301.3516 246.3945
v -207.419 244.0406 239.1088
v -207.419 301.3516 239.1088
v -2.265548 301.3516 239.1088
v -2.265548 244.0406 239.1088
v -2.265548 244.0406 244.3868
v -4.45436 244.0406 246.3945
v -205.2301 244.0406 246.3945
v -207.419 244.0406 244.3868
v -2.265548 244.0406 239.1088
v -207.419 244.0406 239.1088
v -207.419 301.3516 244.3868
v -205.2301 301.3516 246.3945
v -4.45436 301.3516 246.3945
v -2.265548 301.3516 244.3868
v -207.419 301.3516 239.1088
v -2.265548 301.3516 239.1088
v -4.45436 1.525879E-05 246.3945
v -4.45436 244.0406 246.3945
v -2.265548 244.0406 244.3868
v -2.265548 1.525879E-05 244.3868
v -207.419 1.525879E-05 244.3868
v -207.419 244.0406 244.3868
v -205.2301 244.0406 246.3945
v -205.2301 1.525879E-05 246.3945
v -207.419 301.3516 244.3868
v -207.419 623.9343 244.3868
v -205.2301 623.9343 246.3945
v -205.2301 301.3516 246.3945
v -4.45436 301.3516 246.3945
v -4.45436 623.9343 246.3945
v -2.265548 623.9343 244.3868
v -2.265548 301.3516 244.3868
vt 0.1609134 0.431478
vt 0.2851914 0.263814
vt 0.2851914 0.2340263
vt 0.1609133 0.1071849
vt 0.2879347 0.263814
vt 0.2879347 0.431478
vt 0.2879347 0.1071849
vt 0.2879347 0.2340263
vt 0.2576443 0.303575
vt 0.2560431 0.1152601
vt 0.1110387 0.1152601
vt 0.1110387 0.303575
vt 0.1125858 0.113713
vt 0.254496 0.113713
vt 0.2837448 0.3046367
vt 0.1594663 0.4314775
vt 0.2864881 0.431478
vt 0.2864881 0.3046367
vt 0.1594663 0.1071845
vt 0.2837448 0.274849
vt 0.2864881 0.1071849
vt 0.2864881 0.274849
vt 0.1098063 0.2892838
vt 0.286229 0.2892838
vt 0.286229 0.055502
vt 0.1098063 0.055502
vt 0.1079543 0.3862782
vt 0.284377 0.3862782
vt 0.284377 0.0772559
vt 0.1079543 0.0772559
vt 0.09954184 0.3705324
vt 0.0995419 0.4254342
vt 0.2798113 0.4254341
vt 0.2798113 0.3705324
vt 0.09954178 0.362785
vt 0.1014652 0.3647083
vt 0.277888 0.3647084
vt 0.2798113 0.362785
vt 0.0995419 0.3577287
vt 0.2798114 0.3577287
vt 0.09954178 0.3499812
vt 0.1014652 0.3519046
vt 0.2778879 0.3519047
vt 0.2798113 0.3499812
vt 0.09954196 0.344925
vt 0.2798113 0.344925
vt 0.286229 0.055502
vt 0.286229 0.2892838
vt 0.2881524 0.2892838
vt 0.2881524 0.055502
vt 0.107883 0.055502
vt 0.107883 0.2892838
vt 0.1098063 0.2892838
vt 0.1098063 0.055502
vt 0.1060309 0.0772559
vt 0.1060309 0.3862782
vt 0.1079543 0.3862782
vt 0.1079543 0.0772559
vt 0.284377 0.0772559
vt 0.284377 0.3862782
vt 0.2863004 0.3862782
vt 0.2863004 0.0772559
vn -1 0 0
vn -1 0 0
vn -1 0 0
vn -1 0 0
vn -1 0 0
vn -1 0 0
vn -1 0 0
vn -1 0 0
vn 0 1 0
vn 0 1 0
vn 0 1 0
vn 0 1 0
vn 0 1 0
vn 0 1 0
vn 0.9999589 0.0001962393 0.009073983
vn 0.9999589 0.0001962393 0.009073982
vn 0.9999589 0.0001962393 0.009073983
vn 0.9999589 0.0001962393 0.009073983
vn 0.9999589 -0.0001484551 0.009073994
vn 0.9999589 -0.0001484551 0.009073994
vn 0.9999589 -0.0001484551 0.009073994
vn 0.9999589 -0.0001484551 0.009073994
vn 0 0 1
vn 0 0 1
vn 0 0 1
vn 0 0 1
vn 0 0 1
vn 0 0 1
vn 0 0 1
vn 0 0 1
vn 0 0 1
vn 0 0 1
vn 0 0 1
vn 0 0 1
vn 0 1 0
vn 0 1 0
vn 0 1 0
vn 0 1 0
vn 0 1 0
vn 0 1 0
vn 0 -1 0
vn 0 -1 0
vn 0 -1 0
vn 0 -1 0
vn 0 -1 0
vn 0 -1 0
vn 0.6759551 0 0.7369429
vn 0.6759551 0 0.7369429
vn 0.6759551 0 0.7369429
vn 0.6759551 0 0.7369429
vn -0.6759499 0 0.7369476
vn -0.6759499 0 0.7369476
vn -0.6759499 0 0.7369476
vn -0.6759499 0 0.7369476
vn -0.6759591 0 0.7369391
vn -0.6759591 0 0.7369391
vn -0.6759591 0 0.7369391
vn -0.6759591 0 0.7369391
vn 0.6759643 0 0.7369344
vn 0.6759643 0 0.7369344
vn 0.6759643 0 0.7369344
vn 0.6759643 0 0.7369344
g S_Outworld_prop_0565_0
f 3/3/3 2/2/2 1/1/1
f 4/4/4 3/3/3 1/1/1
f 2/2/2 5/5/5 1/1/1
f 5/5/5 6/6/6 1/1/1
f 4/4/4 7/7/7 3/3/3
f 7/7/7 8/8/8 3/3/3
f 11/11/11 10/10/10 9/9/9
f 12/12/12 11/11/11 9/9/9
f 11/11/11 13/13/13 10/10/10
f 13/13/13 14/14/14 10/10/10
f 17/17/17 16/16/16 15/15/15
f 18/18/18 17/17/17 15/15/15
f 16/16/16 19/19/19 15/15/15
f 19/19/19 20/20/20 15/15/15
f 19/19/19 21/21/21 20/20/20
f 21/21/21 22/22/22 20/20/20
f 25/25/25 24/24/24 23/23/23
f 26/26/26 25/25/25 23/23/23
f 29/29/29 28/28/28 27/27/27
f 30/30/30 29/29/29 27/27/27
f 33/33/33 32/32/32 31/31/31
f 34/34/34 33/33/33 31/31/31
f 37/37/37 36/36/36 35/35/35
f 38/38/38 37/37/37 35/35/35
f 38/38/38 35/35/35 39/39/39
f 40/40/40 38/38/38 39/39/39
f 43/43/43 42/42/42 41/41/41
f 44/44/44 43/43/43 41/41/41
f 44/44/44 41/41/41 45/45/45
f 46/46/46 44/44/44 45/45/45
f 49/49/49 48/48/48 47/47/47
f 50/50/50 49/49/49 47/47/47
f 53/53/53 52/52/52 51/51/51
f 54/54/54 53/53/53 51/51/51
f 57/57/57 56/56/56 55/55/55
f 58/58/58 57/57/57 55/55/55
f 61/61/61 60/60/60 59/59/59
f 62/62/62 61/61/61 59/59/59
