g S_Outworld_prop_0168
v -4.801397 -0.1317147 1.809915
v -4.807196 0.411071 1.613199
v 4.906183 0.2725212 1.293497
v 4.912043 -0.2702645 1.490213
v -4.906805 0.284362 -1.360068
v 4.806513 0.1456901 -1.67977
v 4.906183 0.2725212 1.293497
v -4.807196 0.411071 1.613199
v 4.806513 0.1456901 -1.67977
v -4.906805 0.284362 -1.360068
v -4.912054 -0.2724617 -1.490317
v 4.801325 -0.4110726 -1.809958
vt 0.03932945 0.2672007
vt 0.04258364 0.2672639
vt 0.0429781 0.2124804
vt 0.03972391 0.2124168
vt 0.05936647 0.2673846
vt 0.05976093 0.2126011
vt 0.0429781 0.2124804
vt 0.04258364 0.2672639
vt 0.05976093 0.2126011
vt 0.05936647 0.2673846
vt 0.06258933 0.2673682
vt 0.06298421 0.2125847
vn 0.03578555 0.3408574 0.9394336
vn 0.03578555 0.3408574 0.9394336
vn 0.03578554 0.3408574 0.9394336
vn 0.03578555 0.3408574 0.9394336
vn 0.01283957 0.9989917 -0.04302176
vn 0.01283957 0.9989917 -0.04302176
vn 0.01283957 0.9989917 -0.04302176
vn 0.01283957 0.9989917 -0.04302176
vn -0.02877294 0.2278665 -0.9732671
vn -0.02877294 0.2278665 -0.9732671
vn -0.02877294 0.2278665 -0.9732671
vn -0.02877294 0.2278665 -0.9732671
g S_Outworld_prop_0168_0
f 3/3/3 2/2/2 1/1/1
f 4/4/4 3/3/3 1/1/1
f 7/7/7 6/6/6 5/5/5
f 8/8/8 7/7/7 5/5/5
f 11/11/11 10/10/10 9/9/9
f 12/12/12 11/11/11 9/9/9
